G04*
G04 #@! TF.GenerationSoftware,Altium Limited,Altium Designer,20.0.13 (296)*
G04*
G04 Layer_Color=16711935*
%FSTAX24Y24*%
%MOIN*%
G70*
G01*
G75*
%ADD37C,0.0680*%
G04:AMPARAMS|DCode=38|XSize=78.9mil|YSize=78.9mil|CornerRadius=12.9mil|HoleSize=0mil|Usage=FLASHONLY|Rotation=0.000|XOffset=0mil|YOffset=0mil|HoleType=Round|Shape=RoundedRectangle|*
%AMROUNDEDRECTD38*
21,1,0.0789,0.0531,0,0,0.0*
21,1,0.0531,0.0789,0,0,0.0*
1,1,0.0257,0.0266,-0.0266*
1,1,0.0257,-0.0266,-0.0266*
1,1,0.0257,-0.0266,0.0266*
1,1,0.0257,0.0266,0.0266*
%
%ADD38ROUNDEDRECTD38*%
%ADD39C,0.0789*%
G04:AMPARAMS|DCode=40|XSize=78.9mil|YSize=78.9mil|CornerRadius=12.9mil|HoleSize=0mil|Usage=FLASHONLY|Rotation=270.000|XOffset=0mil|YOffset=0mil|HoleType=Round|Shape=RoundedRectangle|*
%AMROUNDEDRECTD40*
21,1,0.0789,0.0531,0,0,270.0*
21,1,0.0531,0.0789,0,0,270.0*
1,1,0.0257,-0.0266,-0.0266*
1,1,0.0257,-0.0266,0.0266*
1,1,0.0257,0.0266,0.0266*
1,1,0.0257,0.0266,-0.0266*
%
%ADD40ROUNDEDRECTD40*%
%ADD41C,0.0580*%
%ADD42C,0.1330*%
D37*
X00975Y025D02*
D03*
X00775D02*
D03*
X017D02*
D03*
X015D02*
D03*
X02425D02*
D03*
X02225D02*
D03*
X0315D02*
D03*
X0295D02*
D03*
X0315Y014D02*
D03*
Y016D02*
D03*
X031402Y00775D02*
D03*
Y00975D02*
D03*
Y00175D02*
D03*
Y00375D02*
D03*
X005848Y006D02*
D03*
Y01D02*
D03*
X009848Y015D02*
D03*
Y018D02*
D03*
D38*
X00825Y021598D02*
D03*
X0155D02*
D03*
X02275D02*
D03*
X03D02*
D03*
X018Y02D02*
D03*
X0074D02*
D03*
X011Y001D02*
D03*
X02D02*
D03*
X0195Y00225D02*
D03*
Y00325D02*
D03*
D39*
X00925Y021598D02*
D03*
X0165D02*
D03*
X02375D02*
D03*
X031D02*
D03*
X028098Y0145D02*
D03*
X028Y00825D02*
D03*
Y00225D02*
D03*
X00925Y0095D02*
D03*
Y0085D02*
D03*
Y0075D02*
D03*
X01325Y0175D02*
D03*
Y0165D02*
D03*
X019Y02D02*
D03*
X02D02*
D03*
X021D02*
D03*
X022D02*
D03*
X023D02*
D03*
X025D02*
D03*
X024D02*
D03*
X0124D02*
D03*
X0114D02*
D03*
X0104D02*
D03*
X0094D02*
D03*
X0084D02*
D03*
X0164D02*
D03*
X0154D02*
D03*
X0144D02*
D03*
X0134D02*
D03*
X012Y001D02*
D03*
X013D02*
D03*
X014D02*
D03*
X015D02*
D03*
X016D02*
D03*
X018D02*
D03*
X017D02*
D03*
X025D02*
D03*
X024D02*
D03*
X023D02*
D03*
X022D02*
D03*
X021D02*
D03*
X0245Y00225D02*
D03*
X0235D02*
D03*
X0225D02*
D03*
X0215D02*
D03*
X0205D02*
D03*
X0245Y00325D02*
D03*
X0235D02*
D03*
X0225D02*
D03*
X0215D02*
D03*
X0205D02*
D03*
D40*
X028098Y0155D02*
D03*
X028Y00925D02*
D03*
Y00325D02*
D03*
X00925Y0065D02*
D03*
X01325Y0155D02*
D03*
D41*
X022Y01675D02*
D03*
Y018D02*
D03*
X01175Y0145D02*
D03*
D42*
X026Y003D02*
D03*
Y014D02*
D03*
X0055Y001D02*
D03*
X006Y02D02*
D03*
M02*
