G04*
G04 #@! TF.GenerationSoftware,Altium Limited,Altium Designer,20.0.13 (296)*
G04*
G04 Layer_Color=65535*
%FSTAX24Y24*%
%MOIN*%
G70*
G01*
G75*
%ADD10C,0.0197*%
%ADD11C,0.0098*%
%ADD12C,0.0100*%
%ADD13C,0.0059*%
%ADD14C,0.0079*%
%ADD15C,0.0120*%
%ADD16R,0.0266X0.0217*%
D10*
X007463Y021598D02*
G03*
X007463Y021598I-000059J0D01*
G01*
X014713D02*
G03*
X014713Y021598I-000059J0D01*
G01*
X021963D02*
G03*
X021963Y021598I-000059J0D01*
G01*
X029213D02*
G03*
X029213Y021598I-000059J0D01*
G01*
X028157Y016346D02*
G03*
X028157Y016346I-000059J0D01*
G01*
X028059Y010096D02*
G03*
X028059Y010096I-000059J0D01*
G01*
Y004096D02*
G03*
X028059Y004096I-000059J0D01*
G01*
X009309Y005654D02*
G03*
X009309Y005654I-000059J0D01*
G01*
X013309Y014654D02*
G03*
X013309Y014654I-000059J0D01*
G01*
X018713Y00225D02*
G03*
X018713Y00225I-000059J0D01*
G01*
Y00325D02*
G03*
X018713Y00325I-000059J0D01*
G01*
D11*
X01223Y004839D02*
G03*
X01223Y004839I-000049J0D01*
G01*
X0156Y004248D02*
G03*
X0156Y004248I-000049J0D01*
G01*
X015502Y015782D02*
G03*
X015502Y015782I-000049J0D01*
G01*
D12*
X009785Y021323D02*
X010455D01*
X00703Y021283D02*
X007738D01*
X010455Y021323D02*
Y026638D01*
X00703Y021283D02*
Y026638D01*
X00975Y021098D02*
Y021323D01*
X00775Y021098D02*
X00975D01*
X00775D02*
Y021283D01*
X017035Y021323D02*
X017705D01*
X01428Y021283D02*
X014988D01*
X017705Y021323D02*
Y026638D01*
X01428Y021283D02*
Y026638D01*
X017Y021098D02*
Y021323D01*
X015Y021098D02*
X017D01*
X015D02*
Y021283D01*
X024285Y021323D02*
X024955D01*
X02153Y021283D02*
X022238D01*
X024955Y021323D02*
Y026638D01*
X02153Y021283D02*
Y026638D01*
X02425Y021098D02*
Y021323D01*
X02225Y021098D02*
X02425D01*
X02225D02*
Y021283D01*
X031535Y021323D02*
X032205D01*
X02878Y021283D02*
X029488D01*
X032205Y021323D02*
Y026638D01*
X02878Y021283D02*
Y026638D01*
X0315Y021098D02*
Y021323D01*
X0295Y021098D02*
X0315D01*
X0295D02*
Y021283D01*
X027823Y013295D02*
Y013965D01*
X027783Y016012D02*
Y01672D01*
X027823Y013295D02*
X033138D01*
X027783Y01672D02*
X033138D01*
X027598Y014D02*
X027823D01*
X027598D02*
Y016D01*
X027783D01*
X027724Y007045D02*
Y007715D01*
X027685Y009762D02*
Y01047D01*
X027724Y007045D02*
X033039D01*
X027685Y01047D02*
X033039D01*
X0275Y00775D02*
X027724D01*
X0275D02*
Y00975D01*
X027685D01*
X027724Y001045D02*
Y001715D01*
X027685Y003762D02*
Y00447D01*
X027724Y001045D02*
X033039D01*
X027685Y00447D02*
X033039D01*
X0275Y00175D02*
X027724D01*
X0275D02*
Y00375D01*
X027685D01*
X009526Y010004D02*
Y010713D01*
X009486Y010752D02*
X009526Y010713D01*
X004171Y010752D02*
X009486D01*
X009526Y00528D02*
Y005988D01*
X009486Y00524D02*
X009526Y00528D01*
X004171Y00524D02*
X009486D01*
X009526Y006D02*
X00975D01*
Y01D01*
X009526D02*
X00975D01*
X013526Y01802D02*
Y018728D01*
X013486Y018768D02*
X013526Y018728D01*
X008171Y018768D02*
X013486D01*
X013526Y01428D02*
Y014988D01*
X013486Y01424D02*
X013526Y01428D01*
X008171Y01424D02*
X013486D01*
X013526Y015D02*
X01375D01*
Y018D01*
X013526D02*
X01375D01*
X005606Y025803D02*
X005803D01*
X006197D02*
X006394D01*
X005902Y026177D02*
X006059Y026335D01*
X005902Y026177D02*
X006057Y026022D01*
X006059Y026024D02*
Y026335D01*
X006591Y026315D02*
Y026591D01*
X005409Y026315D02*
Y026591D01*
X012856Y025803D02*
X013053D01*
X013447D02*
X013644D01*
X013152Y026177D02*
X013309Y026335D01*
X013152Y026177D02*
X013307Y026022D01*
X013309Y026024D02*
Y026335D01*
X013841Y026315D02*
Y026591D01*
X012659Y026315D02*
Y026591D01*
X004947Y003606D02*
Y003803D01*
Y004197D02*
Y004394D01*
X004415Y004059D02*
X004573Y003902D01*
X004728Y004057D01*
X004415Y004059D02*
X004726D01*
X004159Y004591D02*
X004435D01*
X004159Y003409D02*
X004435D01*
X020106Y025803D02*
X020303D01*
X020697D02*
X020894D01*
X020402Y026177D02*
X020559Y026335D01*
X020402Y026177D02*
X020557Y026022D01*
X020559Y026024D02*
Y026335D01*
X021091Y026315D02*
Y026591D01*
X019909Y026315D02*
Y026591D01*
X027356Y025803D02*
X027553D01*
X027947D02*
X028144D01*
X027652Y026177D02*
X027809Y026335D01*
X027652Y026177D02*
X027807Y026022D01*
X027809Y026024D02*
Y026335D01*
X028341Y026315D02*
Y026591D01*
X027159Y026315D02*
Y026591D01*
X032303Y018197D02*
Y018394D01*
Y017606D02*
Y017803D01*
X032677Y018098D02*
X032835Y017941D01*
X032522Y017943D02*
X032677Y018098D01*
X032524Y017941D02*
X032835D01*
X032815Y017409D02*
X033091D01*
X032815Y018591D02*
X033091D01*
X032303Y011947D02*
Y012144D01*
Y011356D02*
Y011553D01*
X032677Y011848D02*
X032835Y011691D01*
X032522Y011693D02*
X032677Y011848D01*
X032524Y011691D02*
X032835D01*
X032815Y011159D02*
X033091D01*
X032815Y012341D02*
X033091D01*
X032303Y005697D02*
Y005894D01*
Y005106D02*
Y005303D01*
X032677Y005598D02*
X032835Y005441D01*
X032522Y005443D02*
X032677Y005598D01*
X032524Y005441D02*
X032835D01*
X032815Y004909D02*
X033091D01*
X032815Y006091D02*
X033091D01*
X008947Y012856D02*
Y013053D01*
Y013447D02*
Y013644D01*
X008415Y013309D02*
X008573Y013152D01*
X008728Y013307D01*
X008415Y013309D02*
X008726D01*
X008159Y013841D02*
X008435D01*
X008159Y012659D02*
X008435D01*
X02Y00175D02*
Y00275D01*
X019D02*
X02D01*
X019Y00175D02*
Y00275D01*
Y00175D02*
X025D01*
Y00275D01*
X019D02*
X025D01*
X02D02*
Y00375D01*
X019D02*
X02D01*
X019Y00275D02*
Y00375D01*
Y00275D02*
X025D01*
Y00375D01*
X019D02*
X025D01*
X0141Y011923D02*
Y012323D01*
X014233Y01219D01*
X014367Y012323D01*
Y011923D01*
X0145D02*
Y012323D01*
X0147D01*
X014766Y012256D01*
Y012123D01*
X0147Y012056D01*
X0145D01*
X0149Y012323D02*
Y011923D01*
X0151D01*
X015166Y01199D01*
Y012256D01*
X0151Y012323D01*
X0149D01*
X015966D02*
X015699D01*
Y011923D01*
X015966D01*
X015699Y012123D02*
X015833D01*
X016166Y012256D02*
Y01219D01*
X016099D01*
X016233D01*
X016166D01*
Y01199D01*
X016233Y011923D01*
X016433Y012323D02*
Y011923D01*
Y012123D01*
X016499Y01219D01*
X016633D01*
X016699Y012123D01*
Y011923D01*
X016832Y012123D02*
X017099D01*
X017499Y01219D02*
X017299D01*
X017232Y012123D01*
Y01199D01*
X017299Y011923D01*
X017499D01*
X017699Y012256D02*
Y01219D01*
X017632D01*
X017765D01*
X017699D01*
Y01199D01*
X017765Y011923D01*
X017965Y01219D02*
Y011923D01*
Y012056D01*
X018032Y012123D01*
X018099Y01219D01*
X018165D01*
X018365Y011923D02*
X018499D01*
X018432D01*
Y012323D01*
X018365D01*
X019365Y012256D02*
X019298Y012323D01*
X019165D01*
X019098Y012256D01*
Y01219D01*
X019165Y012123D01*
X019298D01*
X019365Y012056D01*
Y01199D01*
X019298Y011923D01*
X019165D01*
X019098Y01199D01*
X019498Y012323D02*
Y011923D01*
Y012123D01*
X019565Y01219D01*
X019698D01*
X019765Y012123D01*
Y011923D01*
X019898D02*
X020031D01*
X019965D01*
Y01219D01*
X019898D01*
X020431Y011923D02*
X020298D01*
X020231Y01199D01*
Y012123D01*
X020298Y01219D01*
X020431D01*
X020498Y012123D01*
Y012056D01*
X020231D01*
X020631Y011923D02*
X020765D01*
X020698D01*
Y012323D01*
X020631D01*
X021231D02*
Y011923D01*
X021031D01*
X020964Y01199D01*
Y012123D01*
X021031Y01219D01*
X021231D01*
X014367Y011203D02*
X0141D01*
X014367Y01147D01*
Y011536D01*
X0143Y011603D01*
X014167D01*
X0141Y011536D01*
X0145D02*
X014567Y011603D01*
X0147D01*
X014766Y011536D01*
Y01127D01*
X0147Y011203D01*
X014567D01*
X0145Y01127D01*
Y011536D01*
X015166Y011203D02*
X0149D01*
X015166Y01147D01*
Y011536D01*
X0151Y011603D01*
X014966D01*
X0149Y011536D01*
X0153D02*
X015366Y011603D01*
X0155D01*
X015566Y011536D01*
Y01127D01*
X0155Y011203D01*
X015366D01*
X0153Y01127D01*
Y011536D01*
X015699Y011403D02*
X015966D01*
X016099Y011536D02*
X016166Y011603D01*
X016299D01*
X016366Y011536D01*
Y01127D01*
X016299Y011203D01*
X016166D01*
X016099Y01127D01*
Y011536D01*
X016766Y011603D02*
X016499D01*
Y011403D01*
X016633Y01147D01*
X016699D01*
X016766Y011403D01*
Y01127D01*
X016699Y011203D01*
X016566D01*
X016499Y01127D01*
X016899Y011403D02*
X017166D01*
X017299Y011203D02*
X017432D01*
X017366D01*
Y011603D01*
X017299Y011536D01*
X017832Y011203D02*
Y011603D01*
X017632Y011403D01*
X017899D01*
X018432Y01147D02*
Y011203D01*
Y011336D01*
X018499Y011403D01*
X018565Y01147D01*
X018632D01*
X019032Y011203D02*
X018898D01*
X018832Y01127D01*
Y011403D01*
X018898Y01147D01*
X019032D01*
X019098Y011403D01*
Y011336D01*
X018832D01*
X019232Y01147D02*
X019365Y011203D01*
X019498Y01147D01*
X019632Y011203D02*
X019765D01*
X019698D01*
Y011603D01*
X019632Y011536D01*
X0141Y010483D02*
Y010883D01*
Y010617D02*
X0143Y01075D01*
X0141Y010617D02*
X0143Y010483D01*
X0145Y010883D02*
Y010483D01*
X0147D01*
X014766Y01055D01*
Y010617D01*
Y010683D01*
X0147Y01075D01*
X0145D01*
X0149Y01035D02*
X014966D01*
X015033Y010417D01*
Y01075D01*
X0153Y010483D02*
X0155D01*
X015566Y01055D01*
X0155Y010617D01*
X015366D01*
X0153Y010683D01*
X015366Y01075D01*
X015566D01*
X01455Y0074D02*
Y00715D01*
X0146Y0071D01*
X0147D01*
X01475Y00715D01*
Y0074D01*
X01485Y0071D02*
X01495D01*
X0149D01*
Y0074D01*
X01485Y00735D01*
X004375Y02185D02*
Y02215D01*
X004525D01*
X004575Y0221D01*
Y022D01*
X004525Y02195D01*
X004375D01*
X004475D02*
X004575Y02185D01*
X004675D02*
X004775D01*
X004725D01*
Y02215D01*
X004675Y0221D01*
X004925D02*
X004975Y02215D01*
X005075D01*
X005125Y0221D01*
Y0219D01*
X005075Y02185D01*
X004975D01*
X004925Y0219D01*
Y0221D01*
X01175Y02185D02*
Y02215D01*
X0119D01*
X01195Y0221D01*
Y022D01*
X0119Y02195D01*
X01175D01*
X01185D02*
X01195Y02185D01*
X01205Y0219D02*
X0121Y02185D01*
X0122D01*
X01225Y0219D01*
Y0221D01*
X0122Y02215D01*
X0121D01*
X01205Y0221D01*
Y02205D01*
X0121Y022D01*
X01225D01*
X00775Y00435D02*
Y00465D01*
X0079D01*
X00795Y0046D01*
Y0045D01*
X0079Y00445D01*
X00775D01*
X00785D02*
X00795Y00435D01*
X00805Y0046D02*
X0081Y00465D01*
X0082D01*
X00825Y0046D01*
Y00455D01*
X0082Y0045D01*
X00825Y00445D01*
Y0044D01*
X0082Y00435D01*
X0081D01*
X00805Y0044D01*
Y00445D01*
X0081Y0045D01*
X00805Y00455D01*
Y0046D01*
X0081Y0045D02*
X0082D01*
X019Y02185D02*
Y02215D01*
X01915D01*
X0192Y0221D01*
Y022D01*
X01915Y02195D01*
X019D01*
X0191D02*
X0192Y02185D01*
X0193Y02215D02*
X0195D01*
Y0221D01*
X0193Y0219D01*
Y02185D01*
X02625D02*
Y02215D01*
X0264D01*
X02645Y0221D01*
Y022D01*
X0264Y02195D01*
X02625D01*
X02635D02*
X02645Y02185D01*
X02675Y02215D02*
X02665Y0221D01*
X02655Y022D01*
Y0219D01*
X0266Y02185D01*
X0267D01*
X02675Y0219D01*
Y02195D01*
X0267Y022D01*
X02655D01*
X02975Y0181D02*
Y0184D01*
X0299D01*
X02995Y01835D01*
Y01825D01*
X0299Y0182D01*
X02975D01*
X02985D02*
X02995Y0181D01*
X03025Y0184D02*
X03005D01*
Y01825D01*
X03015Y0183D01*
X0302D01*
X03025Y01825D01*
Y01815D01*
X0302Y0181D01*
X0301D01*
X03005Y01815D01*
X03Y01185D02*
Y01215D01*
X03015D01*
X0302Y0121D01*
Y012D01*
X03015Y01195D01*
X03D01*
X0301D02*
X0302Y01185D01*
X03045D02*
Y01215D01*
X0303Y012D01*
X0305D01*
X02975Y00585D02*
Y00615D01*
X0299D01*
X02995Y0061D01*
Y006D01*
X0299Y00595D01*
X02975D01*
X02985D02*
X02995Y00585D01*
X03005Y0061D02*
X0301Y00615D01*
X0302D01*
X03025Y0061D01*
Y00605D01*
X0302Y006D01*
X03015D01*
X0302D01*
X03025Y00595D01*
Y0059D01*
X0302Y00585D01*
X0301D01*
X03005Y0059D01*
X011406Y01335D02*
Y01365D01*
X011556D01*
X011606Y0136D01*
Y0135D01*
X011556Y01345D01*
X011406D01*
X011506D02*
X011606Y01335D01*
X011905D02*
X011705D01*
X011905Y01355D01*
Y0136D01*
X011855Y01365D01*
X011755D01*
X011705Y0136D01*
X0158Y0141D02*
Y0144D01*
X01595D01*
X016Y01435D01*
Y01425D01*
X01595Y0142D01*
X0158D01*
X0159D02*
X016Y0141D01*
X0161D02*
X0162D01*
X01615D01*
Y0144D01*
X0161Y01435D01*
X006325Y02415D02*
X006225D01*
X006275D01*
Y0239D01*
X006225Y02385D01*
X006175D01*
X006125Y0239D01*
X006425Y02385D02*
X006525D01*
X006475D01*
Y02415D01*
X006425Y0241D01*
X006875Y02415D02*
X006675D01*
Y024D01*
X006775Y02405D01*
X006825D01*
X006875Y024D01*
Y0239D01*
X006825Y02385D01*
X006725D01*
X006675Y0239D01*
X013575Y0244D02*
X013475D01*
X013525D01*
Y02415D01*
X013475Y0241D01*
X013425D01*
X013375Y02415D01*
X013675Y0241D02*
X013775D01*
X013725D01*
Y0244D01*
X013675Y02435D01*
X014075Y0241D02*
Y0244D01*
X013925Y02425D01*
X014125D01*
X020825Y02415D02*
X020725D01*
X020775D01*
Y0239D01*
X020725Y02385D01*
X020675D01*
X020625Y0239D01*
X020925Y02385D02*
X021025D01*
X020975D01*
Y02415D01*
X020925Y0241D01*
X021175D02*
X021225Y02415D01*
X021325D01*
X021375Y0241D01*
Y02405D01*
X021325Y024D01*
X021275D01*
X021325D01*
X021375Y02395D01*
Y0239D01*
X021325Y02385D01*
X021225D01*
X021175Y0239D01*
X028075Y02415D02*
X027975D01*
X028025D01*
Y0239D01*
X027975Y02385D01*
X027925D01*
X027875Y0239D01*
X028175Y02385D02*
X028275D01*
X028225D01*
Y02415D01*
X028175Y0241D01*
X028625Y02385D02*
X028425D01*
X028625Y02405D01*
Y0241D01*
X028575Y02415D01*
X028475D01*
X028425Y0241D01*
X028125Y01715D02*
X028025D01*
X028075D01*
Y0169D01*
X028025Y01685D01*
X027975D01*
X027925Y0169D01*
X028225Y01685D02*
X028325D01*
X028275D01*
Y01715D01*
X028225Y0171D01*
X028475Y01685D02*
X028575D01*
X028525D01*
Y01715D01*
X028475Y0171D01*
X028075Y0109D02*
X027975D01*
X028025D01*
Y01065D01*
X027975Y0106D01*
X027925D01*
X027875Y01065D01*
X028175Y0106D02*
X028275D01*
X028225D01*
Y0109D01*
X028175Y01085D01*
X028425D02*
X028475Y0109D01*
X028575D01*
X028625Y01085D01*
Y01065D01*
X028575Y0106D01*
X028475D01*
X028425Y01065D01*
Y01085D01*
X028036Y004895D02*
X027936D01*
X027986D01*
Y004645D01*
X027936Y004595D01*
X027886D01*
X027836Y004645D01*
X028135D02*
X028185Y004595D01*
X028285D01*
X028335Y004645D01*
Y004845D01*
X028285Y004895D01*
X028185D01*
X028135Y004845D01*
Y004795D01*
X028185Y004745D01*
X028335D01*
X0102Y01065D02*
X0101D01*
X01015D01*
Y0104D01*
X0101Y01035D01*
X01005D01*
X01Y0104D01*
X0103Y0106D02*
X01035Y01065D01*
X01045D01*
X0105Y0106D01*
Y01055D01*
X01045Y0105D01*
X0105Y01045D01*
Y0104D01*
X01045Y01035D01*
X01035D01*
X0103Y0104D01*
Y01045D01*
X01035Y0105D01*
X0103Y01055D01*
Y0106D01*
X01035Y0105D02*
X01045D01*
X01294Y0141D02*
X01284D01*
X01289D01*
Y01385D01*
X01284Y0138D01*
X01279D01*
X01274Y01385D01*
X01304Y0141D02*
X01324D01*
Y01405D01*
X01304Y01385D01*
Y0138D01*
X016Y0164D02*
Y0166D01*
X01595Y01665D01*
X01585D01*
X0158Y0166D01*
Y0164D01*
X01585Y01635D01*
X01595D01*
X0159Y01645D02*
X016Y01635D01*
X01595D02*
X016Y0164D01*
X0161Y01635D02*
X0162D01*
X01615D01*
Y01665D01*
X0161Y0166D01*
X00575Y0254D02*
Y0251D01*
X0059D01*
X00595Y02515D01*
Y02535D01*
X0059Y0254D01*
X00575D01*
X00605Y02515D02*
X0061Y0251D01*
X0062D01*
X00625Y02515D01*
Y02535D01*
X0062Y0254D01*
X0061D01*
X00605Y02535D01*
Y0253D01*
X0061Y02525D01*
X00625D01*
X013Y0254D02*
Y0251D01*
X01315D01*
X0132Y02515D01*
Y02535D01*
X01315Y0254D01*
X013D01*
X0133Y02535D02*
X01335Y0254D01*
X01345D01*
X0135Y02535D01*
Y0253D01*
X01345Y02525D01*
X0135Y0252D01*
Y02515D01*
X01345Y0251D01*
X01335D01*
X0133Y02515D01*
Y0252D01*
X01335Y02525D01*
X0133Y0253D01*
Y02535D01*
X01335Y02525D02*
X01345D01*
X00524Y00487D02*
Y00457D01*
X00539D01*
X00544Y00462D01*
Y00482D01*
X00539Y00487D01*
X00524D01*
X00554D02*
X00574D01*
Y00482D01*
X00554Y00462D01*
Y00457D01*
X02025Y0254D02*
Y0251D01*
X0204D01*
X02045Y02515D01*
Y02535D01*
X0204Y0254D01*
X02025D01*
X02075D02*
X02065Y02535D01*
X02055Y02525D01*
Y02515D01*
X0206Y0251D01*
X0207D01*
X02075Y02515D01*
Y0252D01*
X0207Y02525D01*
X02055D01*
X0275Y0254D02*
Y0251D01*
X02765D01*
X0277Y02515D01*
Y02535D01*
X02765Y0254D01*
X0275D01*
X028D02*
X0278D01*
Y02525D01*
X0279Y0253D01*
X02795D01*
X028Y02525D01*
Y02515D01*
X02795Y0251D01*
X02785D01*
X0278Y02515D01*
X03125Y01815D02*
Y01785D01*
X0314D01*
X03145Y0179D01*
Y0181D01*
X0314Y01815D01*
X03125D01*
X0317Y01785D02*
Y01815D01*
X03155Y018D01*
X03175D01*
X03125Y0119D02*
Y0116D01*
X0314D01*
X03145Y01165D01*
Y01185D01*
X0314Y0119D01*
X03125D01*
X03155Y01185D02*
X0316Y0119D01*
X0317D01*
X03175Y01185D01*
Y0118D01*
X0317Y01175D01*
X03165D01*
X0317D01*
X03175Y0117D01*
Y01165D01*
X0317Y0116D01*
X0316D01*
X03155Y01165D01*
X03125Y00565D02*
Y00535D01*
X0314D01*
X03145Y0054D01*
Y0056D01*
X0314Y00565D01*
X03125D01*
X03175Y00535D02*
X03155D01*
X03175Y00555D01*
Y0056D01*
X0317Y00565D01*
X0316D01*
X03155Y0056D01*
X00924Y01287D02*
Y01257D01*
X00939D01*
X00944Y01262D01*
Y01282D01*
X00939Y01287D01*
X00924D01*
X00954Y01257D02*
X00964D01*
X00959D01*
Y01287D01*
X00954Y01282D01*
X0177Y00735D02*
X01765Y0074D01*
X01755D01*
X0175Y00735D01*
Y00715D01*
X01755Y0071D01*
X01765D01*
X0177Y00715D01*
X018Y0071D02*
X0178D01*
X018Y0073D01*
Y00735D01*
X01795Y0074D01*
X01785D01*
X0178Y00735D01*
X0115Y0051D02*
X01145Y00515D01*
X01135D01*
X0113Y0051D01*
Y0049D01*
X01135Y00485D01*
X01145D01*
X0115Y0049D01*
X0116Y00485D02*
X0117D01*
X01165D01*
Y00515D01*
X0116Y0051D01*
D13*
X006081Y004776D02*
Y004854D01*
X007419D01*
Y004776D02*
Y004854D01*
X006081Y004146D02*
Y004224D01*
Y004146D02*
X007419D01*
Y004224D01*
X00675Y004146D02*
Y004854D01*
X011146Y005331D02*
X011303D01*
X011146D02*
Y006669D01*
X011303D01*
X011697D02*
X011854D01*
Y005331D02*
Y006669D01*
X011697Y005331D02*
X011854D01*
X011146Y006D02*
X011854D01*
X014331Y014526D02*
Y014604D01*
X015669D01*
Y014526D02*
Y014604D01*
X014331Y013896D02*
Y013974D01*
Y013896D02*
X015669D01*
Y013974D01*
X015Y013896D02*
Y014604D01*
X009831Y013776D02*
Y013854D01*
X011169D01*
Y013776D02*
Y013854D01*
X009831Y013146D02*
Y013224D01*
Y013146D02*
X011169D01*
Y013224D01*
X0105Y013146D02*
Y013854D01*
X030669Y004896D02*
Y004974D01*
X029331Y004896D02*
X030669D01*
X029331D02*
Y004974D01*
X030669Y005526D02*
Y005604D01*
X029331D02*
X030669D01*
X029331Y005526D02*
Y005604D01*
X03Y004896D02*
Y005604D01*
X030919Y010896D02*
Y010974D01*
X029581Y010896D02*
X030919D01*
X029581D02*
Y010974D01*
X030919Y011526D02*
Y011604D01*
X029581D02*
X030919D01*
X029581Y011526D02*
Y011604D01*
X03025Y010896D02*
Y011604D01*
X030669Y017146D02*
Y017224D01*
X029331Y017146D02*
X030669D01*
X029331D02*
Y017224D01*
X030669Y017776D02*
Y017854D01*
X029331D02*
X030669D01*
X029331Y017776D02*
Y017854D01*
X03Y017146D02*
Y017854D01*
X019664Y022276D02*
Y022354D01*
X021003D01*
Y022276D02*
Y022354D01*
X019664Y021646D02*
Y021724D01*
Y021646D02*
X021003D01*
Y021724D01*
X020333Y021646D02*
Y022354D01*
X026831Y022276D02*
Y022354D01*
X028169D01*
Y022276D02*
Y022354D01*
X026831Y021646D02*
Y021724D01*
Y021646D02*
X028169D01*
Y021724D01*
X0275Y021646D02*
Y022354D01*
X005331Y022276D02*
Y022354D01*
X006669D01*
Y022276D02*
Y022354D01*
X005331Y021646D02*
Y021724D01*
Y021646D02*
X006669D01*
Y021724D01*
X006Y021646D02*
Y022354D01*
X012497Y022276D02*
Y022354D01*
X013836D01*
Y022276D02*
Y022354D01*
X012497Y021646D02*
Y021724D01*
Y021646D02*
X013836D01*
Y021724D01*
X013167Y021646D02*
Y022354D01*
D14*
X012181Y005488D02*
X014819D01*
X012181Y006512D02*
X014819D01*
X012181Y005488D02*
Y006512D01*
X014819Y005488D02*
Y006512D01*
X01561Y004504D02*
Y00472D01*
X015344D02*
X01561D01*
X01689D02*
X017156D01*
X01689Y004504D02*
Y00472D01*
Y007496D02*
X017156D01*
X01689Y004504D02*
X017156D01*
X015344Y007496D02*
X01561D01*
X015344Y004504D02*
X01561D01*
X017156D02*
Y007496D01*
X015344Y004504D02*
Y007496D01*
X014724Y016785D02*
Y017091D01*
X015039D01*
X014724Y015909D02*
Y016215D01*
Y015909D02*
X015039D01*
D15*
X02787Y01312D02*
Y01262D01*
Y01312D02*
X028037D01*
X028108Y013096D01*
X028156Y013048D01*
X028179Y013001D01*
X028203Y012929D01*
Y01281D01*
X028179Y012739D01*
X028156Y012691D01*
X028108Y012644D01*
X028037Y01262D01*
X02787D01*
X028458Y01312D02*
X02841Y013096D01*
X028363Y013048D01*
X028339Y013001D01*
X028315Y012929D01*
Y01281D01*
X028339Y012739D01*
X028363Y012691D01*
X02841Y012644D01*
X028458Y01262D01*
X028553D01*
X028601Y012644D01*
X028648Y012691D01*
X028672Y012739D01*
X028696Y01281D01*
Y012929D01*
X028672Y013001D01*
X028648Y013048D01*
X028601Y013096D01*
X028553Y01312D01*
X028458D01*
X029098D02*
X02886D01*
X028836Y012906D01*
X02886Y012929D01*
X028932Y012953D01*
X029003D01*
X029074Y012929D01*
X029122Y012882D01*
X029146Y01281D01*
Y012763D01*
X029122Y012691D01*
X029074Y012644D01*
X029003Y01262D01*
X028932D01*
X02886Y012644D01*
X028836Y012668D01*
X028813Y012715D01*
X02787Y00687D02*
Y00637D01*
Y00687D02*
X028037D01*
X028108Y006846D01*
X028156Y006798D01*
X028179Y006751D01*
X028203Y006679D01*
Y00656D01*
X028179Y006489D01*
X028156Y006441D01*
X028108Y006394D01*
X028037Y00637D01*
X02787D01*
X028458Y00687D02*
X02841Y006846D01*
X028363Y006798D01*
X028339Y006751D01*
X028315Y006679D01*
Y00656D01*
X028339Y006489D01*
X028363Y006441D01*
X02841Y006394D01*
X028458Y00637D01*
X028553D01*
X028601Y006394D01*
X028648Y006441D01*
X028672Y006489D01*
X028696Y00656D01*
Y006679D01*
X028672Y006751D01*
X028648Y006798D01*
X028601Y006846D01*
X028553Y00687D01*
X028458D01*
X029051D02*
X028813Y006537D01*
X02917D01*
X029051Y00687D02*
Y00637D01*
X01063Y02162D02*
X01113D01*
X01063D02*
Y021787D01*
X010654Y021858D01*
X010702Y021906D01*
X010749Y021929D01*
X010821Y021953D01*
X01094D01*
X011011Y021929D01*
X011059Y021906D01*
X011106Y021858D01*
X01113Y021787D01*
Y02162D01*
X01063Y022208D02*
X010654Y02216D01*
X010702Y022113D01*
X010749Y022089D01*
X010821Y022065D01*
X01094D01*
X011011Y022089D01*
X011059Y022113D01*
X011106Y02216D01*
X01113Y022208D01*
Y022303D01*
X011106Y022351D01*
X011059Y022398D01*
X011011Y022422D01*
X01094Y022446D01*
X010821D01*
X010749Y022422D01*
X010702Y022398D01*
X010654Y022351D01*
X01063Y022303D01*
Y022208D01*
X010797Y022872D02*
X010868Y022848D01*
X010916Y022801D01*
X01094Y022729D01*
Y022705D01*
X010916Y022634D01*
X010868Y022586D01*
X010797Y022563D01*
X010773D01*
X010702Y022586D01*
X010654Y022634D01*
X01063Y022705D01*
Y022729D01*
X010654Y022801D01*
X010702Y022848D01*
X010797Y022872D01*
X010916D01*
X011035Y022848D01*
X011106Y022801D01*
X01113Y022729D01*
Y022682D01*
X011106Y02261D01*
X011059Y022586D01*
X02787Y00087D02*
Y00037D01*
Y00087D02*
X028037D01*
X028108Y000846D01*
X028156Y000798D01*
X028179Y000751D01*
X028203Y000679D01*
Y00056D01*
X028179Y000489D01*
X028156Y000441D01*
X028108Y000394D01*
X028037Y00037D01*
X02787D01*
X028458Y00087D02*
X02841Y000846D01*
X028363Y000798D01*
X028339Y000751D01*
X028315Y000679D01*
Y00056D01*
X028339Y000489D01*
X028363Y000441D01*
X02841Y000394D01*
X028458Y00037D01*
X028553D01*
X028601Y000394D01*
X028648Y000441D01*
X028672Y000489D01*
X028696Y00056D01*
Y000679D01*
X028672Y000751D01*
X028648Y000798D01*
X028601Y000846D01*
X028553Y00087D01*
X028458D01*
X02886D02*
X029122D01*
X028979Y000679D01*
X029051D01*
X029098Y000656D01*
X029122Y000632D01*
X029146Y00056D01*
Y000513D01*
X029122Y000441D01*
X029074Y000394D01*
X029003Y00037D01*
X028932D01*
X02886Y000394D01*
X028836Y000418D01*
X028813Y000465D01*
X009894Y009579D02*
Y009603D01*
X009918Y009651D01*
X009941Y009674D01*
X009989Y009698D01*
X010084D01*
X010132Y009674D01*
X010156Y009651D01*
X010179Y009603D01*
Y009555D01*
X010156Y009508D01*
X010108Y009436D01*
X00987Y009198D01*
X010203D01*
X010553Y009698D02*
X010315Y009365D01*
X010672D01*
X010553Y009698D02*
Y009198D01*
X01076Y009698D02*
X010951Y009198D01*
X011141Y009698D02*
X010951Y009198D01*
X00987Y008787D02*
X009894Y008763D01*
X009918Y008787D01*
X009894Y00881D01*
X00987Y008787D01*
X009894Y00862D02*
Y008287D01*
X010006Y00862D02*
Y008287D01*
Y008525D02*
X010077Y008596D01*
X010125Y00862D01*
X010196D01*
X010244Y008596D01*
X010268Y008525D01*
Y008287D01*
X010398Y00862D02*
Y00812D01*
Y008548D02*
X010446Y008596D01*
X010494Y00862D01*
X010565D01*
X010613Y008596D01*
X01066Y008548D01*
X010684Y008477D01*
Y008429D01*
X01066Y008358D01*
X010613Y00831D01*
X010565Y008287D01*
X010494D01*
X010446Y00831D01*
X010398Y008358D01*
X010791Y00862D02*
Y008382D01*
X010815Y00831D01*
X010863Y008287D01*
X010934D01*
X010982Y00831D01*
X011053Y008382D01*
Y00862D02*
Y008287D01*
X011255Y008787D02*
Y008382D01*
X011279Y00831D01*
X011327Y008287D01*
X011374D01*
X011184Y00862D02*
X011351D01*
X016909Y002D02*
X016718Y0025D01*
X016528Y002D01*
X016599Y002167D02*
X016837D01*
X017168Y0025D02*
X017097Y002476D01*
X017049Y002405D01*
X017026Y002286D01*
Y002214D01*
X017049Y002095D01*
X017097Y002024D01*
X017168Y002D01*
X017216D01*
X017287Y002024D01*
X017335Y002095D01*
X017359Y002214D01*
Y002286D01*
X017335Y002405D01*
X017287Y002476D01*
X017216Y0025D01*
X017168D01*
X017471Y002214D02*
X017899D01*
X018332Y0025D02*
X018094D01*
X018071Y002286D01*
X018094Y00231D01*
X018166Y002333D01*
X018237D01*
X018309Y00231D01*
X018356Y002262D01*
X01838Y00219D01*
Y002143D01*
X018356Y002071D01*
X018309Y002024D01*
X018237Y002D01*
X018166D01*
X018094Y002024D01*
X018071Y002048D01*
X018047Y002095D01*
X03238Y02162D02*
X03288D01*
X03238D02*
Y021787D01*
X032404Y021858D01*
X032452Y021906D01*
X032499Y021929D01*
X032571Y021953D01*
X03269D01*
X032761Y021929D01*
X032809Y021906D01*
X032856Y021858D01*
X03288Y021787D01*
Y02162D01*
X03238Y022208D02*
X032404Y02216D01*
X032452Y022113D01*
X032499Y022089D01*
X032571Y022065D01*
X03269D01*
X032761Y022089D01*
X032809Y022113D01*
X032856Y02216D01*
X03288Y022208D01*
Y022303D01*
X032856Y022351D01*
X032809Y022398D01*
X032761Y022422D01*
X03269Y022446D01*
X032571D01*
X032499Y022422D01*
X032452Y022398D01*
X032404Y022351D01*
X03238Y022303D01*
Y022208D01*
X032452Y022848D02*
X032404Y022824D01*
X03238Y022753D01*
Y022705D01*
X032404Y022634D01*
X032475Y022586D01*
X032594Y022563D01*
X032713D01*
X032809Y022586D01*
X032856Y022634D01*
X03288Y022705D01*
Y022729D01*
X032856Y022801D01*
X032809Y022848D01*
X032737Y022872D01*
X032713D01*
X032642Y022848D01*
X032594Y022801D01*
X032571Y022729D01*
Y022705D01*
X032594Y022634D01*
X032642Y022586D01*
X032713Y022563D01*
X017461Y003381D02*
X017437Y003429D01*
X01739Y003476D01*
X017342Y0035D01*
X017247D01*
X017199Y003476D01*
X017152Y003429D01*
X017128Y003381D01*
X017104Y00331D01*
Y00319D01*
X017128Y003119D01*
X017152Y003071D01*
X017199Y003024D01*
X017247Y003D01*
X017342D01*
X01739Y003024D01*
X017437Y003071D01*
X017461Y003119D01*
Y00319D01*
X017342D02*
X017461D01*
X017575Y0035D02*
Y003D01*
Y0035D02*
X017909Y003D01*
Y0035D02*
Y003D01*
X018047Y0035D02*
Y003D01*
Y0035D02*
X018213D01*
X018285Y003476D01*
X018332Y003429D01*
X018356Y003381D01*
X01838Y00331D01*
Y00319D01*
X018356Y003119D01*
X018332Y003071D01*
X018285Y003024D01*
X018213Y003D01*
X018047D01*
X02513Y02162D02*
X02563D01*
X02513D02*
Y021787D01*
X025154Y021858D01*
X025202Y021906D01*
X025249Y021929D01*
X025321Y021953D01*
X02544D01*
X025511Y021929D01*
X025559Y021906D01*
X025606Y021858D01*
X02563Y021787D01*
Y02162D01*
X02513Y022208D02*
X025154Y02216D01*
X025202Y022113D01*
X025249Y022089D01*
X025321Y022065D01*
X02544D01*
X025511Y022089D01*
X025559Y022113D01*
X025606Y02216D01*
X02563Y022208D01*
Y022303D01*
X025606Y022351D01*
X025559Y022398D01*
X025511Y022422D01*
X02544Y022446D01*
X025321D01*
X025249Y022422D01*
X025202Y022398D01*
X025154Y022351D01*
X02513Y022303D01*
Y022208D01*
Y022896D02*
X02563Y022658D01*
X02513Y022563D02*
Y022896D01*
X01788Y02162D02*
X01838D01*
X01788D02*
Y021787D01*
X017904Y021858D01*
X017952Y021906D01*
X017999Y021929D01*
X018071Y021953D01*
X01819D01*
X018261Y021929D01*
X018309Y021906D01*
X018356Y021858D01*
X01838Y021787D01*
Y02162D01*
X01788Y022208D02*
X017904Y02216D01*
X017952Y022113D01*
X017999Y022089D01*
X018071Y022065D01*
X01819D01*
X018261Y022089D01*
X018309Y022113D01*
X018356Y02216D01*
X01838Y022208D01*
Y022303D01*
X018356Y022351D01*
X018309Y022398D01*
X018261Y022422D01*
X01819Y022446D01*
X018071D01*
X017999Y022422D01*
X017952Y022398D01*
X017904Y022351D01*
X01788Y022303D01*
Y022208D01*
Y022682D02*
X017904Y02261D01*
X017952Y022586D01*
X017999D01*
X018047Y02261D01*
X018071Y022658D01*
X018094Y022753D01*
X018118Y022824D01*
X018166Y022872D01*
X018213Y022896D01*
X018285D01*
X018332Y022872D01*
X018356Y022848D01*
X01838Y022777D01*
Y022682D01*
X018356Y02261D01*
X018332Y022586D01*
X018285Y022563D01*
X018213D01*
X018166Y022586D01*
X018118Y022634D01*
X018094Y022705D01*
X018071Y022801D01*
X018047Y022848D01*
X017999Y022872D01*
X017952D01*
X017904Y022848D01*
X01788Y022777D01*
Y022682D01*
X005929Y003583D02*
X005906Y003512D01*
X005858Y003464D01*
X005787Y00344D01*
X005763D01*
X005691Y003464D01*
X005644Y003512D01*
X00562Y003583D01*
Y003607D01*
X005644Y003679D01*
X005691Y003726D01*
X005763Y00375D01*
X005787D01*
X005858Y003726D01*
X005906Y003679D01*
X005929Y003583D01*
Y003464D01*
X005906Y003345D01*
X005858Y003274D01*
X005787Y00325D01*
X005739D01*
X005668Y003274D01*
X005644Y003321D01*
X006065Y00375D02*
X006256Y00325D01*
X006446Y00375D02*
X006256Y00325D01*
X013646Y01864D02*
Y01814D01*
Y01864D02*
X013812D01*
X013884Y018616D01*
X013931Y018568D01*
X013955Y018521D01*
X013979Y018449D01*
Y01833D01*
X013955Y018259D01*
X013931Y018211D01*
X013884Y018163D01*
X013812Y01814D01*
X013646D01*
X014234Y01864D02*
X014186Y018616D01*
X014138Y018568D01*
X014115Y018521D01*
X014091Y018449D01*
Y01833D01*
X014115Y018259D01*
X014138Y018211D01*
X014186Y018163D01*
X014234Y01814D01*
X014329D01*
X014376Y018163D01*
X014424Y018211D01*
X014448Y018259D01*
X014472Y01833D01*
Y018449D01*
X014448Y018521D01*
X014424Y018568D01*
X014376Y018616D01*
X014329Y01864D01*
X014234D01*
X014612Y018521D02*
Y018544D01*
X014636Y018592D01*
X01466Y018616D01*
X014707Y01864D01*
X014802D01*
X01485Y018616D01*
X014874Y018592D01*
X014898Y018544D01*
Y018497D01*
X014874Y018449D01*
X014826Y018378D01*
X014588Y01814D01*
X014922D01*
D16*
X015477Y004612D02*
D03*
X017023Y004612D02*
D03*
M02*
