G04*
G04 #@! TF.GenerationSoftware,Altium Limited,Altium Designer,20.0.13 (296)*
G04*
G04 Layer_Physical_Order=2*
G04 Layer_Color=16711680*
%FSTAX24Y24*%
%MOIN*%
G70*
G01*
G75*
%ADD43C,0.0150*%
%ADD44C,0.0600*%
G04:AMPARAMS|DCode=45|XSize=70.9mil|YSize=70.9mil|CornerRadius=8.9mil|HoleSize=0mil|Usage=FLASHONLY|Rotation=0.000|XOffset=0mil|YOffset=0mil|HoleType=Round|Shape=RoundedRectangle|*
%AMROUNDEDRECTD45*
21,1,0.0709,0.0531,0,0,0.0*
21,1,0.0531,0.0709,0,0,0.0*
1,1,0.0177,0.0266,-0.0266*
1,1,0.0177,-0.0266,-0.0266*
1,1,0.0177,-0.0266,0.0266*
1,1,0.0177,0.0266,0.0266*
%
%ADD45ROUNDEDRECTD45*%
%ADD46C,0.0709*%
G04:AMPARAMS|DCode=47|XSize=70.9mil|YSize=70.9mil|CornerRadius=8.9mil|HoleSize=0mil|Usage=FLASHONLY|Rotation=270.000|XOffset=0mil|YOffset=0mil|HoleType=Round|Shape=RoundedRectangle|*
%AMROUNDEDRECTD47*
21,1,0.0709,0.0531,0,0,270.0*
21,1,0.0531,0.0709,0,0,270.0*
1,1,0.0177,-0.0266,-0.0266*
1,1,0.0177,-0.0266,0.0266*
1,1,0.0177,0.0266,0.0266*
1,1,0.0177,0.0266,-0.0266*
%
%ADD47ROUNDEDRECTD47*%
%ADD48C,0.0500*%
%ADD49C,0.1250*%
G36*
X03325Y0265D02*
Y00025D01*
X033Y0D01*
X00425D01*
X004Y00025D01*
Y01075D01*
X00425Y011D01*
X00725D01*
X0075Y01125D01*
Y01875D01*
X00725Y019D01*
X00425D01*
X004Y01925D01*
Y0265D01*
X00425Y02675D01*
X033D01*
X03325Y0265D01*
D02*
G37*
%LPC*%
G36*
X03105Y02205D02*
Y021648D01*
X031452D01*
X031443Y021717D01*
X031397Y021828D01*
X031324Y021922D01*
X031229Y021995D01*
X031119Y022041D01*
X03105Y02205D01*
D02*
G37*
G36*
X03095D02*
X030881Y022041D01*
X030771Y021995D01*
X030676Y021922D01*
X030603Y021828D01*
X030557Y021717D01*
X030548Y021648D01*
X03095D01*
Y02205D01*
D02*
G37*
G36*
X0238D02*
Y021648D01*
X024202D01*
X024193Y021717D01*
X024147Y021828D01*
X024074Y021922D01*
X023979Y021995D01*
X023869Y022041D01*
X0238Y02205D01*
D02*
G37*
G36*
X0237D02*
X023631Y022041D01*
X023521Y021995D01*
X023426Y021922D01*
X023353Y021828D01*
X023307Y021717D01*
X023298Y021648D01*
X0237D01*
Y02205D01*
D02*
G37*
G36*
X01655D02*
Y021648D01*
X016952D01*
X016943Y021717D01*
X016897Y021828D01*
X016824Y021922D01*
X016729Y021995D01*
X016619Y022041D01*
X01655Y02205D01*
D02*
G37*
G36*
X01645D02*
X016381Y022041D01*
X016271Y021995D01*
X016176Y021922D01*
X016103Y021828D01*
X016057Y021717D01*
X016048Y021648D01*
X01645D01*
Y02205D01*
D02*
G37*
G36*
X0093D02*
Y021648D01*
X009702D01*
X009693Y021717D01*
X009647Y021828D01*
X009574Y021922D01*
X009479Y021995D01*
X009369Y022041D01*
X0093Y02205D01*
D02*
G37*
G36*
X0092D02*
X009131Y022041D01*
X009021Y021995D01*
X008926Y021922D01*
X008853Y021828D01*
X008807Y021717D01*
X008798Y021648D01*
X0092D01*
Y02205D01*
D02*
G37*
G36*
X031452Y021548D02*
X03105D01*
Y021147D01*
X031119Y021156D01*
X031229Y021202D01*
X031324Y021274D01*
X031397Y021369D01*
X031443Y02148D01*
X031452Y021548D01*
D02*
G37*
G36*
X03095D02*
X030548D01*
X030557Y02148D01*
X030603Y021369D01*
X030676Y021274D01*
X030771Y021202D01*
X030881Y021156D01*
X03095Y021147D01*
Y021548D01*
D02*
G37*
G36*
X024202D02*
X0238D01*
Y021147D01*
X023869Y021156D01*
X023979Y021202D01*
X024074Y021274D01*
X024147Y021369D01*
X024193Y02148D01*
X024202Y021548D01*
D02*
G37*
G36*
X0237D02*
X023298D01*
X023307Y02148D01*
X023353Y021369D01*
X023426Y021274D01*
X023521Y021202D01*
X023631Y021156D01*
X0237Y021147D01*
Y021548D01*
D02*
G37*
G36*
X016952D02*
X01655D01*
Y021147D01*
X016619Y021156D01*
X016729Y021202D01*
X016824Y021274D01*
X016897Y021369D01*
X016943Y02148D01*
X016952Y021548D01*
D02*
G37*
G36*
X01645D02*
X016048D01*
X016057Y02148D01*
X016103Y021369D01*
X016176Y021274D01*
X016271Y021202D01*
X016381Y021156D01*
X01645Y021147D01*
Y021548D01*
D02*
G37*
G36*
X009702D02*
X0093D01*
Y021147D01*
X009369Y021156D01*
X009479Y021202D01*
X009574Y021274D01*
X009647Y021369D01*
X009693Y02148D01*
X009702Y021548D01*
D02*
G37*
G36*
X0092D02*
X008798D01*
X008807Y02148D01*
X008853Y021369D01*
X008926Y021274D01*
X009021Y021202D01*
X009131Y021156D01*
X0092Y021147D01*
Y021548D01*
D02*
G37*
G36*
X030266Y022056D02*
X029734D01*
X029661Y022042D01*
X029598Y022D01*
X029557Y021938D01*
X029542Y021864D01*
Y021333D01*
X029557Y021259D01*
X029598Y021197D01*
X029661Y021155D01*
X029734Y02114D01*
X030266D01*
X030339Y021155D01*
X030402Y021197D01*
X030443Y021259D01*
X030458Y021333D01*
Y021864D01*
X030443Y021938D01*
X030402Y022D01*
X030339Y022042D01*
X030266Y022056D01*
D02*
G37*
G36*
X023016D02*
X022484D01*
X022411Y022042D01*
X022348Y022D01*
X022307Y021938D01*
X022292Y021864D01*
Y021333D01*
X022307Y021259D01*
X022348Y021197D01*
X022411Y021155D01*
X022484Y02114D01*
X023016D01*
X023089Y021155D01*
X023152Y021197D01*
X023193Y021259D01*
X023208Y021333D01*
Y021864D01*
X023193Y021938D01*
X023152Y022D01*
X023089Y022042D01*
X023016Y022056D01*
D02*
G37*
G36*
X015766D02*
X015234D01*
X015161Y022042D01*
X015098Y022D01*
X015057Y021938D01*
X015042Y021864D01*
Y021333D01*
X015057Y021259D01*
X015098Y021197D01*
X015161Y021155D01*
X015234Y02114D01*
X015766D01*
X015839Y021155D01*
X015902Y021197D01*
X015943Y021259D01*
X015958Y021333D01*
Y021864D01*
X015943Y021938D01*
X015902Y022D01*
X015839Y022042D01*
X015766Y022056D01*
D02*
G37*
G36*
X008516D02*
X007984D01*
X007911Y022042D01*
X007848Y022D01*
X007807Y021938D01*
X007792Y021864D01*
Y021333D01*
X007807Y021259D01*
X007848Y021197D01*
X007911Y021155D01*
X007984Y02114D01*
X008516D01*
X008589Y021155D01*
X008652Y021197D01*
X008693Y021259D01*
X008708Y021333D01*
Y021864D01*
X008693Y021938D01*
X008652Y022D01*
X008589Y022042D01*
X008516Y022056D01*
D02*
G37*
G36*
X01045Y020452D02*
Y02005D01*
X010852D01*
X010843Y020119D01*
X010797Y020229D01*
X010724Y020324D01*
X010629Y020397D01*
X010519Y020443D01*
X01045Y020452D01*
D02*
G37*
G36*
X01035D02*
X010281Y020443D01*
X010171Y020397D01*
X010076Y020324D01*
X010003Y020229D01*
X009957Y020119D01*
X009948Y02005D01*
X01035D01*
Y020452D01*
D02*
G37*
G36*
X010852Y01995D02*
X01045D01*
Y019548D01*
X010519Y019557D01*
X010629Y019603D01*
X010724Y019676D01*
X010797Y019771D01*
X010843Y019881D01*
X010852Y01995D01*
D02*
G37*
G36*
X01035D02*
X009948D01*
X009957Y019881D01*
X010003Y019771D01*
X010076Y019676D01*
X010171Y019603D01*
X010281Y019557D01*
X01035Y019548D01*
Y01995D01*
D02*
G37*
G36*
X018266Y020458D02*
X017734D01*
X017661Y020443D01*
X017598Y020402D01*
X017557Y020339D01*
X017542Y020266D01*
Y019734D01*
X017557Y019661D01*
X017598Y019598D01*
X017661Y019557D01*
X017734Y019542D01*
X018266D01*
X018339Y019557D01*
X018402Y019598D01*
X018443Y019661D01*
X018458Y019734D01*
Y020266D01*
X018443Y020339D01*
X018402Y020402D01*
X018339Y020443D01*
X018266Y020458D01*
D02*
G37*
G36*
X007666D02*
X007134D01*
X007061Y020443D01*
X006998Y020402D01*
X006957Y020339D01*
X006942Y020266D01*
Y019734D01*
X006957Y019661D01*
X006998Y019598D01*
X007061Y019557D01*
X007134Y019542D01*
X007666D01*
X007739Y019557D01*
X007802Y019598D01*
X007843Y019661D01*
X007858Y019734D01*
Y020266D01*
X007843Y020339D01*
X007802Y020402D01*
X007739Y020443D01*
X007666Y020458D01*
D02*
G37*
G36*
X025Y020458D02*
X024881Y020443D01*
X024771Y020397D01*
X024676Y020324D01*
X024603Y020229D01*
X024557Y020119D01*
X024542Y02D01*
X024557Y019881D01*
X024603Y019771D01*
X024676Y019676D01*
X024771Y019603D01*
X024881Y019557D01*
X025Y019542D01*
X025119Y019557D01*
X025229Y019603D01*
X025324Y019676D01*
X025397Y019771D01*
X025443Y019881D01*
X025458Y02D01*
X025443Y020119D01*
X025397Y020229D01*
X025324Y020324D01*
X025229Y020397D01*
X025119Y020443D01*
X025Y020458D01*
D02*
G37*
G36*
X024D02*
X023881Y020443D01*
X023771Y020397D01*
X023676Y020324D01*
X023603Y020229D01*
X023557Y020119D01*
X023542Y02D01*
X023557Y019881D01*
X023603Y019771D01*
X023676Y019676D01*
X023771Y019603D01*
X023881Y019557D01*
X024Y019542D01*
X024119Y019557D01*
X024229Y019603D01*
X024324Y019676D01*
X024397Y019771D01*
X024443Y019881D01*
X024458Y02D01*
X024443Y020119D01*
X024397Y020229D01*
X024324Y020324D01*
X024229Y020397D01*
X024119Y020443D01*
X024Y020458D01*
D02*
G37*
G36*
X021D02*
X020881Y020443D01*
X020771Y020397D01*
X020676Y020324D01*
X020603Y020229D01*
X020557Y020119D01*
X020542Y02D01*
X020557Y019881D01*
X020603Y019771D01*
X020676Y019676D01*
X020771Y019603D01*
X020881Y019557D01*
X021Y019542D01*
X021119Y019557D01*
X021229Y019603D01*
X021324Y019676D01*
X021397Y019771D01*
X021443Y019881D01*
X021458Y02D01*
X021443Y020119D01*
X021397Y020229D01*
X021324Y020324D01*
X021229Y020397D01*
X021119Y020443D01*
X021Y020458D01*
D02*
G37*
G36*
X02D02*
X019881Y020443D01*
X019771Y020397D01*
X019676Y020324D01*
X019603Y020229D01*
X019557Y020119D01*
X019542Y02D01*
X019557Y019881D01*
X019603Y019771D01*
X019676Y019676D01*
X019771Y019603D01*
X019881Y019557D01*
X02Y019542D01*
X020119Y019557D01*
X020229Y019603D01*
X020324Y019676D01*
X020397Y019771D01*
X020443Y019881D01*
X020458Y02D01*
X020443Y020119D01*
X020397Y020229D01*
X020324Y020324D01*
X020229Y020397D01*
X020119Y020443D01*
X02Y020458D01*
D02*
G37*
G36*
X019D02*
X018881Y020443D01*
X018771Y020397D01*
X018676Y020324D01*
X018603Y020229D01*
X018557Y020119D01*
X018542Y02D01*
X018557Y019881D01*
X018603Y019771D01*
X018676Y019676D01*
X018771Y019603D01*
X018881Y019557D01*
X019Y019542D01*
X019119Y019557D01*
X019229Y019603D01*
X019324Y019676D01*
X019397Y019771D01*
X019443Y019881D01*
X019458Y02D01*
X019443Y020119D01*
X019397Y020229D01*
X019324Y020324D01*
X019229Y020397D01*
X019119Y020443D01*
X019Y020458D01*
D02*
G37*
G36*
X0164D02*
X016281Y020443D01*
X016171Y020397D01*
X016076Y020324D01*
X016003Y020229D01*
X015957Y020119D01*
X015942Y02D01*
X015957Y019881D01*
X016003Y019771D01*
X016076Y019676D01*
X016171Y019603D01*
X016281Y019557D01*
X0164Y019542D01*
X016519Y019557D01*
X016629Y019603D01*
X016724Y019676D01*
X016797Y019771D01*
X016843Y019881D01*
X016858Y02D01*
X016843Y020119D01*
X016797Y020229D01*
X016724Y020324D01*
X016629Y020397D01*
X016519Y020443D01*
X0164Y020458D01*
D02*
G37*
G36*
X0154D02*
X015281Y020443D01*
X015171Y020397D01*
X015076Y020324D01*
X015003Y020229D01*
X014957Y020119D01*
X014942Y02D01*
X014957Y019881D01*
X015003Y019771D01*
X015076Y019676D01*
X015171Y019603D01*
X015281Y019557D01*
X0154Y019542D01*
X015519Y019557D01*
X015629Y019603D01*
X015724Y019676D01*
X015797Y019771D01*
X015843Y019881D01*
X015858Y02D01*
X015843Y020119D01*
X015797Y020229D01*
X015724Y020324D01*
X015629Y020397D01*
X015519Y020443D01*
X0154Y020458D01*
D02*
G37*
G36*
X0144D02*
X014281Y020443D01*
X014171Y020397D01*
X014076Y020324D01*
X014003Y020229D01*
X013957Y020119D01*
X013942Y02D01*
X013957Y019881D01*
X014003Y019771D01*
X014076Y019676D01*
X014171Y019603D01*
X014281Y019557D01*
X0144Y019542D01*
X014519Y019557D01*
X014629Y019603D01*
X014724Y019676D01*
X014797Y019771D01*
X014843Y019881D01*
X014858Y02D01*
X014843Y020119D01*
X014797Y020229D01*
X014724Y020324D01*
X014629Y020397D01*
X014519Y020443D01*
X0144Y020458D01*
D02*
G37*
G36*
X0134D02*
X013281Y020443D01*
X013171Y020397D01*
X013076Y020324D01*
X013003Y020229D01*
X012957Y020119D01*
X012942Y02D01*
X012957Y019881D01*
X013003Y019771D01*
X013076Y019676D01*
X013171Y019603D01*
X013281Y019557D01*
X0134Y019542D01*
X013519Y019557D01*
X013629Y019603D01*
X013724Y019676D01*
X013797Y019771D01*
X013843Y019881D01*
X013858Y02D01*
X013843Y020119D01*
X013797Y020229D01*
X013724Y020324D01*
X013629Y020397D01*
X013519Y020443D01*
X0134Y020458D01*
D02*
G37*
G36*
X0124D02*
X012281Y020443D01*
X012171Y020397D01*
X012076Y020324D01*
X012003Y020229D01*
X011957Y020119D01*
X011942Y02D01*
X011957Y019881D01*
X012003Y019771D01*
X012076Y019676D01*
X012171Y019603D01*
X012281Y019557D01*
X0124Y019542D01*
X012519Y019557D01*
X012629Y019603D01*
X012724Y019676D01*
X012797Y019771D01*
X012843Y019881D01*
X012858Y02D01*
X012843Y020119D01*
X012797Y020229D01*
X012724Y020324D01*
X012629Y020397D01*
X012519Y020443D01*
X0124Y020458D01*
D02*
G37*
G36*
X0114D02*
X011281Y020443D01*
X011171Y020397D01*
X011076Y020324D01*
X011003Y020229D01*
X010957Y020119D01*
X010942Y02D01*
X010957Y019881D01*
X011003Y019771D01*
X011076Y019676D01*
X011171Y019603D01*
X011281Y019557D01*
X0114Y019542D01*
X011519Y019557D01*
X011629Y019603D01*
X011724Y019676D01*
X011797Y019771D01*
X011843Y019881D01*
X011858Y02D01*
X011843Y020119D01*
X011797Y020229D01*
X011724Y020324D01*
X011629Y020397D01*
X011519Y020443D01*
X0114Y020458D01*
D02*
G37*
G36*
X0094D02*
X009281Y020443D01*
X009171Y020397D01*
X009076Y020324D01*
X009003Y020229D01*
X008957Y020119D01*
X008942Y02D01*
X008957Y019881D01*
X009003Y019771D01*
X009076Y019676D01*
X009171Y019603D01*
X009281Y019557D01*
X0094Y019542D01*
X009519Y019557D01*
X009629Y019603D01*
X009724Y019676D01*
X009797Y019771D01*
X009843Y019881D01*
X009858Y02D01*
X009843Y020119D01*
X009797Y020229D01*
X009724Y020324D01*
X009629Y020397D01*
X009519Y020443D01*
X0094Y020458D01*
D02*
G37*
G36*
X0084D02*
X008281Y020443D01*
X008171Y020397D01*
X008076Y020324D01*
X008003Y020229D01*
X007957Y020119D01*
X007942Y02D01*
X007957Y019881D01*
X008003Y019771D01*
X008076Y019676D01*
X008171Y019603D01*
X008281Y019557D01*
X0084Y019542D01*
X008519Y019557D01*
X008629Y019603D01*
X008724Y019676D01*
X008797Y019771D01*
X008843Y019881D01*
X008858Y02D01*
X008843Y020119D01*
X008797Y020229D01*
X008724Y020324D01*
X008629Y020397D01*
X008519Y020443D01*
X0084Y020458D01*
D02*
G37*
G36*
X022D02*
X021881Y020443D01*
X021771Y020397D01*
X021676Y020324D01*
X021603Y020229D01*
X021557Y020119D01*
X021542Y02D01*
X021557Y019881D01*
X021603Y019771D01*
X021676Y019676D01*
X021771Y019603D01*
X021822Y019582D01*
Y018304D01*
X02175Y01825D01*
X021694Y018177D01*
X021659Y018091D01*
X021647Y018D01*
X021659Y017909D01*
X021694Y017823D01*
X02175Y01775D01*
X021823Y017694D01*
X021909Y017659D01*
X022Y017647D01*
X022091Y017659D01*
X022177Y017694D01*
X02225Y01775D01*
X022306Y017823D01*
X022341Y017909D01*
X022353Y018D01*
X022341Y018091D01*
X022306Y018177D01*
X02225Y01825D01*
X022178Y018304D01*
Y019582D01*
X022229Y019603D01*
X022324Y019676D01*
X022397Y019771D01*
X022443Y019881D01*
X022458Y02D01*
X022443Y020119D01*
X022397Y020229D01*
X022324Y020324D01*
X022229Y020397D01*
X022119Y020443D01*
X022Y020458D01*
D02*
G37*
G36*
X0133Y017952D02*
Y01755D01*
X013702D01*
X013693Y017619D01*
X013647Y017729D01*
X013574Y017824D01*
X013479Y017897D01*
X013369Y017943D01*
X0133Y017952D01*
D02*
G37*
G36*
X0132D02*
X013131Y017943D01*
X013021Y017897D01*
X012926Y017824D01*
X012853Y017729D01*
X012807Y017619D01*
X012798Y01755D01*
X0132D01*
Y017952D01*
D02*
G37*
G36*
X023Y020458D02*
X022881Y020443D01*
X022771Y020397D01*
X022676Y020324D01*
X022603Y020229D01*
X022557Y020119D01*
X022542Y02D01*
X022557Y019881D01*
X022603Y019771D01*
X022676Y019676D01*
X022771Y019603D01*
X022822Y019582D01*
Y017824D01*
X022089Y017091D01*
X022Y017103D01*
X021909Y017091D01*
X021823Y017056D01*
X02175Y017D01*
X021694Y016927D01*
X021659Y016841D01*
X021647Y01675D01*
X021659Y016659D01*
X021694Y016573D01*
X02175Y0165D01*
X021823Y016444D01*
X021909Y016409D01*
X022Y016397D01*
X022091Y016409D01*
X022177Y016444D01*
X02225Y0165D01*
X022306Y016573D01*
X022341Y016659D01*
X022353Y01675D01*
X022341Y016839D01*
X023126Y017624D01*
X023126Y017624D01*
X023165Y017682D01*
X023178Y01775D01*
X023178Y01775D01*
Y019582D01*
X023229Y019603D01*
X023324Y019676D01*
X023397Y019771D01*
X023443Y019881D01*
X023458Y02D01*
X023443Y020119D01*
X023397Y020229D01*
X023324Y020324D01*
X023229Y020397D01*
X023119Y020443D01*
X023Y020458D01*
D02*
G37*
G36*
X013702Y01745D02*
X0133D01*
Y017048D01*
X013369Y017057D01*
X013479Y017103D01*
X013574Y017176D01*
X013647Y017271D01*
X013693Y017381D01*
X013702Y01745D01*
D02*
G37*
G36*
X0132D02*
X012798D01*
X012807Y017381D01*
X012853Y017271D01*
X012926Y017176D01*
X013021Y017103D01*
X013131Y017057D01*
X0132Y017048D01*
Y01745D01*
D02*
G37*
G36*
X01325Y016958D02*
X013131Y016943D01*
X013021Y016897D01*
X012926Y016824D01*
X012853Y016729D01*
X012807Y016619D01*
X012792Y0165D01*
X012807Y016381D01*
X012853Y016271D01*
X012926Y016176D01*
X013021Y016103D01*
X013131Y016057D01*
X01325Y016042D01*
X013369Y016057D01*
X013479Y016103D01*
X013574Y016176D01*
X013647Y016271D01*
X013693Y016381D01*
X013708Y0165D01*
X013693Y016619D01*
X013647Y016729D01*
X013574Y016824D01*
X013479Y016897D01*
X013369Y016943D01*
X01325Y016958D01*
D02*
G37*
G36*
X028364Y015958D02*
X027833D01*
X027759Y015943D01*
X027697Y015902D01*
X027655Y015839D01*
X02764Y015766D01*
Y015234D01*
X027655Y015161D01*
X027697Y015098D01*
X027759Y015057D01*
X027833Y015042D01*
X028364D01*
X028438Y015057D01*
X0285Y015098D01*
X028542Y015161D01*
X028556Y015234D01*
Y015766D01*
X028542Y015839D01*
X0285Y015902D01*
X028438Y015943D01*
X028364Y015958D01*
D02*
G37*
G36*
X013516D02*
X012984D01*
X012911Y015943D01*
X012848Y015902D01*
X012807Y015839D01*
X012792Y015766D01*
Y015234D01*
X012807Y015161D01*
X012848Y015098D01*
X012911Y015057D01*
X012984Y015042D01*
X013516D01*
X013589Y015057D01*
X013652Y015098D01*
X013693Y015161D01*
X013708Y015234D01*
Y015766D01*
X013693Y015839D01*
X013652Y015902D01*
X013589Y015943D01*
X013516Y015958D01*
D02*
G37*
G36*
X028148Y014952D02*
Y01455D01*
X02855D01*
X028541Y014619D01*
X028495Y014729D01*
X028422Y014824D01*
X028328Y014897D01*
X028217Y014943D01*
X028148Y014952D01*
D02*
G37*
G36*
X028048Y014952D02*
X02798Y014943D01*
X027869Y014897D01*
X027774Y014824D01*
X027702Y014729D01*
X027656Y014619D01*
X027647Y01455D01*
X028048D01*
Y014952D01*
D02*
G37*
G36*
Y01445D02*
X027647D01*
X027656Y014381D01*
X027702Y014271D01*
X027774Y014176D01*
X027869Y014103D01*
X02798Y014057D01*
X028048Y014048D01*
Y01445D01*
D02*
G37*
G36*
X02855D02*
X028148D01*
Y014048D01*
X028217Y014057D01*
X028328Y014103D01*
X028422Y014176D01*
X028495Y014271D01*
X028541Y014381D01*
X02855Y01445D01*
D02*
G37*
G36*
X0093Y009952D02*
Y00955D01*
X009702D01*
X009693Y009619D01*
X009647Y009729D01*
X009574Y009824D01*
X009479Y009897D01*
X009369Y009943D01*
X0093Y009952D01*
D02*
G37*
G36*
X0092D02*
X009131Y009943D01*
X009021Y009897D01*
X008926Y009824D01*
X008853Y009729D01*
X008807Y009619D01*
X008798Y00955D01*
X0092D01*
Y009952D01*
D02*
G37*
G36*
X009702Y00945D02*
X0093D01*
Y009048D01*
X009369Y009057D01*
X009479Y009103D01*
X009574Y009176D01*
X009647Y009271D01*
X009693Y009381D01*
X009702Y00945D01*
D02*
G37*
G36*
X0092D02*
X008798D01*
X008807Y009381D01*
X008853Y009271D01*
X008926Y009176D01*
X009021Y009103D01*
X009131Y009057D01*
X0092Y009048D01*
Y00945D01*
D02*
G37*
G36*
X028266Y009708D02*
X027734D01*
X027661Y009693D01*
X027598Y009652D01*
X027557Y009589D01*
X027542Y009516D01*
Y008984D01*
X027557Y008911D01*
X027598Y008848D01*
X027661Y008807D01*
X027734Y008792D01*
X028266D01*
X028339Y008807D01*
X028402Y008848D01*
X028443Y008911D01*
X028458Y008984D01*
Y009516D01*
X028443Y009589D01*
X028402Y009652D01*
X028339Y009693D01*
X028266Y009708D01*
D02*
G37*
G36*
X0093Y008952D02*
Y00855D01*
X009702D01*
X009693Y008619D01*
X009647Y008729D01*
X009574Y008824D01*
X009479Y008897D01*
X009369Y008943D01*
X0093Y008952D01*
D02*
G37*
G36*
X0092D02*
X009131Y008943D01*
X009021Y008897D01*
X008926Y008824D01*
X008853Y008729D01*
X008807Y008619D01*
X008798Y00855D01*
X0092D01*
Y008952D01*
D02*
G37*
G36*
X02805Y008702D02*
Y0083D01*
X028452D01*
X028443Y008369D01*
X028397Y008479D01*
X028324Y008574D01*
X028229Y008647D01*
X028119Y008693D01*
X02805Y008702D01*
D02*
G37*
G36*
X02795D02*
X027881Y008693D01*
X027771Y008647D01*
X027676Y008574D01*
X027603Y008479D01*
X027557Y008369D01*
X027548Y0083D01*
X02795D01*
Y008702D01*
D02*
G37*
G36*
X009702Y00845D02*
X0093D01*
Y008048D01*
X009369Y008057D01*
X009479Y008103D01*
X009574Y008176D01*
X009647Y008271D01*
X009693Y008381D01*
X009702Y00845D01*
D02*
G37*
G36*
X0092D02*
X008798D01*
X008807Y008381D01*
X008853Y008271D01*
X008926Y008176D01*
X009021Y008103D01*
X009131Y008057D01*
X0092Y008048D01*
Y00845D01*
D02*
G37*
G36*
X028452Y0082D02*
X02805D01*
Y007798D01*
X028119Y007807D01*
X028229Y007853D01*
X028324Y007926D01*
X028397Y008021D01*
X028443Y008131D01*
X028452Y0082D01*
D02*
G37*
G36*
X02795D02*
X027548D01*
X027557Y008131D01*
X027603Y008021D01*
X027676Y007926D01*
X027771Y007853D01*
X027881Y007807D01*
X02795Y007798D01*
Y0082D01*
D02*
G37*
G36*
X0093Y007952D02*
Y00755D01*
X009702D01*
X009693Y007619D01*
X009647Y007729D01*
X009574Y007824D01*
X009479Y007897D01*
X009369Y007943D01*
X0093Y007952D01*
D02*
G37*
G36*
X0092D02*
X009131Y007943D01*
X009021Y007897D01*
X008926Y007824D01*
X008853Y007729D01*
X008807Y007619D01*
X008798Y00755D01*
X0092D01*
Y007952D01*
D02*
G37*
G36*
X009702Y00745D02*
X0093D01*
Y007048D01*
X009369Y007057D01*
X009479Y007103D01*
X009574Y007176D01*
X009647Y007271D01*
X009693Y007381D01*
X009702Y00745D01*
D02*
G37*
G36*
X0092D02*
X008798D01*
X008807Y007381D01*
X008853Y007271D01*
X008926Y007176D01*
X009021Y007103D01*
X009131Y007057D01*
X0092Y007048D01*
Y00745D01*
D02*
G37*
G36*
X01175Y014853D02*
X011659Y014841D01*
X011573Y014806D01*
X0115Y01475D01*
X011444Y014677D01*
X011409Y014591D01*
X011397Y0145D01*
X011409Y014409D01*
X011444Y014323D01*
X0115Y01425D01*
X011572Y014196D01*
Y008074D01*
X010176Y006678D01*
X009708D01*
Y006766D01*
X009693Y006839D01*
X009652Y006902D01*
X009589Y006943D01*
X009516Y006958D01*
X008984D01*
X008911Y006943D01*
X008848Y006902D01*
X008807Y006839D01*
X008792Y006766D01*
Y006234D01*
X008807Y006161D01*
X008848Y006098D01*
X008911Y006057D01*
X008984Y006042D01*
X009516D01*
X009589Y006057D01*
X009652Y006098D01*
X009693Y006161D01*
X009708Y006234D01*
Y006322D01*
X01025D01*
X010318Y006335D01*
X010376Y006374D01*
X011876Y007874D01*
X011876Y007874D01*
X011915Y007932D01*
X011928Y008D01*
Y014196D01*
X012Y01425D01*
X012056Y014323D01*
X012091Y014409D01*
X012103Y0145D01*
X012091Y014591D01*
X012056Y014677D01*
X012Y01475D01*
X011927Y014806D01*
X011841Y014841D01*
X01175Y014853D01*
D02*
G37*
G36*
X02455Y003702D02*
Y0033D01*
X024952D01*
X024943Y003369D01*
X024897Y003479D01*
X024824Y003574D01*
X024729Y003647D01*
X024619Y003693D01*
X02455Y003702D01*
D02*
G37*
G36*
X02445D02*
X024381Y003693D01*
X024271Y003647D01*
X024176Y003574D01*
X024103Y003479D01*
X024057Y003369D01*
X024048Y0033D01*
X02445D01*
Y003702D01*
D02*
G37*
G36*
X02355D02*
Y0033D01*
X023952D01*
X023943Y003369D01*
X023897Y003479D01*
X023824Y003574D01*
X023729Y003647D01*
X023619Y003693D01*
X02355Y003702D01*
D02*
G37*
G36*
X02345D02*
X023381Y003693D01*
X023271Y003647D01*
X023176Y003574D01*
X023103Y003479D01*
X023057Y003369D01*
X023048Y0033D01*
X02345D01*
Y003702D01*
D02*
G37*
G36*
X02255D02*
Y0033D01*
X022952D01*
X022943Y003369D01*
X022897Y003479D01*
X022824Y003574D01*
X022729Y003647D01*
X022619Y003693D01*
X02255Y003702D01*
D02*
G37*
G36*
X02245D02*
X022381Y003693D01*
X022271Y003647D01*
X022176Y003574D01*
X022103Y003479D01*
X022057Y003369D01*
X022048Y0033D01*
X02245D01*
Y003702D01*
D02*
G37*
G36*
X02155D02*
Y0033D01*
X021952D01*
X021943Y003369D01*
X021897Y003479D01*
X021824Y003574D01*
X021729Y003647D01*
X021619Y003693D01*
X02155Y003702D01*
D02*
G37*
G36*
X02145D02*
X021381Y003693D01*
X021271Y003647D01*
X021176Y003574D01*
X021103Y003479D01*
X021057Y003369D01*
X021048Y0033D01*
X02145D01*
Y003702D01*
D02*
G37*
G36*
X02055D02*
Y0033D01*
X020952D01*
X020943Y003369D01*
X020897Y003479D01*
X020824Y003574D01*
X020729Y003647D01*
X020619Y003693D01*
X02055Y003702D01*
D02*
G37*
G36*
X02045D02*
X020381Y003693D01*
X020271Y003647D01*
X020176Y003574D01*
X020103Y003479D01*
X020057Y003369D01*
X020048Y0033D01*
X02045D01*
Y003702D01*
D02*
G37*
G36*
X019766Y003708D02*
X01955D01*
Y0033D01*
X019958D01*
Y003516D01*
X019943Y003589D01*
X019902Y003652D01*
X019839Y003693D01*
X019766Y003708D01*
D02*
G37*
G36*
X01945D02*
X019234D01*
X019161Y003693D01*
X019098Y003652D01*
X019057Y003589D01*
X019042Y003516D01*
Y0033D01*
X01945D01*
Y003708D01*
D02*
G37*
G36*
X024952Y0032D02*
X02455D01*
Y002798D01*
X024619Y002807D01*
X024729Y002853D01*
X024824Y002926D01*
X024897Y003021D01*
X024943Y003131D01*
X024952Y0032D01*
D02*
G37*
G36*
X02445D02*
X024048D01*
X024057Y003131D01*
X024103Y003021D01*
X024176Y002926D01*
X024271Y002853D01*
X024381Y002807D01*
X02445Y002798D01*
Y0032D01*
D02*
G37*
G36*
X023952D02*
X02355D01*
Y002798D01*
X023619Y002807D01*
X023729Y002853D01*
X023824Y002926D01*
X023897Y003021D01*
X023943Y003131D01*
X023952Y0032D01*
D02*
G37*
G36*
X02345D02*
X023048D01*
X023057Y003131D01*
X023103Y003021D01*
X023176Y002926D01*
X023271Y002853D01*
X023381Y002807D01*
X02345Y002798D01*
Y0032D01*
D02*
G37*
G36*
X022952D02*
X02255D01*
Y002798D01*
X022619Y002807D01*
X022729Y002853D01*
X022824Y002926D01*
X022897Y003021D01*
X022943Y003131D01*
X022952Y0032D01*
D02*
G37*
G36*
X02245D02*
X022048D01*
X022057Y003131D01*
X022103Y003021D01*
X022176Y002926D01*
X022271Y002853D01*
X022381Y002807D01*
X02245Y002798D01*
Y0032D01*
D02*
G37*
G36*
X021952D02*
X02155D01*
Y002798D01*
X021619Y002807D01*
X021729Y002853D01*
X021824Y002926D01*
X021897Y003021D01*
X021943Y003131D01*
X021952Y0032D01*
D02*
G37*
G36*
X02145D02*
X021048D01*
X021057Y003131D01*
X021103Y003021D01*
X021176Y002926D01*
X021271Y002853D01*
X021381Y002807D01*
X02145Y002798D01*
Y0032D01*
D02*
G37*
G36*
X020952D02*
X02055D01*
Y002798D01*
X020619Y002807D01*
X020729Y002853D01*
X020824Y002926D01*
X020897Y003021D01*
X020943Y003131D01*
X020952Y0032D01*
D02*
G37*
G36*
X02045D02*
X020048D01*
X020057Y003131D01*
X020103Y003021D01*
X020176Y002926D01*
X020271Y002853D01*
X020381Y002807D01*
X02045Y002798D01*
Y0032D01*
D02*
G37*
G36*
X028266Y003708D02*
X027734D01*
X027661Y003693D01*
X027598Y003652D01*
X027557Y003589D01*
X027542Y003516D01*
Y002984D01*
X027557Y002911D01*
X027598Y002848D01*
X027661Y002807D01*
X027734Y002792D01*
X028266D01*
X028339Y002807D01*
X028402Y002848D01*
X028443Y002911D01*
X028458Y002984D01*
Y003516D01*
X028443Y003589D01*
X028402Y003652D01*
X028339Y003693D01*
X028266Y003708D01*
D02*
G37*
G36*
X019958Y0032D02*
X01955D01*
Y002792D01*
X019766D01*
X019839Y002807D01*
X019902Y002848D01*
X019943Y002911D01*
X019958Y002984D01*
Y0032D01*
D02*
G37*
G36*
X01945D02*
X019042D01*
Y002984D01*
X019057Y002911D01*
X019098Y002848D01*
X019161Y002807D01*
X019234Y002792D01*
X01945D01*
Y0032D01*
D02*
G37*
G36*
X02805Y002702D02*
Y0023D01*
X028452D01*
X028443Y002369D01*
X028397Y002479D01*
X028324Y002574D01*
X028229Y002647D01*
X028119Y002693D01*
X02805Y002702D01*
D02*
G37*
G36*
X02795D02*
X027881Y002693D01*
X027771Y002647D01*
X027676Y002574D01*
X027603Y002479D01*
X027557Y002369D01*
X027548Y0023D01*
X02795D01*
Y002702D01*
D02*
G37*
G36*
X028452Y0022D02*
X02805D01*
Y001798D01*
X028119Y001807D01*
X028229Y001853D01*
X028324Y001926D01*
X028397Y002021D01*
X028443Y002131D01*
X028452Y0022D01*
D02*
G37*
G36*
X02795D02*
X027548D01*
X027557Y002131D01*
X027603Y002021D01*
X027676Y001926D01*
X027771Y001853D01*
X027881Y001807D01*
X02795Y001798D01*
Y0022D01*
D02*
G37*
G36*
X019766Y002708D02*
X019234D01*
X019161Y002693D01*
X019098Y002652D01*
X019057Y002589D01*
X019042Y002516D01*
Y001984D01*
X019057Y001911D01*
X019098Y001848D01*
X019161Y001807D01*
X019234Y001792D01*
X019766D01*
X019839Y001807D01*
X019902Y001848D01*
X019943Y001911D01*
X019958Y001984D01*
Y002516D01*
X019943Y002589D01*
X019902Y002652D01*
X019839Y002693D01*
X019766Y002708D01*
D02*
G37*
G36*
X0245Y002708D02*
X024381Y002693D01*
X024271Y002647D01*
X024176Y002574D01*
X024103Y002479D01*
X024057Y002369D01*
X024042Y00225D01*
X024057Y002131D01*
X024103Y002021D01*
X024176Y001926D01*
X024271Y001853D01*
X024381Y001807D01*
X0245Y001792D01*
X024619Y001807D01*
X024729Y001853D01*
X024824Y001926D01*
X024897Y002021D01*
X024943Y002131D01*
X024958Y00225D01*
X024943Y002369D01*
X024897Y002479D01*
X024824Y002574D01*
X024729Y002647D01*
X024619Y002693D01*
X0245Y002708D01*
D02*
G37*
G36*
X0235D02*
X023381Y002693D01*
X023271Y002647D01*
X023176Y002574D01*
X023103Y002479D01*
X023057Y002369D01*
X023042Y00225D01*
X023057Y002131D01*
X023103Y002021D01*
X023176Y001926D01*
X023271Y001853D01*
X023381Y001807D01*
X0235Y001792D01*
X023619Y001807D01*
X023729Y001853D01*
X023824Y001926D01*
X023897Y002021D01*
X023943Y002131D01*
X023958Y00225D01*
X023943Y002369D01*
X023897Y002479D01*
X023824Y002574D01*
X023729Y002647D01*
X023619Y002693D01*
X0235Y002708D01*
D02*
G37*
G36*
X0225D02*
X022381Y002693D01*
X022271Y002647D01*
X022176Y002574D01*
X022103Y002479D01*
X022057Y002369D01*
X022042Y00225D01*
X022057Y002131D01*
X022103Y002021D01*
X022176Y001926D01*
X022271Y001853D01*
X022381Y001807D01*
X0225Y001792D01*
X022619Y001807D01*
X022729Y001853D01*
X022824Y001926D01*
X022897Y002021D01*
X022943Y002131D01*
X022958Y00225D01*
X022943Y002369D01*
X022897Y002479D01*
X022824Y002574D01*
X022729Y002647D01*
X022619Y002693D01*
X0225Y002708D01*
D02*
G37*
G36*
X0215D02*
X021381Y002693D01*
X021271Y002647D01*
X021176Y002574D01*
X021103Y002479D01*
X021057Y002369D01*
X021042Y00225D01*
X021057Y002131D01*
X021103Y002021D01*
X021176Y001926D01*
X021271Y001853D01*
X021381Y001807D01*
X0215Y001792D01*
X021619Y001807D01*
X021729Y001853D01*
X021824Y001926D01*
X021897Y002021D01*
X021943Y002131D01*
X021958Y00225D01*
X021943Y002369D01*
X021897Y002479D01*
X021824Y002574D01*
X021729Y002647D01*
X021619Y002693D01*
X0215Y002708D01*
D02*
G37*
G36*
X0205D02*
X020381Y002693D01*
X020271Y002647D01*
X020176Y002574D01*
X020103Y002479D01*
X020057Y002369D01*
X020042Y00225D01*
X020057Y002131D01*
X020103Y002021D01*
X020176Y001926D01*
X020271Y001853D01*
X020381Y001807D01*
X0205Y001792D01*
X020619Y001807D01*
X020729Y001853D01*
X020824Y001926D01*
X020897Y002021D01*
X020943Y002131D01*
X020958Y00225D01*
X020943Y002369D01*
X020897Y002479D01*
X020824Y002574D01*
X020729Y002647D01*
X020619Y002693D01*
X0205Y002708D01*
D02*
G37*
G36*
X01705Y001452D02*
Y00105D01*
X017452D01*
X017443Y001119D01*
X017397Y001229D01*
X017324Y001324D01*
X017229Y001397D01*
X017119Y001443D01*
X01705Y001452D01*
D02*
G37*
G36*
X01695D02*
X016881Y001443D01*
X016771Y001397D01*
X016676Y001324D01*
X016603Y001229D01*
X016557Y001119D01*
X016548Y00105D01*
X01695D01*
Y001452D01*
D02*
G37*
G36*
X01605D02*
Y00105D01*
X016452D01*
X016443Y001119D01*
X016397Y001229D01*
X016324Y001324D01*
X016229Y001397D01*
X016119Y001443D01*
X01605Y001452D01*
D02*
G37*
G36*
X01595D02*
X015881Y001443D01*
X015771Y001397D01*
X015676Y001324D01*
X015603Y001229D01*
X015557Y001119D01*
X015548Y00105D01*
X01595D01*
Y001452D01*
D02*
G37*
G36*
X017452Y00095D02*
X01705D01*
Y000548D01*
X017119Y000557D01*
X017229Y000603D01*
X017324Y000676D01*
X017397Y000771D01*
X017443Y000881D01*
X017452Y00095D01*
D02*
G37*
G36*
X01695D02*
X016548D01*
X016557Y000881D01*
X016603Y000771D01*
X016676Y000676D01*
X016771Y000603D01*
X016881Y000557D01*
X01695Y000548D01*
Y00095D01*
D02*
G37*
G36*
X016452D02*
X01605D01*
Y000548D01*
X016119Y000557D01*
X016229Y000603D01*
X016324Y000676D01*
X016397Y000771D01*
X016443Y000881D01*
X016452Y00095D01*
D02*
G37*
G36*
X01595D02*
X015548D01*
X015557Y000881D01*
X015603Y000771D01*
X015676Y000676D01*
X015771Y000603D01*
X015881Y000557D01*
X01595Y000548D01*
Y00095D01*
D02*
G37*
G36*
X020266Y001458D02*
X019734D01*
X019661Y001443D01*
X019598Y001402D01*
X019557Y001339D01*
X019542Y001266D01*
Y000734D01*
X019557Y000661D01*
X019598Y000598D01*
X019661Y000557D01*
X019734Y000542D01*
X020266D01*
X020339Y000557D01*
X020402Y000598D01*
X020443Y000661D01*
X020458Y000734D01*
Y001266D01*
X020443Y001339D01*
X020402Y001402D01*
X020339Y001443D01*
X020266Y001458D01*
D02*
G37*
G36*
X011266D02*
X010734D01*
X010661Y001443D01*
X010598Y001402D01*
X010557Y001339D01*
X010542Y001266D01*
Y000734D01*
X010557Y000661D01*
X010598Y000598D01*
X010661Y000557D01*
X010734Y000542D01*
X011266D01*
X011339Y000557D01*
X011402Y000598D01*
X011443Y000661D01*
X011458Y000734D01*
Y001266D01*
X011443Y001339D01*
X011402Y001402D01*
X011339Y001443D01*
X011266Y001458D01*
D02*
G37*
G36*
X025Y001458D02*
X024881Y001443D01*
X024771Y001397D01*
X024676Y001324D01*
X024603Y001229D01*
X024557Y001119D01*
X024542Y001D01*
X024557Y000881D01*
X024603Y000771D01*
X024676Y000676D01*
X024771Y000603D01*
X024881Y000557D01*
X025Y000542D01*
X025119Y000557D01*
X025229Y000603D01*
X025324Y000676D01*
X025397Y000771D01*
X025443Y000881D01*
X025458Y001D01*
X025443Y001119D01*
X025397Y001229D01*
X025324Y001324D01*
X025229Y001397D01*
X025119Y001443D01*
X025Y001458D01*
D02*
G37*
G36*
X024D02*
X023881Y001443D01*
X023771Y001397D01*
X023676Y001324D01*
X023603Y001229D01*
X023557Y001119D01*
X023542Y001D01*
X023557Y000881D01*
X023603Y000771D01*
X023676Y000676D01*
X023771Y000603D01*
X023881Y000557D01*
X024Y000542D01*
X024119Y000557D01*
X024229Y000603D01*
X024324Y000676D01*
X024397Y000771D01*
X024443Y000881D01*
X024458Y001D01*
X024443Y001119D01*
X024397Y001229D01*
X024324Y001324D01*
X024229Y001397D01*
X024119Y001443D01*
X024Y001458D01*
D02*
G37*
G36*
X023D02*
X022881Y001443D01*
X022771Y001397D01*
X022676Y001324D01*
X022603Y001229D01*
X022557Y001119D01*
X022542Y001D01*
X022557Y000881D01*
X022603Y000771D01*
X022676Y000676D01*
X022771Y000603D01*
X022881Y000557D01*
X023Y000542D01*
X023119Y000557D01*
X023229Y000603D01*
X023324Y000676D01*
X023397Y000771D01*
X023443Y000881D01*
X023458Y001D01*
X023443Y001119D01*
X023397Y001229D01*
X023324Y001324D01*
X023229Y001397D01*
X023119Y001443D01*
X023Y001458D01*
D02*
G37*
G36*
X022D02*
X021881Y001443D01*
X021771Y001397D01*
X021676Y001324D01*
X021603Y001229D01*
X021557Y001119D01*
X021542Y001D01*
X021557Y000881D01*
X021603Y000771D01*
X021676Y000676D01*
X021771Y000603D01*
X021881Y000557D01*
X022Y000542D01*
X022119Y000557D01*
X022229Y000603D01*
X022324Y000676D01*
X022397Y000771D01*
X022443Y000881D01*
X022458Y001D01*
X022443Y001119D01*
X022397Y001229D01*
X022324Y001324D01*
X022229Y001397D01*
X022119Y001443D01*
X022Y001458D01*
D02*
G37*
G36*
X021D02*
X020881Y001443D01*
X020771Y001397D01*
X020676Y001324D01*
X020603Y001229D01*
X020557Y001119D01*
X020542Y001D01*
X020557Y000881D01*
X020603Y000771D01*
X020676Y000676D01*
X020771Y000603D01*
X020881Y000557D01*
X021Y000542D01*
X021119Y000557D01*
X021229Y000603D01*
X021324Y000676D01*
X021397Y000771D01*
X021443Y000881D01*
X021458Y001D01*
X021443Y001119D01*
X021397Y001229D01*
X021324Y001324D01*
X021229Y001397D01*
X021119Y001443D01*
X021Y001458D01*
D02*
G37*
G36*
X018D02*
X017881Y001443D01*
X017771Y001397D01*
X017676Y001324D01*
X017603Y001229D01*
X017557Y001119D01*
X017542Y001D01*
X017557Y000881D01*
X017603Y000771D01*
X017676Y000676D01*
X017771Y000603D01*
X017881Y000557D01*
X018Y000542D01*
X018119Y000557D01*
X018229Y000603D01*
X018324Y000676D01*
X018397Y000771D01*
X018443Y000881D01*
X018458Y001D01*
X018443Y001119D01*
X018397Y001229D01*
X018324Y001324D01*
X018229Y001397D01*
X018119Y001443D01*
X018Y001458D01*
D02*
G37*
G36*
X015D02*
X014881Y001443D01*
X014771Y001397D01*
X014676Y001324D01*
X014603Y001229D01*
X014557Y001119D01*
X014542Y001D01*
X014557Y000881D01*
X014603Y000771D01*
X014676Y000676D01*
X014771Y000603D01*
X014881Y000557D01*
X015Y000542D01*
X015119Y000557D01*
X015229Y000603D01*
X015324Y000676D01*
X015397Y000771D01*
X015443Y000881D01*
X015458Y001D01*
X015443Y001119D01*
X015397Y001229D01*
X015324Y001324D01*
X015229Y001397D01*
X015119Y001443D01*
X015Y001458D01*
D02*
G37*
G36*
X014D02*
X013881Y001443D01*
X013771Y001397D01*
X013676Y001324D01*
X013603Y001229D01*
X013557Y001119D01*
X013542Y001D01*
X013557Y000881D01*
X013603Y000771D01*
X013676Y000676D01*
X013771Y000603D01*
X013881Y000557D01*
X014Y000542D01*
X014119Y000557D01*
X014229Y000603D01*
X014324Y000676D01*
X014397Y000771D01*
X014443Y000881D01*
X014458Y001D01*
X014443Y001119D01*
X014397Y001229D01*
X014324Y001324D01*
X014229Y001397D01*
X014119Y001443D01*
X014Y001458D01*
D02*
G37*
G36*
X013D02*
X012881Y001443D01*
X012771Y001397D01*
X012676Y001324D01*
X012603Y001229D01*
X012557Y001119D01*
X012542Y001D01*
X012557Y000881D01*
X012603Y000771D01*
X012676Y000676D01*
X012771Y000603D01*
X012881Y000557D01*
X013Y000542D01*
X013119Y000557D01*
X013229Y000603D01*
X013324Y000676D01*
X013397Y000771D01*
X013443Y000881D01*
X013458Y001D01*
X013443Y001119D01*
X013397Y001229D01*
X013324Y001324D01*
X013229Y001397D01*
X013119Y001443D01*
X013Y001458D01*
D02*
G37*
G36*
X012D02*
X011881Y001443D01*
X011771Y001397D01*
X011676Y001324D01*
X011603Y001229D01*
X011557Y001119D01*
X011542Y001D01*
X011557Y000881D01*
X011603Y000771D01*
X011676Y000676D01*
X011771Y000603D01*
X011881Y000557D01*
X012Y000542D01*
X012119Y000557D01*
X012229Y000603D01*
X012324Y000676D01*
X012397Y000771D01*
X012443Y000881D01*
X012458Y001D01*
X012443Y001119D01*
X012397Y001229D01*
X012324Y001324D01*
X012229Y001397D01*
X012119Y001443D01*
X012Y001458D01*
D02*
G37*
%LPD*%
D43*
X022Y01675D02*
X023Y01775D01*
Y02D01*
X022Y018D02*
Y02D01*
X00925Y0065D02*
X01025D01*
X01175Y008D02*
Y0145D01*
X01025Y0065D02*
X01175Y008D01*
D44*
X00975Y025D02*
D03*
X00775D02*
D03*
X017D02*
D03*
X015D02*
D03*
X02425D02*
D03*
X02225D02*
D03*
X0315D02*
D03*
X0295D02*
D03*
X0315Y014D02*
D03*
Y016D02*
D03*
X031402Y00775D02*
D03*
Y00975D02*
D03*
Y00175D02*
D03*
Y00375D02*
D03*
X005848Y006D02*
D03*
Y01D02*
D03*
X009848Y015D02*
D03*
Y018D02*
D03*
D45*
X00825Y021598D02*
D03*
X0155D02*
D03*
X02275D02*
D03*
X03D02*
D03*
X018Y02D02*
D03*
X0074D02*
D03*
X011Y001D02*
D03*
X02D02*
D03*
X0195Y00225D02*
D03*
Y00325D02*
D03*
D46*
X00925Y021598D02*
D03*
X0165D02*
D03*
X02375D02*
D03*
X031D02*
D03*
X028098Y0145D02*
D03*
X028Y00825D02*
D03*
Y00225D02*
D03*
X00925Y0095D02*
D03*
Y0085D02*
D03*
Y0075D02*
D03*
X01325Y0175D02*
D03*
Y0165D02*
D03*
X019Y02D02*
D03*
X02D02*
D03*
X021D02*
D03*
X022D02*
D03*
X023D02*
D03*
X025D02*
D03*
X024D02*
D03*
X0124D02*
D03*
X0114D02*
D03*
X0104D02*
D03*
X0094D02*
D03*
X0084D02*
D03*
X0164D02*
D03*
X0154D02*
D03*
X0144D02*
D03*
X0134D02*
D03*
X012Y001D02*
D03*
X013D02*
D03*
X014D02*
D03*
X015D02*
D03*
X016D02*
D03*
X018D02*
D03*
X017D02*
D03*
X025D02*
D03*
X024D02*
D03*
X023D02*
D03*
X022D02*
D03*
X021D02*
D03*
X0245Y00225D02*
D03*
X0235D02*
D03*
X0225D02*
D03*
X0215D02*
D03*
X0205D02*
D03*
X0245Y00325D02*
D03*
X0235D02*
D03*
X0225D02*
D03*
X0215D02*
D03*
X0205D02*
D03*
D47*
X028098Y0155D02*
D03*
X028Y00925D02*
D03*
Y00325D02*
D03*
X00925Y0065D02*
D03*
X01325Y0155D02*
D03*
D48*
X022Y01675D02*
D03*
Y018D02*
D03*
X01175Y0145D02*
D03*
D49*
X026Y003D02*
D03*
Y014D02*
D03*
X0055Y001D02*
D03*
X006Y02D02*
D03*
M02*
