G04*
G04 #@! TF.GenerationSoftware,Altium Limited,Altium Designer,20.0.13 (296)*
G04*
G04 Layer_Color=8421504*
%FSTAX24Y24*%
%MOIN*%
G70*
G01*
G75*
%ADD17R,0.0354X0.0354*%
%ADD18R,0.0591X0.0591*%
%ADD19R,0.0354X0.0354*%
%ADD20R,0.0591X0.0591*%
%ADD21R,0.0453X0.0531*%
%ADD22R,0.0551X0.0512*%
%ADD23R,0.0394X0.1063*%
%ADD24R,0.1299X0.1063*%
%ADD25R,0.0965X0.1004*%
%ADD26R,0.0383X0.0316*%
D17*
X006Y025744D02*
D03*
X01325D02*
D03*
X0205D02*
D03*
X02775D02*
D03*
D18*
X006689Y026D02*
D03*
X005311D02*
D03*
X013939D02*
D03*
X012561D02*
D03*
X021189D02*
D03*
X019811D02*
D03*
X028439D02*
D03*
X027061D02*
D03*
D19*
X005006Y004D02*
D03*
X032244Y018D02*
D03*
Y01175D02*
D03*
Y0055D02*
D03*
X009006Y01325D02*
D03*
D20*
X00475Y004689D02*
D03*
Y003311D02*
D03*
X0325Y017311D02*
D03*
Y018689D02*
D03*
Y011061D02*
D03*
Y012439D02*
D03*
Y004811D02*
D03*
Y006189D02*
D03*
X00875Y013939D02*
D03*
Y012561D02*
D03*
D21*
X006406Y0045D02*
D03*
X007094D02*
D03*
X014656Y01425D02*
D03*
X015344D02*
D03*
X010156Y0135D02*
D03*
X010844D02*
D03*
X030344Y00525D02*
D03*
X029656D02*
D03*
X030594Y01125D02*
D03*
X029906D02*
D03*
X030344Y0175D02*
D03*
X029656D02*
D03*
X019989Y022D02*
D03*
X020678D02*
D03*
X027156D02*
D03*
X027844D02*
D03*
X005656D02*
D03*
X006344D02*
D03*
X012822D02*
D03*
X013511D02*
D03*
D22*
X0115Y005685D02*
D03*
Y006315D02*
D03*
D23*
X012594Y004839D02*
D03*
X0135D02*
D03*
X014406D02*
D03*
D24*
X0135Y007161D02*
D03*
D25*
X01625Y007191D02*
D03*
Y004809D02*
D03*
D26*
X014652Y0165D02*
D03*
X015348Y016874D02*
D03*
Y016126D02*
D03*
M02*
