G04*
G04 #@! TF.GenerationSoftware,Altium Limited,Altium Designer,20.0.13 (296)*
G04*
G04 Layer_Physical_Order=1*
G04 Layer_Color=255*
%FSTAX24Y24*%
%MOIN*%
G70*
G01*
G75*
%ADD17R,0.0354X0.0354*%
%ADD18R,0.0591X0.0591*%
%ADD19R,0.0354X0.0354*%
%ADD20R,0.0591X0.0591*%
%ADD21R,0.0453X0.0531*%
%ADD22R,0.0551X0.0512*%
%ADD23R,0.0394X0.1063*%
%ADD24R,0.1299X0.1063*%
%ADD25R,0.0965X0.1004*%
%ADD26R,0.0383X0.0316*%
%ADD43C,0.0150*%
%ADD44C,0.0600*%
G04:AMPARAMS|DCode=45|XSize=70.9mil|YSize=70.9mil|CornerRadius=8.9mil|HoleSize=0mil|Usage=FLASHONLY|Rotation=0.000|XOffset=0mil|YOffset=0mil|HoleType=Round|Shape=RoundedRectangle|*
%AMROUNDEDRECTD45*
21,1,0.0709,0.0531,0,0,0.0*
21,1,0.0531,0.0709,0,0,0.0*
1,1,0.0177,0.0266,-0.0266*
1,1,0.0177,-0.0266,-0.0266*
1,1,0.0177,-0.0266,0.0266*
1,1,0.0177,0.0266,0.0266*
%
%ADD45ROUNDEDRECTD45*%
%ADD46C,0.0709*%
G04:AMPARAMS|DCode=47|XSize=70.9mil|YSize=70.9mil|CornerRadius=8.9mil|HoleSize=0mil|Usage=FLASHONLY|Rotation=270.000|XOffset=0mil|YOffset=0mil|HoleType=Round|Shape=RoundedRectangle|*
%AMROUNDEDRECTD47*
21,1,0.0709,0.0531,0,0,270.0*
21,1,0.0531,0.0709,0,0,270.0*
1,1,0.0177,-0.0266,-0.0266*
1,1,0.0177,-0.0266,0.0266*
1,1,0.0177,0.0266,0.0266*
1,1,0.0177,0.0266,-0.0266*
%
%ADD47ROUNDEDRECTD47*%
%ADD48C,0.0500*%
%ADD49C,0.1250*%
G36*
X03325Y0265D02*
Y00025D01*
X033Y0D01*
X00425D01*
X004Y00025D01*
Y01075D01*
X00425Y011D01*
X00725D01*
X0075Y01125D01*
Y01875D01*
X00725Y019D01*
X00425D01*
X004Y01925D01*
Y0265D01*
X00425Y02675D01*
X033D01*
X03325Y0265D01*
D02*
G37*
%LPC*%
G36*
X012511Y026395D02*
X012166D01*
Y02605D01*
X012511D01*
Y026395D01*
D02*
G37*
G36*
X005261D02*
X004916D01*
Y02605D01*
X005261D01*
Y026395D01*
D02*
G37*
G36*
X019761D02*
X019416D01*
Y02605D01*
X019761D01*
Y026395D01*
D02*
G37*
G36*
X027011D02*
X026666D01*
Y02605D01*
X027011D01*
Y026395D01*
D02*
G37*
G36*
X028834D02*
X028044D01*
Y026064D01*
X028027Y026021D01*
X027994Y026021D01*
X0278D01*
Y025744D01*
Y025467D01*
X028027D01*
Y025562D01*
X028044Y025605D01*
X028077Y025605D01*
X028322D01*
Y024324D01*
X027029Y023032D01*
X026991Y022974D01*
X026977Y022906D01*
Y022366D01*
X026829D01*
Y021634D01*
X027468D01*
X027482Y021634D01*
X027518D01*
X027532Y021634D01*
X027817D01*
Y021509D01*
X027822Y021488D01*
Y021324D01*
X027676Y021178D01*
X024031D01*
X024014Y021228D01*
X024074Y021274D01*
X024147Y021369D01*
X024193Y02148D01*
X024202Y021548D01*
X023298D01*
X023307Y02148D01*
X023353Y021369D01*
X023426Y021274D01*
X023486Y021228D01*
X023469Y021178D01*
X0232D01*
X023173Y021228D01*
X023193Y021259D01*
X023208Y021333D01*
Y021864D01*
X023193Y021938D01*
X023152Y022D01*
X023089Y022042D01*
X023016Y022056D01*
X022484D01*
X022411Y022042D01*
X02236Y022008D01*
X022245D01*
X022126Y022126D01*
X022068Y022165D01*
X022Y022178D01*
X021004D01*
Y022366D01*
X020365D01*
X020351Y022366D01*
X020315D01*
X020301Y022366D01*
X020167D01*
Y022915D01*
X021376Y024124D01*
X021415Y024182D01*
X021428Y02425D01*
X021428Y02425D01*
Y025605D01*
X021584D01*
Y026395D01*
X020794D01*
Y026064D01*
X020777Y026021D01*
X020744Y026021D01*
X02055D01*
Y025744D01*
Y025467D01*
X020777D01*
Y025562D01*
X020794Y025605D01*
X020827Y025605D01*
X021072D01*
Y024324D01*
X019863Y023115D01*
X019824Y023057D01*
X01981Y022989D01*
Y022366D01*
X019662D01*
Y021656D01*
X019662Y021634D01*
X019624Y021606D01*
X018928D01*
X018928Y021606D01*
X01886Y021593D01*
X018802Y021554D01*
X018802Y021554D01*
X017874Y020626D01*
X017835Y020568D01*
X017822Y0205D01*
Y020458D01*
X017734D01*
X017661Y020443D01*
X017598Y020402D01*
X017557Y020339D01*
X017542Y020266D01*
Y019734D01*
X017557Y019661D01*
X017598Y019598D01*
X017661Y019557D01*
X017734Y019542D01*
X018266D01*
X018339Y019557D01*
X018402Y019598D01*
X018443Y019661D01*
X018458Y019734D01*
Y020266D01*
X018443Y020339D01*
X018402Y020402D01*
X018339Y020443D01*
X018279Y020455D01*
X018255Y020503D01*
X019002Y021249D01*
X020428D01*
X020496Y021263D01*
X020554Y021302D01*
X020653Y0214D01*
X020653Y0214D01*
X020691Y021458D01*
X020705Y021526D01*
X020705Y021526D01*
Y021634D01*
X021004D01*
Y021822D01*
X021926D01*
X022044Y021703D01*
X022044Y021703D01*
X022102Y021664D01*
X022171Y021651D01*
X022292D01*
Y021333D01*
X022307Y021259D01*
X022327Y021228D01*
X0223Y021178D01*
X02D01*
X02Y021178D01*
X019932Y021165D01*
X019874Y021126D01*
X019874Y021126D01*
X019169Y020422D01*
X019119Y020443D01*
X019Y020458D01*
X018881Y020443D01*
X018771Y020397D01*
X018676Y020324D01*
X018603Y020229D01*
X018557Y020119D01*
X018542Y02D01*
X018557Y019881D01*
X018603Y019771D01*
X018676Y019676D01*
X018771Y019603D01*
X018881Y019557D01*
X019Y019542D01*
X019119Y019557D01*
X019229Y019603D01*
X019324Y019676D01*
X019397Y019771D01*
X019443Y019881D01*
X019458Y02D01*
X019443Y020119D01*
X019422Y020169D01*
X020074Y020822D01*
X020504D01*
X020523Y020775D01*
X020169Y020422D01*
X020119Y020443D01*
X02Y020458D01*
X019881Y020443D01*
X019771Y020397D01*
X019676Y020324D01*
X019603Y020229D01*
X019557Y020119D01*
X019542Y02D01*
X019557Y019881D01*
X019603Y019771D01*
X019676Y019676D01*
X019771Y019603D01*
X019881Y019557D01*
X02Y019542D01*
X020119Y019557D01*
X020229Y019603D01*
X020324Y019676D01*
X020397Y019771D01*
X020443Y019881D01*
X020458Y02D01*
X020443Y020119D01*
X020422Y020169D01*
X020824Y020572D01*
X027176D01*
X029477Y018271D01*
Y017866D01*
X029329D01*
Y017678D01*
X029D01*
X029Y017678D01*
X028932Y017665D01*
X028874Y017626D01*
X028874Y017626D01*
X027936Y016688D01*
X027897Y01663D01*
X027884Y016562D01*
Y016188D01*
X027897Y01612D01*
X02792Y016086D01*
Y015958D01*
X027833D01*
X027759Y015943D01*
X027697Y015902D01*
X027655Y015839D01*
X02764Y015766D01*
Y015234D01*
X027655Y015161D01*
X027697Y015098D01*
X027759Y015057D01*
X027833Y015042D01*
X028364D01*
X028438Y015057D01*
X0285Y015098D01*
X028542Y015161D01*
X028556Y015234D01*
Y015766D01*
X028542Y015839D01*
X0285Y015902D01*
X028438Y015943D01*
X028364Y015958D01*
X028277D01*
Y016152D01*
X028263Y01622D01*
X028241Y016254D01*
Y016488D01*
X029074Y017322D01*
X029329D01*
Y017134D01*
X029968D01*
X029982Y017134D01*
X030018D01*
X030032Y017134D01*
X030671D01*
Y017322D01*
X031426D01*
X031624Y017124D01*
X031624Y017124D01*
X031682Y017085D01*
X03175Y017072D01*
X032105D01*
Y016916D01*
X032895D01*
Y017706D01*
X032564D01*
X032521Y017723D01*
X032521Y017756D01*
Y01795D01*
X031967D01*
Y017723D01*
X032062D01*
X032105Y017706D01*
X032105Y017673D01*
Y017428D01*
X031824D01*
X031626Y017626D01*
X031568Y017665D01*
X0315Y017678D01*
X030671D01*
Y017866D01*
X030032D01*
X030018Y017866D01*
X029982D01*
X029968Y017866D01*
X029834D01*
Y018344D01*
X029834Y018344D01*
X02982Y018413D01*
X029782Y018471D01*
X029782Y018471D01*
X027477Y020775D01*
X027496Y020822D01*
X02775D01*
X027818Y020835D01*
X027876Y020874D01*
X028126Y021124D01*
X028126Y021124D01*
X028165Y021182D01*
X028178Y02125D01*
Y021505D01*
X028174Y021526D01*
Y021822D01*
X028426D01*
X028775Y021472D01*
X028833Y021434D01*
X028902Y02142D01*
X028902Y02142D01*
X029542D01*
Y021333D01*
X029557Y021259D01*
X029598Y021197D01*
X029661Y021155D01*
X029734Y02114D01*
X030266D01*
X030339Y021155D01*
X030402Y021197D01*
X030443Y021259D01*
X030458Y021333D01*
Y021864D01*
X030443Y021938D01*
X030402Y022D01*
X030339Y022042D01*
X030266Y022056D01*
X029734D01*
X029661Y022042D01*
X029598Y022D01*
X029557Y021938D01*
X029542Y021864D01*
Y021777D01*
X028975D01*
X028626Y022126D01*
X028568Y022165D01*
X0285Y022178D01*
X028171D01*
Y022366D01*
X027532D01*
X027518Y022366D01*
X027482D01*
X027468Y022366D01*
X027334D01*
Y022832D01*
X028626Y024124D01*
X028665Y024182D01*
X028678Y02425D01*
X028678Y02425D01*
Y025605D01*
X028834D01*
Y026395D01*
D02*
G37*
G36*
X014334D02*
X013544D01*
Y026064D01*
X013527Y026021D01*
X013494Y026021D01*
X0133D01*
Y025744D01*
Y025467D01*
X013527D01*
Y025562D01*
X013544Y025605D01*
X013577Y025605D01*
X013822D01*
Y024074D01*
X012696Y022948D01*
X012657Y02289D01*
X012644Y022822D01*
Y022366D01*
X012496D01*
Y021634D01*
X013135D01*
X013149Y021634D01*
X013185D01*
X013199Y021634D01*
X013838D01*
Y021822D01*
X014176D01*
X014525Y021472D01*
X014583Y021434D01*
X014652Y02142D01*
X014652Y02142D01*
X015042D01*
Y021333D01*
X015057Y021259D01*
X015098Y021197D01*
X015161Y021155D01*
X015234Y02114D01*
X015552D01*
Y021019D01*
X015566Y020951D01*
X015605Y020893D01*
X0161Y020398D01*
X016097Y02034D01*
X016076Y020324D01*
X016003Y020229D01*
X015957Y020119D01*
X015942Y02D01*
X015957Y019881D01*
X016003Y019771D01*
X016076Y019676D01*
X016171Y019603D01*
X016281Y019557D01*
X0164Y019542D01*
X016519Y019557D01*
X016629Y019603D01*
X016724Y019676D01*
X016797Y019771D01*
X016843Y019881D01*
X016858Y02D01*
X016843Y020119D01*
X016797Y020229D01*
X016724Y020324D01*
X016629Y020397D01*
X016519Y020443D01*
X016472Y020449D01*
Y020457D01*
X016458Y020525D01*
X016419Y020583D01*
X016419Y020583D01*
X015909Y021093D01*
Y021208D01*
X015943Y021259D01*
X015958Y021333D01*
Y021864D01*
X015943Y021938D01*
X015902Y022D01*
X015839Y022042D01*
X015766Y022056D01*
X015234D01*
X015161Y022042D01*
X015098Y022D01*
X015057Y021938D01*
X015042Y021864D01*
Y021777D01*
X014725D01*
X014376Y022126D01*
X014318Y022165D01*
X01425Y022178D01*
X013838D01*
Y022366D01*
X013199D01*
X013185Y022366D01*
X013149D01*
X013135Y022366D01*
X013001D01*
Y022748D01*
X014126Y023874D01*
X014165Y023932D01*
X014178Y024D01*
X014178Y024D01*
Y025605D01*
X014334D01*
Y026395D01*
D02*
G37*
G36*
X007084D02*
X006294D01*
Y026064D01*
X006277Y026021D01*
X006244Y026021D01*
X00605D01*
Y025744D01*
Y025467D01*
X006277D01*
Y025562D01*
X006294Y025605D01*
X006327Y025605D01*
X006572D01*
Y025074D01*
X005529Y024032D01*
X005491Y023974D01*
X005477Y023906D01*
Y022366D01*
X005329D01*
Y021634D01*
X005968D01*
X005982Y021634D01*
X006018D01*
X006032Y021634D01*
X006671D01*
Y021822D01*
X007176D01*
X007335Y021663D01*
X007393Y021624D01*
X007461Y021611D01*
X007461Y021611D01*
X007792D01*
Y021333D01*
X007807Y021259D01*
X007848Y021197D01*
X007911Y021155D01*
X007984Y02114D01*
X008072D01*
Y021D01*
X008085Y020932D01*
X008124Y020874D01*
X008374Y020624D01*
X008374Y020624D01*
X008432Y020585D01*
X0085Y020572D01*
X015176D01*
X015222Y020526D01*
Y020418D01*
X015171Y020397D01*
X015076Y020324D01*
X015003Y020229D01*
X014957Y020119D01*
X014942Y02D01*
X014957Y019881D01*
X015003Y019771D01*
X015076Y019676D01*
X015171Y019603D01*
X015281Y019557D01*
X0154Y019542D01*
X015519Y019557D01*
X015629Y019603D01*
X015724Y019676D01*
X015797Y019771D01*
X015843Y019881D01*
X015858Y02D01*
X015843Y020119D01*
X015797Y020229D01*
X015724Y020324D01*
X015629Y020397D01*
X015578Y020418D01*
Y0206D01*
X015565Y020668D01*
X015526Y020726D01*
X015376Y020876D01*
X015318Y020915D01*
X01525Y020928D01*
X008574D01*
X008428Y021074D01*
Y02114D01*
X008516D01*
X008589Y021155D01*
X008652Y021197D01*
X008693Y021259D01*
X008708Y021333D01*
Y021864D01*
X008693Y021938D01*
X008652Y022D01*
X008589Y022042D01*
X008516Y022056D01*
X007984D01*
X007911Y022042D01*
X007848Y022D01*
X007827Y021968D01*
X007535D01*
X007376Y022126D01*
X007318Y022165D01*
X00725Y022178D01*
X006671D01*
Y022366D01*
X006032D01*
X006018Y022366D01*
X005982D01*
X005968Y022366D01*
X005834D01*
Y023832D01*
X006876Y024874D01*
X006876Y024874D01*
X006915Y024932D01*
X006928Y025D01*
X006928Y025D01*
Y025605D01*
X007084D01*
Y026395D01*
D02*
G37*
G36*
X012511Y02595D02*
X012166D01*
Y025605D01*
X012511D01*
Y02595D01*
D02*
G37*
G36*
X005261D02*
X004916D01*
Y025605D01*
X005261D01*
Y02595D01*
D02*
G37*
G36*
X019761D02*
X019416D01*
Y025605D01*
X019761D01*
Y02595D01*
D02*
G37*
G36*
X027011D02*
X026666D01*
Y025605D01*
X027011D01*
Y02595D01*
D02*
G37*
G36*
X027456Y026395D02*
X027111D01*
Y026D01*
Y025605D01*
X027423D01*
X027456Y025605D01*
X027473Y025562D01*
Y025467D01*
X0277D01*
Y025744D01*
Y026021D01*
X027473Y026021D01*
X027456Y026064D01*
Y026395D01*
D02*
G37*
G36*
X020206D02*
X019861D01*
Y026D01*
Y025605D01*
X020173D01*
X020206Y025605D01*
X020223Y025562D01*
Y025467D01*
X02045D01*
Y025744D01*
Y026021D01*
X020223Y026021D01*
X020206Y026064D01*
Y026395D01*
D02*
G37*
G36*
X012956D02*
X012611D01*
Y026D01*
Y025605D01*
X012923D01*
X012956Y025605D01*
X012973Y025562D01*
Y025467D01*
X0132D01*
Y025744D01*
Y026021D01*
X012973Y026021D01*
X012956Y026064D01*
Y026395D01*
D02*
G37*
G36*
X005706D02*
X005361D01*
Y026D01*
Y025605D01*
X005673D01*
X005706Y025605D01*
X005723Y025562D01*
Y025467D01*
X00595D01*
Y025744D01*
Y026021D01*
X005723Y026021D01*
X005706Y026064D01*
Y026395D01*
D02*
G37*
G36*
X03105Y02205D02*
Y021648D01*
X031452D01*
X031443Y021717D01*
X031397Y021828D01*
X031324Y021922D01*
X031229Y021995D01*
X031119Y022041D01*
X03105Y02205D01*
D02*
G37*
G36*
X03095D02*
X030881Y022041D01*
X030771Y021995D01*
X030676Y021922D01*
X030603Y021828D01*
X030557Y021717D01*
X030548Y021648D01*
X03095D01*
Y02205D01*
D02*
G37*
G36*
X0238D02*
Y021648D01*
X024202D01*
X024193Y021717D01*
X024147Y021828D01*
X024074Y021922D01*
X023979Y021995D01*
X023869Y022041D01*
X0238Y02205D01*
D02*
G37*
G36*
X0237D02*
X023631Y022041D01*
X023521Y021995D01*
X023426Y021922D01*
X023353Y021828D01*
X023307Y021717D01*
X023298Y021648D01*
X0237D01*
Y02205D01*
D02*
G37*
G36*
X01655D02*
Y021648D01*
X016952D01*
X016943Y021717D01*
X016897Y021828D01*
X016824Y021922D01*
X016729Y021995D01*
X016619Y022041D01*
X01655Y02205D01*
D02*
G37*
G36*
X01645D02*
X016381Y022041D01*
X016271Y021995D01*
X016176Y021922D01*
X016103Y021828D01*
X016057Y021717D01*
X016048Y021648D01*
X01645D01*
Y02205D01*
D02*
G37*
G36*
X0093D02*
Y021648D01*
X009702D01*
X009693Y021717D01*
X009647Y021828D01*
X009574Y021922D01*
X009479Y021995D01*
X009369Y022041D01*
X0093Y02205D01*
D02*
G37*
G36*
X0092D02*
X009131Y022041D01*
X009021Y021995D01*
X008926Y021922D01*
X008853Y021828D01*
X008807Y021717D01*
X008798Y021648D01*
X0092D01*
Y02205D01*
D02*
G37*
G36*
X031452Y021548D02*
X03105D01*
Y021147D01*
X031119Y021156D01*
X031229Y021202D01*
X031324Y021274D01*
X031397Y021369D01*
X031443Y02148D01*
X031452Y021548D01*
D02*
G37*
G36*
X03095D02*
X030548D01*
X030557Y02148D01*
X030603Y021369D01*
X030676Y021274D01*
X030771Y021202D01*
X030881Y021156D01*
X03095Y021147D01*
Y021548D01*
D02*
G37*
G36*
X016952D02*
X01655D01*
Y021147D01*
X016619Y021156D01*
X016729Y021202D01*
X016824Y021274D01*
X016897Y021369D01*
X016943Y02148D01*
X016952Y021548D01*
D02*
G37*
G36*
X01645D02*
X016048D01*
X016057Y02148D01*
X016103Y021369D01*
X016176Y021274D01*
X016271Y021202D01*
X016381Y021156D01*
X01645Y021147D01*
Y021548D01*
D02*
G37*
G36*
X009702D02*
X0093D01*
Y021147D01*
X009369Y021156D01*
X009479Y021202D01*
X009574Y021274D01*
X009647Y021369D01*
X009693Y02148D01*
X009702Y021548D01*
D02*
G37*
G36*
X0092D02*
X008798D01*
X008807Y02148D01*
X008853Y021369D01*
X008926Y021274D01*
X009021Y021202D01*
X009131Y021156D01*
X0092Y021147D01*
Y021548D01*
D02*
G37*
G36*
X01045Y020452D02*
Y02005D01*
X010852D01*
X010843Y020119D01*
X010797Y020229D01*
X010724Y020324D01*
X010629Y020397D01*
X010519Y020443D01*
X01045Y020452D01*
D02*
G37*
G36*
X01035D02*
X010281Y020443D01*
X010171Y020397D01*
X010076Y020324D01*
X010003Y020229D01*
X009957Y020119D01*
X009948Y02005D01*
X01035D01*
Y020452D01*
D02*
G37*
G36*
X010852Y01995D02*
X01045D01*
Y019548D01*
X010519Y019557D01*
X010629Y019603D01*
X010724Y019676D01*
X010797Y019771D01*
X010843Y019881D01*
X010852Y01995D01*
D02*
G37*
G36*
X01035D02*
X009948D01*
X009957Y019881D01*
X010003Y019771D01*
X010076Y019676D01*
X010171Y019603D01*
X010281Y019557D01*
X01035Y019548D01*
Y01995D01*
D02*
G37*
G36*
X007666Y020458D02*
X007134D01*
X007061Y020443D01*
X006998Y020402D01*
X006957Y020339D01*
X006942Y020266D01*
Y019734D01*
X006957Y019661D01*
X006998Y019598D01*
X007061Y019557D01*
X007134Y019542D01*
X007666D01*
X007739Y019557D01*
X007802Y019598D01*
X007843Y019661D01*
X007858Y019734D01*
Y020266D01*
X007843Y020339D01*
X007802Y020402D01*
X007739Y020443D01*
X007666Y020458D01*
D02*
G37*
G36*
X025Y020458D02*
X024881Y020443D01*
X024771Y020397D01*
X024676Y020324D01*
X024603Y020229D01*
X024557Y020119D01*
X024542Y02D01*
X024557Y019881D01*
X024603Y019771D01*
X024676Y019676D01*
X024771Y019603D01*
X024881Y019557D01*
X025Y019542D01*
X025119Y019557D01*
X025229Y019603D01*
X025324Y019676D01*
X025397Y019771D01*
X025443Y019881D01*
X025458Y02D01*
X025443Y020119D01*
X025397Y020229D01*
X025324Y020324D01*
X025229Y020397D01*
X025119Y020443D01*
X025Y020458D01*
D02*
G37*
G36*
X024D02*
X023881Y020443D01*
X023771Y020397D01*
X023676Y020324D01*
X023603Y020229D01*
X023557Y020119D01*
X023542Y02D01*
X023557Y019881D01*
X023603Y019771D01*
X023676Y019676D01*
X023771Y019603D01*
X023881Y019557D01*
X024Y019542D01*
X024119Y019557D01*
X024229Y019603D01*
X024324Y019676D01*
X024397Y019771D01*
X024443Y019881D01*
X024458Y02D01*
X024443Y020119D01*
X024397Y020229D01*
X024324Y020324D01*
X024229Y020397D01*
X024119Y020443D01*
X024Y020458D01*
D02*
G37*
G36*
X023D02*
X022881Y020443D01*
X022771Y020397D01*
X022676Y020324D01*
X022603Y020229D01*
X022557Y020119D01*
X022542Y02D01*
X022557Y019881D01*
X022603Y019771D01*
X022676Y019676D01*
X022771Y019603D01*
X022881Y019557D01*
X023Y019542D01*
X023119Y019557D01*
X023229Y019603D01*
X023324Y019676D01*
X023397Y019771D01*
X023443Y019881D01*
X023458Y02D01*
X023443Y020119D01*
X023397Y020229D01*
X023324Y020324D01*
X023229Y020397D01*
X023119Y020443D01*
X023Y020458D01*
D02*
G37*
G36*
X022D02*
X021881Y020443D01*
X021771Y020397D01*
X021676Y020324D01*
X021603Y020229D01*
X021557Y020119D01*
X021542Y02D01*
X021557Y019881D01*
X021603Y019771D01*
X021676Y019676D01*
X021771Y019603D01*
X021881Y019557D01*
X022Y019542D01*
X022119Y019557D01*
X022229Y019603D01*
X022324Y019676D01*
X022397Y019771D01*
X022443Y019881D01*
X022458Y02D01*
X022443Y020119D01*
X022397Y020229D01*
X022324Y020324D01*
X022229Y020397D01*
X022119Y020443D01*
X022Y020458D01*
D02*
G37*
G36*
X0144D02*
X014281Y020443D01*
X014171Y020397D01*
X014076Y020324D01*
X014003Y020229D01*
X013957Y020119D01*
X013942Y02D01*
X013957Y019881D01*
X014003Y019771D01*
X014076Y019676D01*
X014171Y019603D01*
X014281Y019557D01*
X0144Y019542D01*
X014519Y019557D01*
X014629Y019603D01*
X014724Y019676D01*
X014797Y019771D01*
X014843Y019881D01*
X014858Y02D01*
X014843Y020119D01*
X014797Y020229D01*
X014724Y020324D01*
X014629Y020397D01*
X014519Y020443D01*
X0144Y020458D01*
D02*
G37*
G36*
X0134D02*
X013281Y020443D01*
X013171Y020397D01*
X013076Y020324D01*
X013003Y020229D01*
X012957Y020119D01*
X012942Y02D01*
X012957Y019881D01*
X013003Y019771D01*
X013076Y019676D01*
X013171Y019603D01*
X013281Y019557D01*
X0134Y019542D01*
X013519Y019557D01*
X013629Y019603D01*
X013724Y019676D01*
X013797Y019771D01*
X013843Y019881D01*
X013858Y02D01*
X013843Y020119D01*
X013797Y020229D01*
X013724Y020324D01*
X013629Y020397D01*
X013519Y020443D01*
X0134Y020458D01*
D02*
G37*
G36*
X0124D02*
X012281Y020443D01*
X012171Y020397D01*
X012076Y020324D01*
X012003Y020229D01*
X011957Y020119D01*
X011942Y02D01*
X011957Y019881D01*
X012003Y019771D01*
X012076Y019676D01*
X012171Y019603D01*
X012281Y019557D01*
X0124Y019542D01*
X012519Y019557D01*
X012629Y019603D01*
X012724Y019676D01*
X012797Y019771D01*
X012843Y019881D01*
X012858Y02D01*
X012843Y020119D01*
X012797Y020229D01*
X012724Y020324D01*
X012629Y020397D01*
X012519Y020443D01*
X0124Y020458D01*
D02*
G37*
G36*
X0114D02*
X011281Y020443D01*
X011171Y020397D01*
X011076Y020324D01*
X011003Y020229D01*
X010957Y020119D01*
X010942Y02D01*
X010957Y019881D01*
X011003Y019771D01*
X011076Y019676D01*
X011171Y019603D01*
X011281Y019557D01*
X0114Y019542D01*
X011519Y019557D01*
X011629Y019603D01*
X011724Y019676D01*
X011797Y019771D01*
X011843Y019881D01*
X011858Y02D01*
X011843Y020119D01*
X011797Y020229D01*
X011724Y020324D01*
X011629Y020397D01*
X011519Y020443D01*
X0114Y020458D01*
D02*
G37*
G36*
X0094D02*
X009281Y020443D01*
X009171Y020397D01*
X009076Y020324D01*
X009003Y020229D01*
X008957Y020119D01*
X008942Y02D01*
X008957Y019881D01*
X009003Y019771D01*
X009076Y019676D01*
X009171Y019603D01*
X009281Y019557D01*
X0094Y019542D01*
X009519Y019557D01*
X009629Y019603D01*
X009724Y019676D01*
X009797Y019771D01*
X009843Y019881D01*
X009858Y02D01*
X009843Y020119D01*
X009797Y020229D01*
X009724Y020324D01*
X009629Y020397D01*
X009519Y020443D01*
X0094Y020458D01*
D02*
G37*
G36*
X0084D02*
X008281Y020443D01*
X008171Y020397D01*
X008076Y020324D01*
X008003Y020229D01*
X007957Y020119D01*
X007942Y02D01*
X007957Y019881D01*
X008003Y019771D01*
X008076Y019676D01*
X008171Y019603D01*
X008281Y019557D01*
X0084Y019542D01*
X008519Y019557D01*
X008629Y019603D01*
X008724Y019676D01*
X008797Y019771D01*
X008843Y019881D01*
X008858Y02D01*
X008843Y020119D01*
X008797Y020229D01*
X008724Y020324D01*
X008629Y020397D01*
X008519Y020443D01*
X0084Y020458D01*
D02*
G37*
G36*
X032895Y019084D02*
X03255D01*
Y018739D01*
X032895D01*
Y019084D01*
D02*
G37*
G36*
X03245D02*
X032105D01*
Y018739D01*
X03245D01*
Y019084D01*
D02*
G37*
G36*
X032895Y018639D02*
X032105D01*
Y018327D01*
X032105Y018294D01*
X032062Y018277D01*
X031967D01*
Y01805D01*
X032521D01*
X032521Y018277D01*
X032564Y018294D01*
X032895D01*
Y018639D01*
D02*
G37*
G36*
X0133Y017952D02*
Y01755D01*
X013702D01*
X013693Y017619D01*
X013647Y017729D01*
X013574Y017824D01*
X013479Y017897D01*
X013369Y017943D01*
X0133Y017952D01*
D02*
G37*
G36*
X0132D02*
X013131Y017943D01*
X013021Y017897D01*
X012926Y017824D01*
X012853Y017729D01*
X012807Y017619D01*
X012798Y01755D01*
X0132D01*
Y017952D01*
D02*
G37*
G36*
X021Y020458D02*
X020881Y020443D01*
X020771Y020397D01*
X020676Y020324D01*
X020603Y020229D01*
X020557Y020119D01*
X020542Y02D01*
X020557Y019881D01*
X020603Y019771D01*
X020676Y019676D01*
X020771Y019603D01*
X020881Y019557D01*
X021Y019542D01*
X021119Y019557D01*
X021169Y019578D01*
X023523Y017225D01*
X023504Y017178D01*
X023074D01*
X022341Y017911D01*
X022353Y018D01*
X022341Y018091D01*
X022306Y018177D01*
X02225Y01825D01*
X022177Y018306D01*
X022091Y018341D01*
X022Y018353D01*
X021909Y018341D01*
X021823Y018306D01*
X02175Y01825D01*
X021694Y018177D01*
X021659Y018091D01*
X021647Y018D01*
X021659Y017909D01*
X021694Y017823D01*
X02175Y01775D01*
X021823Y017694D01*
X021909Y017659D01*
X022Y017647D01*
X022089Y017659D01*
X022874Y016874D01*
X022874Y016874D01*
X022932Y016835D01*
X023Y016822D01*
X023Y016822D01*
X026676D01*
X026822Y016676D01*
Y0065D01*
X026835Y006432D01*
X026874Y006374D01*
X027933Y005315D01*
X027933Y005315D01*
X027991Y005276D01*
X028059Y005262D01*
X028059Y005262D01*
X029286D01*
X029301Y005212D01*
X029261Y005185D01*
X027943Y003868D01*
X027904Y00381D01*
X027891Y003741D01*
Y003708D01*
X027734D01*
X027661Y003693D01*
X027598Y003652D01*
X027557Y003589D01*
X027542Y003516D01*
Y002984D01*
X027557Y002911D01*
X027598Y002848D01*
X027661Y002807D01*
X027734Y002792D01*
X028266D01*
X028339Y002807D01*
X028402Y002848D01*
X028443Y002911D01*
X028458Y002984D01*
Y003516D01*
X028443Y003589D01*
X028402Y003652D01*
X028342Y003691D01*
X028335Y0037D01*
X028322Y003742D01*
X029461Y004881D01*
X029504D01*
X029521Y004884D01*
X029968D01*
X029982Y004884D01*
X030018D01*
X030032Y004884D01*
X030458D01*
X030468Y004874D01*
X030526Y004835D01*
X030594Y004822D01*
X030594Y004822D01*
X030926D01*
X031063Y004685D01*
X031063Y004685D01*
X031121Y004646D01*
X031189Y004633D01*
X032105D01*
Y004416D01*
X032895D01*
Y005206D01*
X032564D01*
X032521Y005223D01*
X032521Y005256D01*
Y00545D01*
X031967D01*
Y005223D01*
X032062D01*
X032105Y005206D01*
X032105Y005173D01*
Y004989D01*
X031263D01*
X031126Y005126D01*
X031068Y005165D01*
X031Y005178D01*
X030671D01*
Y005616D01*
X030032D01*
X030018Y005616D01*
X029982D01*
X029968Y005616D01*
X029521D01*
X029504Y005619D01*
X028133D01*
X027178Y006574D01*
Y012754D01*
X027225Y012773D01*
X028748Y01125D01*
X027874Y010376D01*
X027835Y010318D01*
X027822Y01025D01*
Y009708D01*
X027734D01*
X027661Y009693D01*
X027598Y009652D01*
X027557Y009589D01*
X027542Y009516D01*
Y008984D01*
X027557Y008911D01*
X027598Y008848D01*
X027661Y008807D01*
X027734Y008792D01*
X028266D01*
X028339Y008807D01*
X028402Y008848D01*
X028443Y008911D01*
X028458Y008984D01*
Y009516D01*
X028443Y009589D01*
X028402Y009652D01*
X028339Y009693D01*
X028266Y009708D01*
X028178D01*
Y010176D01*
X029074Y011072D01*
X029579D01*
Y010884D01*
X030218D01*
X030232Y010884D01*
X030268D01*
X030282Y010884D01*
X030921D01*
Y011072D01*
X031426D01*
X031624Y010874D01*
X031624Y010874D01*
X031682Y010835D01*
X03175Y010822D01*
X032105D01*
Y010666D01*
X032895D01*
Y011456D01*
X032564D01*
X032521Y011473D01*
X032521Y011506D01*
Y0117D01*
X031967D01*
Y011473D01*
X032062D01*
X032105Y011456D01*
X032105Y011423D01*
Y011178D01*
X031824D01*
X031626Y011376D01*
X031568Y011415D01*
X0315Y011428D01*
X030921D01*
Y011616D01*
X030282D01*
X030268Y011616D01*
X030232D01*
X030218Y011616D01*
X029579D01*
Y011428D01*
X029074D01*
X027428Y013074D01*
Y017D01*
X027415Y017068D01*
X027376Y017126D01*
X027376Y017126D01*
X027126Y017376D01*
X027068Y017415D01*
X027Y017428D01*
X023824D01*
X021422Y019831D01*
X021443Y019881D01*
X021458Y02D01*
X021443Y020119D01*
X021397Y020229D01*
X021324Y020324D01*
X021229Y020397D01*
X021119Y020443D01*
X021Y020458D01*
D02*
G37*
G36*
X013702Y01745D02*
X0133D01*
Y017048D01*
X013369Y017057D01*
X013479Y017103D01*
X013574Y017176D01*
X013647Y017271D01*
X013693Y017381D01*
X013702Y01745D01*
D02*
G37*
G36*
X0132D02*
X012798D01*
X012807Y017381D01*
X012853Y017271D01*
X012926Y017176D01*
X013021Y017103D01*
X013131Y017057D01*
X0132Y017048D01*
Y01745D01*
D02*
G37*
G36*
X01564Y017132D02*
X015398D01*
Y016924D01*
X01564D01*
Y017132D01*
D02*
G37*
G36*
X015298D02*
X015057D01*
Y016924D01*
X015298D01*
Y017132D01*
D02*
G37*
G36*
X01564Y016824D02*
X015398D01*
Y016616D01*
X01564D01*
Y016824D01*
D02*
G37*
G36*
X015298D02*
X015057D01*
Y016616D01*
X015298D01*
Y016824D01*
D02*
G37*
G36*
X022Y017103D02*
X021909Y017091D01*
X021823Y017056D01*
X02175Y017D01*
X021694Y016927D01*
X021659Y016841D01*
X021647Y01675D01*
X021659Y016661D01*
X018176Y013178D01*
X015074D01*
X014834Y013418D01*
Y013884D01*
X014968D01*
X014982Y013884D01*
X015018D01*
X015032Y013884D01*
X015671D01*
Y014616D01*
X015527D01*
Y015868D01*
X01564D01*
Y016384D01*
X015057D01*
Y015868D01*
X01517D01*
Y014616D01*
X015032D01*
X015018Y014616D01*
X014982D01*
X014968Y014616D01*
X014329D01*
Y014428D01*
X014D01*
X013932Y014415D01*
X013874Y014376D01*
X013176Y013678D01*
X011171D01*
Y013866D01*
X010532D01*
X010518Y013866D01*
X010482D01*
X010468Y013866D01*
X009829D01*
Y013744D01*
X009779Y013723D01*
X009437Y014065D01*
X009379Y014104D01*
X009311Y014117D01*
X009145D01*
Y014334D01*
X008355D01*
Y013544D01*
X008686D01*
X008729Y013527D01*
X008729Y013494D01*
Y0133D01*
X009006D01*
X009283D01*
Y013527D01*
X009188D01*
X009145Y013544D01*
X009145Y013577D01*
Y013761D01*
X009237D01*
X009624Y013374D01*
X009682Y013335D01*
X00975Y013322D01*
X00975Y013322D01*
X009829D01*
Y013134D01*
X010468D01*
X010482Y013134D01*
X010518D01*
X010532Y013134D01*
X011171D01*
Y013322D01*
X01325D01*
X013318Y013335D01*
X013376Y013374D01*
X014074Y014072D01*
X014329D01*
Y013884D01*
X014477D01*
Y013344D01*
X014491Y013276D01*
X014529Y013218D01*
X014874Y012874D01*
X014874Y012874D01*
X014932Y012835D01*
X015Y012822D01*
X015Y012822D01*
X01825D01*
X018318Y012835D01*
X018376Y012874D01*
X021911Y016409D01*
X022Y016397D01*
X022091Y016409D01*
X022177Y016444D01*
X02225Y0165D01*
X022306Y016573D01*
X022341Y016659D01*
X022353Y01675D01*
X022341Y016841D01*
X022306Y016927D01*
X02225Y017D01*
X022177Y017056D01*
X022091Y017091D01*
X022Y017103D01*
D02*
G37*
G36*
X01325Y016958D02*
X013131Y016943D01*
X013021Y016897D01*
X012926Y016824D01*
X012853Y016729D01*
X012807Y016619D01*
X012792Y0165D01*
X012807Y016381D01*
X012853Y016271D01*
X012926Y016176D01*
X013021Y016103D01*
X013131Y016057D01*
X01325Y016042D01*
X013369Y016057D01*
X013479Y016103D01*
X013574Y016176D01*
X013647Y016271D01*
X013668Y016322D01*
X01436D01*
Y016242D01*
X014943D01*
Y016758D01*
X01436D01*
Y016678D01*
X013668D01*
X013647Y016729D01*
X013574Y016824D01*
X013479Y016897D01*
X013369Y016943D01*
X01325Y016958D01*
D02*
G37*
G36*
X013516Y015958D02*
X012984D01*
X012911Y015943D01*
X012848Y015902D01*
X012807Y015839D01*
X012792Y015766D01*
Y015294D01*
X012176Y014678D01*
X012054D01*
X012Y01475D01*
X011927Y014806D01*
X011841Y014841D01*
X01175Y014853D01*
X011659Y014841D01*
X011573Y014806D01*
X0115Y01475D01*
X011444Y014677D01*
X011409Y014591D01*
X011397Y0145D01*
X011409Y014409D01*
X011444Y014323D01*
X0115Y01425D01*
X011573Y014194D01*
X011659Y014159D01*
X01175Y014147D01*
X011841Y014159D01*
X011927Y014194D01*
X012Y01425D01*
X012054Y014322D01*
X01225D01*
X012318Y014335D01*
X012376Y014374D01*
X013044Y015042D01*
X013516D01*
X013589Y015057D01*
X013652Y015098D01*
X013693Y015161D01*
X013708Y015234D01*
Y015766D01*
X013693Y015839D01*
X013652Y015902D01*
X013589Y015943D01*
X013516Y015958D01*
D02*
G37*
G36*
X028148Y014952D02*
Y01455D01*
X02855D01*
X028541Y014619D01*
X028495Y014729D01*
X028422Y014824D01*
X028328Y014897D01*
X028217Y014943D01*
X028148Y014952D01*
D02*
G37*
G36*
X028048Y014952D02*
X02798Y014943D01*
X027869Y014897D01*
X027774Y014824D01*
X027702Y014729D01*
X027656Y014619D01*
X027647Y01455D01*
X028048D01*
Y014952D01*
D02*
G37*
G36*
Y01445D02*
X027647D01*
X027656Y014381D01*
X027702Y014271D01*
X027774Y014176D01*
X027869Y014103D01*
X02798Y014057D01*
X028048Y014048D01*
Y01445D01*
D02*
G37*
G36*
X02855D02*
X028148D01*
Y014048D01*
X028217Y014057D01*
X028328Y014103D01*
X028422Y014176D01*
X028495Y014271D01*
X028541Y014381D01*
X02855Y01445D01*
D02*
G37*
G36*
X009283Y0132D02*
X009006D01*
X008729D01*
X008729Y012973D01*
X008686Y012956D01*
X008355D01*
Y012611D01*
X00875D01*
X009145D01*
Y012923D01*
X009145Y012956D01*
X009188Y012973D01*
X009283D01*
Y0132D01*
D02*
G37*
G36*
X032895Y012834D02*
X03255D01*
Y012489D01*
X032895D01*
Y012834D01*
D02*
G37*
G36*
X03245D02*
X032105D01*
Y012489D01*
X03245D01*
Y012834D01*
D02*
G37*
G36*
X009145Y012511D02*
X0088D01*
Y012166D01*
X009145D01*
Y012511D01*
D02*
G37*
G36*
X0087D02*
X008355D01*
Y012166D01*
X0087D01*
Y012511D01*
D02*
G37*
G36*
X032895Y012389D02*
X032105D01*
Y012077D01*
X032105Y012044D01*
X032062Y012027D01*
X031967D01*
Y0118D01*
X032521D01*
X032521Y012027D01*
X032564Y012044D01*
X032895D01*
Y012389D01*
D02*
G37*
G36*
X0093Y009952D02*
Y00955D01*
X009702D01*
X009693Y009619D01*
X009647Y009729D01*
X009574Y009824D01*
X009479Y009897D01*
X009369Y009943D01*
X0093Y009952D01*
D02*
G37*
G36*
X0092D02*
X009131Y009943D01*
X009021Y009897D01*
X008926Y009824D01*
X008853Y009729D01*
X008807Y009619D01*
X008798Y00955D01*
X0092D01*
Y009952D01*
D02*
G37*
G36*
X009702Y00945D02*
X0093D01*
Y009048D01*
X009369Y009057D01*
X009479Y009103D01*
X009574Y009176D01*
X009647Y009271D01*
X009693Y009381D01*
X009702Y00945D01*
D02*
G37*
G36*
X0092D02*
X008798D01*
X008807Y009381D01*
X008853Y009271D01*
X008926Y009176D01*
X009021Y009103D01*
X009131Y009057D01*
X0092Y009048D01*
Y00945D01*
D02*
G37*
G36*
X0093Y008952D02*
Y00855D01*
X009702D01*
X009693Y008619D01*
X009647Y008729D01*
X009574Y008824D01*
X009479Y008897D01*
X009369Y008943D01*
X0093Y008952D01*
D02*
G37*
G36*
X0092D02*
X009131Y008943D01*
X009021Y008897D01*
X008926Y008824D01*
X008853Y008729D01*
X008807Y008619D01*
X008798Y00855D01*
X0092D01*
Y008952D01*
D02*
G37*
G36*
X02805Y008702D02*
Y0083D01*
X028452D01*
X028443Y008369D01*
X028397Y008479D01*
X028324Y008574D01*
X028229Y008647D01*
X028119Y008693D01*
X02805Y008702D01*
D02*
G37*
G36*
X02795D02*
X027881Y008693D01*
X027771Y008647D01*
X027676Y008574D01*
X027603Y008479D01*
X027557Y008369D01*
X027548Y0083D01*
X02795D01*
Y008702D01*
D02*
G37*
G36*
X009702Y00845D02*
X0093D01*
Y008048D01*
X009369Y008057D01*
X009479Y008103D01*
X009574Y008176D01*
X009647Y008271D01*
X009693Y008381D01*
X009702Y00845D01*
D02*
G37*
G36*
X0092D02*
X008798D01*
X008807Y008381D01*
X008853Y008271D01*
X008926Y008176D01*
X009021Y008103D01*
X009131Y008057D01*
X0092Y008048D01*
Y00845D01*
D02*
G37*
G36*
X028452Y0082D02*
X02805D01*
Y007798D01*
X028119Y007807D01*
X028229Y007853D01*
X028324Y007926D01*
X028397Y008021D01*
X028443Y008131D01*
X028452Y0082D01*
D02*
G37*
G36*
X02795D02*
X027548D01*
X027557Y008131D01*
X027603Y008021D01*
X027676Y007926D01*
X027771Y007853D01*
X027881Y007807D01*
X02795Y007798D01*
Y0082D01*
D02*
G37*
G36*
X0093Y007952D02*
Y00755D01*
X009702D01*
X009693Y007619D01*
X009647Y007729D01*
X009574Y007824D01*
X009479Y007897D01*
X009369Y007943D01*
X0093Y007952D01*
D02*
G37*
G36*
X0092D02*
X009131Y007943D01*
X009021Y007897D01*
X008926Y007824D01*
X008853Y007729D01*
X008807Y007619D01*
X008798Y00755D01*
X0092D01*
Y007952D01*
D02*
G37*
G36*
X016832Y007793D02*
X0163D01*
Y007241D01*
X016832D01*
Y007793D01*
D02*
G37*
G36*
X0162D02*
X015668D01*
Y007241D01*
X0162D01*
Y007793D01*
D02*
G37*
G36*
X01425Y007793D02*
X01355D01*
Y007211D01*
X01425D01*
Y007793D01*
D02*
G37*
G36*
X01345D02*
X01275D01*
Y007211D01*
X01345D01*
Y007793D01*
D02*
G37*
G36*
X009702Y00745D02*
X0093D01*
Y007048D01*
X009369Y007057D01*
X009479Y007103D01*
X009574Y007176D01*
X009647Y007271D01*
X009693Y007381D01*
X009702Y00745D01*
D02*
G37*
G36*
X0092D02*
X008798D01*
X008807Y007381D01*
X008853Y007271D01*
X008926Y007176D01*
X009021Y007103D01*
X009131Y007057D01*
X0092Y007048D01*
Y00745D01*
D02*
G37*
G36*
X016832Y007141D02*
X0163D01*
Y006589D01*
X016832D01*
Y007141D01*
D02*
G37*
G36*
X0162D02*
X015668D01*
Y006589D01*
X0162D01*
Y007141D01*
D02*
G37*
G36*
X01425Y007111D02*
X01355D01*
Y00653D01*
X01425D01*
Y007111D01*
D02*
G37*
G36*
X01345D02*
X01275D01*
Y00653D01*
X01345D01*
Y007111D01*
D02*
G37*
G36*
X011876Y006671D02*
X01155D01*
Y006365D01*
X011876D01*
Y006671D01*
D02*
G37*
G36*
X01145D02*
X011124D01*
Y006365D01*
X01145D01*
Y006671D01*
D02*
G37*
G36*
X032895Y006584D02*
X03255D01*
Y006239D01*
X032895D01*
Y006584D01*
D02*
G37*
G36*
X03245D02*
X032105D01*
Y006239D01*
X03245D01*
Y006584D01*
D02*
G37*
G36*
X032895Y006139D02*
X032105D01*
Y005827D01*
X032105Y005794D01*
X032062Y005777D01*
X031967D01*
Y00555D01*
X032521D01*
X032521Y005777D01*
X032564Y005794D01*
X032895D01*
Y006139D01*
D02*
G37*
G36*
X013797Y00547D02*
X01355D01*
Y004889D01*
X013797D01*
Y00547D01*
D02*
G37*
G36*
X01345D02*
X013203D01*
Y004889D01*
X01345D01*
Y00547D01*
D02*
G37*
G36*
X013797Y004789D02*
X01355D01*
Y004207D01*
X013797D01*
Y004789D01*
D02*
G37*
G36*
X01345D02*
X013203D01*
Y004207D01*
X01345D01*
Y004789D01*
D02*
G37*
G36*
X009516Y006958D02*
X008984D01*
X008911Y006943D01*
X008848Y006902D01*
X008807Y006839D01*
X008792Y006766D01*
Y006234D01*
X008807Y006161D01*
X008848Y006098D01*
X008911Y006057D01*
X008984Y006042D01*
X009516D01*
X009589Y006057D01*
X009652Y006098D01*
X009693Y006161D01*
X009708Y006234D01*
Y006322D01*
X009926D01*
X010689Y005559D01*
X010689Y005559D01*
X010747Y00552D01*
X010815Y005507D01*
X011124D01*
Y005329D01*
X011322D01*
Y00525D01*
X011335Y005182D01*
X011374Y005124D01*
X011812Y004686D01*
X01187Y004647D01*
X011938Y004634D01*
X011938Y004634D01*
X012146D01*
X012214Y004647D01*
X012234Y00466D01*
X012298D01*
Y004207D01*
X012891D01*
Y00547D01*
X012298D01*
Y005017D01*
X012173D01*
X012104Y005003D01*
X012085Y004991D01*
X012012D01*
X011723Y005279D01*
X011744Y005329D01*
X011876D01*
Y005959D01*
Y006265D01*
X011124D01*
Y005959D01*
Y005863D01*
X010889D01*
X010126Y006626D01*
X010068Y006665D01*
X01Y006678D01*
X009708D01*
Y006766D01*
X009693Y006839D01*
X009652Y006902D01*
X009589Y006943D01*
X009516Y006958D01*
D02*
G37*
G36*
X014702Y00547D02*
X014109D01*
Y004207D01*
X014227D01*
Y003979D01*
X013676Y003428D01*
X011324D01*
X010126Y004626D01*
X010068Y004665D01*
X01Y004678D01*
X007421D01*
Y004866D01*
X006782D01*
X006768Y004866D01*
X006732D01*
X006718Y004866D01*
X006262D01*
X006254Y004867D01*
X005145D01*
Y005084D01*
X004355D01*
Y004294D01*
X004686D01*
X004729Y004277D01*
X004729Y004244D01*
Y00405D01*
X005006D01*
X005283D01*
Y004277D01*
X005188D01*
X005145Y004294D01*
X005145Y004327D01*
Y004511D01*
X006079D01*
Y004134D01*
X006718D01*
X006732Y004134D01*
X006768D01*
X006782Y004134D01*
X007421D01*
Y004322D01*
X009926D01*
X011124Y003124D01*
X011182Y003085D01*
X01125Y003072D01*
X01125Y003072D01*
X01375D01*
X013818Y003085D01*
X013876Y003124D01*
X014532Y003779D01*
X01457Y003837D01*
X014584Y003906D01*
X014584Y003906D01*
Y004207D01*
X014702D01*
Y00466D01*
X015668D01*
Y004207D01*
X016072D01*
Y00275D01*
X016085Y002682D01*
X016124Y002624D01*
X017578Y001169D01*
X017557Y001119D01*
X017542Y001D01*
X017557Y000881D01*
X017603Y000771D01*
X017676Y000676D01*
X017771Y000603D01*
X017881Y000557D01*
X018Y000542D01*
X018119Y000557D01*
X018229Y000603D01*
X018324Y000676D01*
X018397Y000771D01*
X018443Y000881D01*
X018458Y001D01*
X018443Y001119D01*
X018397Y001229D01*
X018324Y001324D01*
X018229Y001397D01*
X018119Y001443D01*
X018Y001458D01*
X017881Y001443D01*
X017831Y001422D01*
X016428Y002824D01*
Y004207D01*
X016832D01*
Y005411D01*
X015668D01*
Y005017D01*
X014702D01*
Y00547D01*
D02*
G37*
G36*
X005283Y00395D02*
X005006D01*
X004729D01*
X004729Y003723D01*
X004686Y003706D01*
X004355D01*
Y003361D01*
X00475D01*
X005145D01*
Y003673D01*
X005145Y003706D01*
X005188Y003723D01*
X005283D01*
Y00395D01*
D02*
G37*
G36*
X02455Y003702D02*
Y0033D01*
X024952D01*
X024943Y003369D01*
X024897Y003479D01*
X024824Y003574D01*
X024729Y003647D01*
X024619Y003693D01*
X02455Y003702D01*
D02*
G37*
G36*
X02445D02*
X024381Y003693D01*
X024271Y003647D01*
X024176Y003574D01*
X024103Y003479D01*
X024057Y003369D01*
X024048Y0033D01*
X02445D01*
Y003702D01*
D02*
G37*
G36*
X02355D02*
Y0033D01*
X023952D01*
X023943Y003369D01*
X023897Y003479D01*
X023824Y003574D01*
X023729Y003647D01*
X023619Y003693D01*
X02355Y003702D01*
D02*
G37*
G36*
X02345D02*
X023381Y003693D01*
X023271Y003647D01*
X023176Y003574D01*
X023103Y003479D01*
X023057Y003369D01*
X023048Y0033D01*
X02345D01*
Y003702D01*
D02*
G37*
G36*
X02255D02*
Y0033D01*
X022952D01*
X022943Y003369D01*
X022897Y003479D01*
X022824Y003574D01*
X022729Y003647D01*
X022619Y003693D01*
X02255Y003702D01*
D02*
G37*
G36*
X02245D02*
X022381Y003693D01*
X022271Y003647D01*
X022176Y003574D01*
X022103Y003479D01*
X022057Y003369D01*
X022048Y0033D01*
X02245D01*
Y003702D01*
D02*
G37*
G36*
X02155D02*
Y0033D01*
X021952D01*
X021943Y003369D01*
X021897Y003479D01*
X021824Y003574D01*
X021729Y003647D01*
X021619Y003693D01*
X02155Y003702D01*
D02*
G37*
G36*
X02145D02*
X021381Y003693D01*
X021271Y003647D01*
X021176Y003574D01*
X021103Y003479D01*
X021057Y003369D01*
X021048Y0033D01*
X02145D01*
Y003702D01*
D02*
G37*
G36*
X02055D02*
Y0033D01*
X020952D01*
X020943Y003369D01*
X020897Y003479D01*
X020824Y003574D01*
X020729Y003647D01*
X020619Y003693D01*
X02055Y003702D01*
D02*
G37*
G36*
X02045D02*
X020381Y003693D01*
X020271Y003647D01*
X020176Y003574D01*
X020103Y003479D01*
X020057Y003369D01*
X020048Y0033D01*
X02045D01*
Y003702D01*
D02*
G37*
G36*
X019766Y003708D02*
X01955D01*
Y0033D01*
X019958D01*
Y003516D01*
X019943Y003589D01*
X019902Y003652D01*
X019839Y003693D01*
X019766Y003708D01*
D02*
G37*
G36*
X01945D02*
X019234D01*
X019161Y003693D01*
X019098Y003652D01*
X019057Y003589D01*
X019042Y003516D01*
Y0033D01*
X01945D01*
Y003708D01*
D02*
G37*
G36*
X005145Y003261D02*
X0048D01*
Y002916D01*
X005145D01*
Y003261D01*
D02*
G37*
G36*
X0047D02*
X004355D01*
Y002916D01*
X0047D01*
Y003261D01*
D02*
G37*
G36*
X024952Y0032D02*
X02455D01*
Y002798D01*
X024619Y002807D01*
X024729Y002853D01*
X024824Y002926D01*
X024897Y003021D01*
X024943Y003131D01*
X024952Y0032D01*
D02*
G37*
G36*
X02445D02*
X024048D01*
X024057Y003131D01*
X024103Y003021D01*
X024176Y002926D01*
X024271Y002853D01*
X024381Y002807D01*
X02445Y002798D01*
Y0032D01*
D02*
G37*
G36*
X023952D02*
X02355D01*
Y002798D01*
X023619Y002807D01*
X023729Y002853D01*
X023824Y002926D01*
X023897Y003021D01*
X023943Y003131D01*
X023952Y0032D01*
D02*
G37*
G36*
X02345D02*
X023048D01*
X023057Y003131D01*
X023103Y003021D01*
X023176Y002926D01*
X023271Y002853D01*
X023381Y002807D01*
X02345Y002798D01*
Y0032D01*
D02*
G37*
G36*
X022952D02*
X02255D01*
Y002798D01*
X022619Y002807D01*
X022729Y002853D01*
X022824Y002926D01*
X022897Y003021D01*
X022943Y003131D01*
X022952Y0032D01*
D02*
G37*
G36*
X02245D02*
X022048D01*
X022057Y003131D01*
X022103Y003021D01*
X022176Y002926D01*
X022271Y002853D01*
X022381Y002807D01*
X02245Y002798D01*
Y0032D01*
D02*
G37*
G36*
X021952D02*
X02155D01*
Y002798D01*
X021619Y002807D01*
X021729Y002853D01*
X021824Y002926D01*
X021897Y003021D01*
X021943Y003131D01*
X021952Y0032D01*
D02*
G37*
G36*
X02145D02*
X021048D01*
X021057Y003131D01*
X021103Y003021D01*
X021176Y002926D01*
X021271Y002853D01*
X021381Y002807D01*
X02145Y002798D01*
Y0032D01*
D02*
G37*
G36*
X020952D02*
X02055D01*
Y002798D01*
X020619Y002807D01*
X020729Y002853D01*
X020824Y002926D01*
X020897Y003021D01*
X020943Y003131D01*
X020952Y0032D01*
D02*
G37*
G36*
X02045D02*
X020048D01*
X020057Y003131D01*
X020103Y003021D01*
X020176Y002926D01*
X020271Y002853D01*
X020381Y002807D01*
X02045Y002798D01*
Y0032D01*
D02*
G37*
G36*
X019958D02*
X01955D01*
Y002792D01*
X019766D01*
X019839Y002807D01*
X019902Y002848D01*
X019943Y002911D01*
X019958Y002984D01*
Y0032D01*
D02*
G37*
G36*
X01945D02*
X019042D01*
Y002984D01*
X019057Y002911D01*
X019098Y002848D01*
X019161Y002807D01*
X019234Y002792D01*
X01945D01*
Y0032D01*
D02*
G37*
G36*
X02805Y002702D02*
Y0023D01*
X028452D01*
X028443Y002369D01*
X028397Y002479D01*
X028324Y002574D01*
X028229Y002647D01*
X028119Y002693D01*
X02805Y002702D01*
D02*
G37*
G36*
X02795D02*
X027881Y002693D01*
X027771Y002647D01*
X027676Y002574D01*
X027603Y002479D01*
X027557Y002369D01*
X027548Y0023D01*
X02795D01*
Y002702D01*
D02*
G37*
G36*
X028452Y0022D02*
X02805D01*
Y001798D01*
X028119Y001807D01*
X028229Y001853D01*
X028324Y001926D01*
X028397Y002021D01*
X028443Y002131D01*
X028452Y0022D01*
D02*
G37*
G36*
X02795D02*
X027548D01*
X027557Y002131D01*
X027603Y002021D01*
X027676Y001926D01*
X027771Y001853D01*
X027881Y001807D01*
X02795Y001798D01*
Y0022D01*
D02*
G37*
G36*
X0205Y002708D02*
X020381Y002693D01*
X020271Y002647D01*
X020176Y002574D01*
X020103Y002479D01*
X020057Y002369D01*
X020042Y00225D01*
X020057Y002131D01*
X020103Y002021D01*
X020176Y001926D01*
X020271Y001853D01*
X020322Y001832D01*
Y001533D01*
X020329Y001496D01*
X020287Y001454D01*
X020266Y001458D01*
X019794D01*
X019678Y001574D01*
Y001792D01*
X019766D01*
X019839Y001807D01*
X019902Y001848D01*
X019943Y001911D01*
X019958Y001984D01*
Y002516D01*
X019943Y002589D01*
X019902Y002652D01*
X019839Y002693D01*
X019766Y002708D01*
X019234D01*
X019161Y002693D01*
X019098Y002652D01*
X019057Y002589D01*
X019042Y002516D01*
Y001984D01*
X019057Y001911D01*
X019098Y001848D01*
X019161Y001807D01*
X019234Y001792D01*
X019322D01*
Y0015D01*
X019335Y001432D01*
X019374Y001374D01*
X019542Y001206D01*
Y000734D01*
X019557Y000661D01*
X019598Y000598D01*
X019661Y000557D01*
X019734Y000542D01*
X020266D01*
X020339Y000557D01*
X020402Y000598D01*
X020443Y000661D01*
X020458Y000734D01*
Y001252D01*
X020503Y001278D01*
X020588Y001193D01*
X020557Y001119D01*
X020542Y001D01*
X020557Y000881D01*
X020603Y000771D01*
X020676Y000676D01*
X020771Y000603D01*
X020881Y000557D01*
X021Y000542D01*
X021119Y000557D01*
X021229Y000603D01*
X021324Y000676D01*
X021397Y000771D01*
X021443Y000881D01*
X021458Y001D01*
X021443Y001119D01*
X021397Y001229D01*
X021324Y001324D01*
X021229Y001397D01*
X021119Y001443D01*
X021Y001458D01*
X020881Y001443D01*
X020854Y001431D01*
X020678Y001607D01*
Y001832D01*
X020729Y001853D01*
X020824Y001926D01*
X020897Y002021D01*
X020943Y002131D01*
X020958Y00225D01*
X020943Y002369D01*
X020897Y002479D01*
X020824Y002574D01*
X020729Y002647D01*
X020619Y002693D01*
X0205Y002708D01*
D02*
G37*
G36*
X01705Y001452D02*
Y00105D01*
X017452D01*
X017443Y001119D01*
X017397Y001229D01*
X017324Y001324D01*
X017229Y001397D01*
X017119Y001443D01*
X01705Y001452D01*
D02*
G37*
G36*
X01695D02*
X016881Y001443D01*
X016771Y001397D01*
X016676Y001324D01*
X016603Y001229D01*
X016557Y001119D01*
X016548Y00105D01*
X01695D01*
Y001452D01*
D02*
G37*
G36*
X01605D02*
Y00105D01*
X016452D01*
X016443Y001119D01*
X016397Y001229D01*
X016324Y001324D01*
X016229Y001397D01*
X016119Y001443D01*
X01605Y001452D01*
D02*
G37*
G36*
X01595D02*
X015881Y001443D01*
X015771Y001397D01*
X015676Y001324D01*
X015603Y001229D01*
X015557Y001119D01*
X015548Y00105D01*
X01595D01*
Y001452D01*
D02*
G37*
G36*
X017452Y00095D02*
X01705D01*
Y000548D01*
X017119Y000557D01*
X017229Y000603D01*
X017324Y000676D01*
X017397Y000771D01*
X017443Y000881D01*
X017452Y00095D01*
D02*
G37*
G36*
X01695D02*
X016548D01*
X016557Y000881D01*
X016603Y000771D01*
X016676Y000676D01*
X016771Y000603D01*
X016881Y000557D01*
X01695Y000548D01*
Y00095D01*
D02*
G37*
G36*
X016452D02*
X01605D01*
Y000548D01*
X016119Y000557D01*
X016229Y000603D01*
X016324Y000676D01*
X016397Y000771D01*
X016443Y000881D01*
X016452Y00095D01*
D02*
G37*
G36*
X01595D02*
X015548D01*
X015557Y000881D01*
X015603Y000771D01*
X015676Y000676D01*
X015771Y000603D01*
X015881Y000557D01*
X01595Y000548D01*
Y00095D01*
D02*
G37*
G36*
X011266Y001458D02*
X010734D01*
X010661Y001443D01*
X010598Y001402D01*
X010557Y001339D01*
X010542Y001266D01*
Y000734D01*
X010557Y000661D01*
X010598Y000598D01*
X010661Y000557D01*
X010734Y000542D01*
X011266D01*
X011339Y000557D01*
X011402Y000598D01*
X011443Y000661D01*
X011458Y000734D01*
Y001266D01*
X011443Y001339D01*
X011402Y001402D01*
X011339Y001443D01*
X011266Y001458D01*
D02*
G37*
G36*
X0245Y002708D02*
X024381Y002693D01*
X024271Y002647D01*
X024176Y002574D01*
X024103Y002479D01*
X024057Y002369D01*
X024042Y00225D01*
X024057Y002131D01*
X024103Y002021D01*
X024176Y001926D01*
X024271Y001853D01*
X024322Y001832D01*
Y001533D01*
X024335Y001465D01*
X024374Y001407D01*
X024588Y001193D01*
X024557Y001119D01*
X024542Y001D01*
X024557Y000881D01*
X024603Y000771D01*
X024676Y000676D01*
X024771Y000603D01*
X024881Y000557D01*
X025Y000542D01*
X025119Y000557D01*
X025229Y000603D01*
X025324Y000676D01*
X025397Y000771D01*
X025443Y000881D01*
X025458Y001D01*
X025443Y001119D01*
X025397Y001229D01*
X025324Y001324D01*
X025229Y001397D01*
X025119Y001443D01*
X025Y001458D01*
X024881Y001443D01*
X024854Y001431D01*
X024678Y001607D01*
Y001832D01*
X024729Y001853D01*
X024824Y001926D01*
X024897Y002021D01*
X024943Y002131D01*
X024958Y00225D01*
X024943Y002369D01*
X024897Y002479D01*
X024824Y002574D01*
X024729Y002647D01*
X024619Y002693D01*
X0245Y002708D01*
D02*
G37*
G36*
X0235D02*
X023381Y002693D01*
X023271Y002647D01*
X023176Y002574D01*
X023103Y002479D01*
X023057Y002369D01*
X023042Y00225D01*
X023057Y002131D01*
X023103Y002021D01*
X023176Y001926D01*
X023271Y001853D01*
X023322Y001832D01*
Y001533D01*
X023335Y001465D01*
X023374Y001407D01*
X023588Y001193D01*
X023557Y001119D01*
X023542Y001D01*
X023557Y000881D01*
X023603Y000771D01*
X023676Y000676D01*
X023771Y000603D01*
X023881Y000557D01*
X024Y000542D01*
X024119Y000557D01*
X024229Y000603D01*
X024324Y000676D01*
X024397Y000771D01*
X024443Y000881D01*
X024458Y001D01*
X024443Y001119D01*
X024397Y001229D01*
X024324Y001324D01*
X024229Y001397D01*
X024119Y001443D01*
X024Y001458D01*
X023881Y001443D01*
X023854Y001431D01*
X023678Y001607D01*
Y001832D01*
X023729Y001853D01*
X023824Y001926D01*
X023897Y002021D01*
X023943Y002131D01*
X023958Y00225D01*
X023943Y002369D01*
X023897Y002479D01*
X023824Y002574D01*
X023729Y002647D01*
X023619Y002693D01*
X0235Y002708D01*
D02*
G37*
G36*
X0225D02*
X022381Y002693D01*
X022271Y002647D01*
X022176Y002574D01*
X022103Y002479D01*
X022057Y002369D01*
X022042Y00225D01*
X022057Y002131D01*
X022103Y002021D01*
X022176Y001926D01*
X022271Y001853D01*
X022322Y001832D01*
Y001533D01*
X022335Y001465D01*
X022374Y001407D01*
X022588Y001193D01*
X022557Y001119D01*
X022542Y001D01*
X022557Y000881D01*
X022603Y000771D01*
X022676Y000676D01*
X022771Y000603D01*
X022881Y000557D01*
X023Y000542D01*
X023119Y000557D01*
X023229Y000603D01*
X023324Y000676D01*
X023397Y000771D01*
X023443Y000881D01*
X023458Y001D01*
X023443Y001119D01*
X023397Y001229D01*
X023324Y001324D01*
X023229Y001397D01*
X023119Y001443D01*
X023Y001458D01*
X022881Y001443D01*
X022854Y001431D01*
X022678Y001607D01*
Y001832D01*
X022729Y001853D01*
X022824Y001926D01*
X022897Y002021D01*
X022943Y002131D01*
X022958Y00225D01*
X022943Y002369D01*
X022897Y002479D01*
X022824Y002574D01*
X022729Y002647D01*
X022619Y002693D01*
X0225Y002708D01*
D02*
G37*
G36*
X0215D02*
X021381Y002693D01*
X021271Y002647D01*
X021176Y002574D01*
X021103Y002479D01*
X021057Y002369D01*
X021042Y00225D01*
X021057Y002131D01*
X021103Y002021D01*
X021176Y001926D01*
X021271Y001853D01*
X021322Y001832D01*
Y001533D01*
X021335Y001465D01*
X021374Y001407D01*
X021588Y001193D01*
X021557Y001119D01*
X021542Y001D01*
X021557Y000881D01*
X021603Y000771D01*
X021676Y000676D01*
X021771Y000603D01*
X021881Y000557D01*
X022Y000542D01*
X022119Y000557D01*
X022229Y000603D01*
X022324Y000676D01*
X022397Y000771D01*
X022443Y000881D01*
X022458Y001D01*
X022443Y001119D01*
X022397Y001229D01*
X022324Y001324D01*
X022229Y001397D01*
X022119Y001443D01*
X022Y001458D01*
X021881Y001443D01*
X021854Y001431D01*
X021678Y001607D01*
Y001832D01*
X021729Y001853D01*
X021824Y001926D01*
X021897Y002021D01*
X021943Y002131D01*
X021958Y00225D01*
X021943Y002369D01*
X021897Y002479D01*
X021824Y002574D01*
X021729Y002647D01*
X021619Y002693D01*
X0215Y002708D01*
D02*
G37*
G36*
X015Y001458D02*
X014881Y001443D01*
X014771Y001397D01*
X014676Y001324D01*
X014603Y001229D01*
X014557Y001119D01*
X014542Y001D01*
X014557Y000881D01*
X014603Y000771D01*
X014676Y000676D01*
X014771Y000603D01*
X014881Y000557D01*
X015Y000542D01*
X015119Y000557D01*
X015229Y000603D01*
X015324Y000676D01*
X015397Y000771D01*
X015443Y000881D01*
X015458Y001D01*
X015443Y001119D01*
X015397Y001229D01*
X015324Y001324D01*
X015229Y001397D01*
X015119Y001443D01*
X015Y001458D01*
D02*
G37*
G36*
X014D02*
X013881Y001443D01*
X013771Y001397D01*
X013676Y001324D01*
X013603Y001229D01*
X013557Y001119D01*
X013542Y001D01*
X013557Y000881D01*
X013603Y000771D01*
X013676Y000676D01*
X013771Y000603D01*
X013881Y000557D01*
X014Y000542D01*
X014119Y000557D01*
X014229Y000603D01*
X014324Y000676D01*
X014397Y000771D01*
X014443Y000881D01*
X014458Y001D01*
X014443Y001119D01*
X014397Y001229D01*
X014324Y001324D01*
X014229Y001397D01*
X014119Y001443D01*
X014Y001458D01*
D02*
G37*
G36*
X013D02*
X012881Y001443D01*
X012771Y001397D01*
X012676Y001324D01*
X012603Y001229D01*
X012557Y001119D01*
X012542Y001D01*
X012557Y000881D01*
X012603Y000771D01*
X012676Y000676D01*
X012771Y000603D01*
X012881Y000557D01*
X013Y000542D01*
X013119Y000557D01*
X013229Y000603D01*
X013324Y000676D01*
X013397Y000771D01*
X013443Y000881D01*
X013458Y001D01*
X013443Y001119D01*
X013397Y001229D01*
X013324Y001324D01*
X013229Y001397D01*
X013119Y001443D01*
X013Y001458D01*
D02*
G37*
G36*
X012D02*
X011881Y001443D01*
X011771Y001397D01*
X011676Y001324D01*
X011603Y001229D01*
X011557Y001119D01*
X011542Y001D01*
X011557Y000881D01*
X011603Y000771D01*
X011676Y000676D01*
X011771Y000603D01*
X011881Y000557D01*
X012Y000542D01*
X012119Y000557D01*
X012229Y000603D01*
X012324Y000676D01*
X012397Y000771D01*
X012443Y000881D01*
X012458Y001D01*
X012443Y001119D01*
X012397Y001229D01*
X012324Y001324D01*
X012229Y001397D01*
X012119Y001443D01*
X012Y001458D01*
D02*
G37*
%LPD*%
D17*
X006Y025744D02*
D03*
X01325D02*
D03*
X0205D02*
D03*
X02775D02*
D03*
D18*
X006689Y026D02*
D03*
X005311D02*
D03*
X013939D02*
D03*
X012561D02*
D03*
X021189D02*
D03*
X019811D02*
D03*
X028439D02*
D03*
X027061D02*
D03*
D19*
X005006Y004D02*
D03*
X032244Y018D02*
D03*
Y01175D02*
D03*
Y0055D02*
D03*
X009006Y01325D02*
D03*
D20*
X00475Y004689D02*
D03*
Y003311D02*
D03*
X0325Y017311D02*
D03*
Y018689D02*
D03*
Y011061D02*
D03*
Y012439D02*
D03*
Y004811D02*
D03*
Y006189D02*
D03*
X00875Y013939D02*
D03*
Y012561D02*
D03*
D21*
X006406Y0045D02*
D03*
X007094D02*
D03*
X014656Y01425D02*
D03*
X015344D02*
D03*
X010156Y0135D02*
D03*
X010844D02*
D03*
X030344Y00525D02*
D03*
X029656D02*
D03*
X030594Y01125D02*
D03*
X029906D02*
D03*
X030344Y0175D02*
D03*
X029656D02*
D03*
X019989Y022D02*
D03*
X020678D02*
D03*
X027156D02*
D03*
X027844D02*
D03*
X005656D02*
D03*
X006344D02*
D03*
X012822D02*
D03*
X013511D02*
D03*
D22*
X0115Y005685D02*
D03*
Y006315D02*
D03*
D23*
X012594Y004839D02*
D03*
X0135D02*
D03*
X014406D02*
D03*
D24*
X0135Y007161D02*
D03*
D25*
X01625Y007191D02*
D03*
Y004809D02*
D03*
D26*
X014652Y0165D02*
D03*
X015348Y016874D02*
D03*
Y016126D02*
D03*
D43*
X018Y0205D02*
X018928Y021428D01*
X020428D02*
X020526Y021526D01*
X018928Y021428D02*
X020428D01*
X020526Y021526D02*
Y021849D01*
X014656Y013344D02*
Y01425D01*
Y013344D02*
X015Y013D01*
X01825D02*
X022Y01675D01*
X015Y013D02*
X01825D01*
X023Y017D02*
X02675D01*
X022Y018D02*
X023Y017D01*
X02375Y01725D02*
X027D01*
X021Y02D02*
X02375Y01725D01*
X027Y0065D02*
X028059Y005441D01*
X029504D01*
X027Y0065D02*
Y01675D01*
X02675Y017D02*
X027Y01675D01*
X029504Y005441D02*
X029578Y005367D01*
X028069Y003319D02*
Y003741D01*
X029578Y005133D02*
Y00525D01*
X028069Y003741D02*
X029387Y005059D01*
X029504D02*
X029578Y005133D01*
Y00525D02*
Y005367D01*
Y00525D02*
X029656D01*
X029387Y005059D02*
X029504D01*
X028Y00325D02*
X028069Y003319D01*
X02725Y013D02*
X029Y01125D01*
X027Y01725D02*
X02725Y017D01*
Y013D02*
Y017D01*
X029656Y0175D02*
Y018344D01*
X02075Y02075D02*
X02725D01*
X029656Y018344D01*
X02Y02D02*
X02075Y02075D01*
X028098Y0155D02*
X028098D01*
X027844Y022D02*
X027996Y021849D01*
Y021509D02*
Y021849D01*
Y021509D02*
X028Y021505D01*
Y02125D02*
Y021505D01*
X02775Y021D02*
X028Y02125D01*
X019Y02D02*
X02Y021D01*
X02775D01*
X020526Y021849D02*
X020678Y022D01*
X018Y02D02*
Y0205D01*
X016293Y020107D02*
X0164Y02D01*
X016293Y020107D02*
Y020457D01*
X015731Y021019D02*
X016293Y020457D01*
X0155Y021598D02*
X015731Y021368D01*
Y021019D02*
Y021368D01*
X00825Y021D02*
Y021598D01*
X0085Y02075D02*
X01525D01*
X00825Y021D02*
X0085Y02075D01*
X0154Y02D02*
Y0206D01*
X01525Y02075D02*
X0154Y0206D01*
X01225Y0145D02*
X01325Y0155D01*
X01175Y0145D02*
X01225D01*
X0115Y00525D02*
X011938Y004812D01*
X012173Y004839D02*
X012594D01*
X012146Y004812D02*
X012173Y004839D01*
X011938Y004812D02*
X012146D01*
X0115Y00525D02*
Y005685D01*
X010815D02*
X0115D01*
X00925Y0065D02*
X01D01*
X010815Y005685D01*
X01625Y00275D02*
X018Y001D01*
X01625Y00275D02*
Y004809D01*
X014406Y004839D02*
X01622D01*
X01625Y004809D01*
X025Y001D02*
Y001033D01*
X0245Y001533D02*
X025Y001033D01*
X0245Y001533D02*
Y00225D01*
X024Y001D02*
Y001033D01*
X0235Y001533D02*
X024Y001033D01*
X0235Y001533D02*
Y00225D01*
X023Y001D02*
Y001033D01*
X0225Y001533D02*
X023Y001033D01*
X0225Y001533D02*
Y00225D01*
X022Y001D02*
Y001033D01*
X0215Y001533D02*
X022Y001033D01*
X0215Y001533D02*
Y00225D01*
X021Y001D02*
Y001033D01*
X0205Y001533D02*
X021Y001033D01*
X0205Y001533D02*
Y00225D01*
X0195Y0015D02*
X02Y001D01*
X0195Y0015D02*
Y00225D01*
X015348Y014254D02*
Y016126D01*
X015344Y01425D02*
X015348Y014254D01*
X01325Y0165D02*
X014652D01*
X014Y01425D02*
X014656D01*
X010844Y0135D02*
X01325D01*
X014Y01425D01*
X00975Y0135D02*
X010156D01*
X00875Y013939D02*
X009311D01*
X00975Y0135D01*
X014406Y003906D02*
Y004839D01*
X01375Y00325D02*
X014406Y003906D01*
X01125Y00325D02*
X01375D01*
X007094Y0045D02*
X01D01*
X01125Y00325D01*
X00475Y004689D02*
X006254D01*
X006406Y004538D01*
Y0045D02*
Y004538D01*
X030344Y005211D02*
Y00525D01*
Y005211D02*
X030496Y005059D01*
X030535D01*
X030594Y005D01*
X031D01*
X031189Y004811D02*
X0325D01*
X031Y005D02*
X031189Y004811D01*
X028062Y016562D02*
X029Y0175D01*
X028098Y0155D02*
Y016152D01*
X028062Y016188D02*
X028098Y016152D01*
X028062Y016188D02*
Y016562D01*
X029Y0175D02*
X029656D01*
X032439Y011D02*
X0325Y011061D01*
X03175Y011D02*
X032439D01*
X030594Y01125D02*
X0315D01*
X03175Y011D01*
X029Y01125D02*
X029906D01*
X028Y00925D02*
Y01025D01*
X029Y01125D01*
X032439Y01725D02*
X0325Y017311D01*
X03175Y01725D02*
X032439D01*
X030344Y0175D02*
X0315D01*
X03175Y01725D01*
X028439Y026D02*
X0285Y025939D01*
Y02425D02*
Y025939D01*
X027156Y022D02*
Y022906D01*
X0285Y02425D01*
X027844Y022D02*
X0285D01*
X028902Y021598D02*
X03D01*
X0285Y022D02*
X028902Y021598D01*
X021189Y026D02*
X02125Y025939D01*
Y02425D02*
Y025939D01*
X019989Y022D02*
Y022989D01*
X02125Y02425D01*
X020678Y022D02*
X022D01*
X022519Y021829D02*
X02275Y021598D01*
X022171Y021829D02*
X022519D01*
X022Y022D02*
X022171Y021829D01*
X013511Y022D02*
X01425D01*
X014652Y021598D02*
X0155D01*
X01425Y022D02*
X014652Y021598D01*
X013939Y026D02*
X014Y025939D01*
Y024D02*
Y025939D01*
X012822Y022D02*
Y022822D01*
X014Y024D01*
X006344Y022D02*
X00725D01*
X008059Y021789D02*
X00825Y021598D01*
X007461Y021789D02*
X008059D01*
X00725Y022D02*
X007461Y021789D01*
X006689Y026D02*
X00675Y025939D01*
Y025D02*
Y025939D01*
X005656Y022D02*
Y023906D01*
X00675Y025D01*
D44*
X00975D02*
D03*
X00775D02*
D03*
X017D02*
D03*
X015D02*
D03*
X02425D02*
D03*
X02225D02*
D03*
X0315D02*
D03*
X0295D02*
D03*
X0315Y014D02*
D03*
Y016D02*
D03*
X031402Y00775D02*
D03*
Y00975D02*
D03*
Y00175D02*
D03*
Y00375D02*
D03*
X005848Y006D02*
D03*
Y01D02*
D03*
X009848Y015D02*
D03*
Y018D02*
D03*
D45*
X00825Y021598D02*
D03*
X0155D02*
D03*
X02275D02*
D03*
X03D02*
D03*
X018Y02D02*
D03*
X0074D02*
D03*
X011Y001D02*
D03*
X02D02*
D03*
X0195Y00225D02*
D03*
Y00325D02*
D03*
D46*
X00925Y021598D02*
D03*
X0165D02*
D03*
X02375D02*
D03*
X031D02*
D03*
X028098Y0145D02*
D03*
X028Y00825D02*
D03*
Y00225D02*
D03*
X00925Y0095D02*
D03*
Y0085D02*
D03*
Y0075D02*
D03*
X01325Y0175D02*
D03*
Y0165D02*
D03*
X019Y02D02*
D03*
X02D02*
D03*
X021D02*
D03*
X022D02*
D03*
X023D02*
D03*
X025D02*
D03*
X024D02*
D03*
X0124D02*
D03*
X0114D02*
D03*
X0104D02*
D03*
X0094D02*
D03*
X0084D02*
D03*
X0164D02*
D03*
X0154D02*
D03*
X0144D02*
D03*
X0134D02*
D03*
X012Y001D02*
D03*
X013D02*
D03*
X014D02*
D03*
X015D02*
D03*
X016D02*
D03*
X018D02*
D03*
X017D02*
D03*
X025D02*
D03*
X024D02*
D03*
X023D02*
D03*
X022D02*
D03*
X021D02*
D03*
X0245Y00225D02*
D03*
X0235D02*
D03*
X0225D02*
D03*
X0215D02*
D03*
X0205D02*
D03*
X0245Y00325D02*
D03*
X0235D02*
D03*
X0225D02*
D03*
X0215D02*
D03*
X0205D02*
D03*
D47*
X028098Y0155D02*
D03*
X028Y00925D02*
D03*
Y00325D02*
D03*
X00925Y0065D02*
D03*
X01325Y0155D02*
D03*
D48*
X022Y01675D02*
D03*
Y018D02*
D03*
X01175Y0145D02*
D03*
D49*
X026Y003D02*
D03*
Y014D02*
D03*
X0055Y001D02*
D03*
X006Y02D02*
D03*
M02*
