M48
;Layer_Color=9474304
;FILE_FORMAT=2:4
INCH,LZ
;TYPE=PLATED
T1F00S00C0.0280
T2F00S00C0.0394
T3F00S00C0.1250
;TYPE=NON_PLATED
T4F00S00C0.1339
%
T01
X01175Y0145
X022Y01675
Y018
T02
X011Y001
X012
X013
X014
X015
X00925Y0065
Y0075
Y0085
Y0095
X01325Y0155
X028098
Y0145
X028Y00925
Y00825
Y00325
Y00225
X0245
X0235
X0225
X0215
X0205
X0195
Y00325
X0205
X0215
X0225
X0235
X0245
X025Y001
X024
X023
X022
X021
X02
X018
X017
X016
X0164Y02
X018
X019
X02
X021
X022
X023
X024
X025
X02375Y021598
X02275
X0165
X03
X031
X0155
X0154Y02
X0144
X0134
X0124
X0114
X0104
X0094
X0084
X0074
X00825Y021598
X00925
X01325Y0175
Y0165
T03
X0055Y001
X026Y003
Y014
X006Y02
T04
X005848Y006
Y01
X009848Y015
X0315Y014
X031402Y00975
Y00775
Y00375
Y00175
X0315Y016
Y025
X0295
X02425
X02225
X017
X015
X00975
X00775
X009848Y018
M30
