G04*
G04 #@! TF.GenerationSoftware,Altium Limited,Altium Designer,20.0.13 (296)*
G04*
G04 Layer_Color=65535*
%FSLAX24Y24*%
%MOIN*%
G70*
G01*
G75*
%ADD10C,0.0197*%
%ADD11C,0.0098*%
%ADD12C,0.0100*%
%ADD13C,0.0059*%
%ADD14C,0.0079*%
%ADD15C,0.0120*%
%ADD16R,0.0266X0.0217*%
D10*
X7463Y21598D02*
G03*
X7463Y21598I-59J0D01*
G01*
X14713D02*
G03*
X14713Y21598I-59J0D01*
G01*
X21963D02*
G03*
X21963Y21598I-59J0D01*
G01*
X29213D02*
G03*
X29213Y21598I-59J0D01*
G01*
X28157Y16346D02*
G03*
X28157Y16346I-59J0D01*
G01*
X28059Y10096D02*
G03*
X28059Y10096I-59J0D01*
G01*
Y4096D02*
G03*
X28059Y4096I-59J0D01*
G01*
X9309Y5654D02*
G03*
X9309Y5654I-59J0D01*
G01*
X13309Y14654D02*
G03*
X13309Y14654I-59J0D01*
G01*
X18713Y2250D02*
G03*
X18713Y2250I-59J0D01*
G01*
Y3250D02*
G03*
X18713Y3250I-59J0D01*
G01*
D11*
X12230Y4839D02*
G03*
X12230Y4839I-49J0D01*
G01*
X15600Y4248D02*
G03*
X15600Y4248I-49J0D01*
G01*
X15502Y15782D02*
G03*
X15502Y15782I-49J0D01*
G01*
D12*
X9785Y21323D02*
X10455D01*
X7030Y21283D02*
X7738D01*
X10455Y21323D02*
Y26638D01*
X7030Y21283D02*
Y26638D01*
X9750Y21098D02*
Y21323D01*
X7750Y21098D02*
X9750D01*
X7750D02*
Y21283D01*
X17035Y21323D02*
X17705D01*
X14280Y21283D02*
X14988D01*
X17705Y21323D02*
Y26638D01*
X14280Y21283D02*
Y26638D01*
X17000Y21098D02*
Y21323D01*
X15000Y21098D02*
X17000D01*
X15000D02*
Y21283D01*
X24285Y21323D02*
X24955D01*
X21530Y21283D02*
X22238D01*
X24955Y21323D02*
Y26638D01*
X21530Y21283D02*
Y26638D01*
X24250Y21098D02*
Y21323D01*
X22250Y21098D02*
X24250D01*
X22250D02*
Y21283D01*
X31535Y21323D02*
X32205D01*
X28780Y21283D02*
X29488D01*
X32205Y21323D02*
Y26638D01*
X28780Y21283D02*
Y26638D01*
X31500Y21098D02*
Y21323D01*
X29500Y21098D02*
X31500D01*
X29500D02*
Y21283D01*
X27823Y13295D02*
Y13965D01*
X27783Y16012D02*
Y16720D01*
X27823Y13295D02*
X33138D01*
X27783Y16720D02*
X33138D01*
X27598Y14000D02*
X27823D01*
X27598D02*
Y16000D01*
X27783D01*
X27724Y7045D02*
Y7715D01*
X27685Y9762D02*
Y10470D01*
X27724Y7045D02*
X33039D01*
X27685Y10470D02*
X33039D01*
X27500Y7750D02*
X27724D01*
X27500D02*
Y9750D01*
X27685D01*
X27724Y1045D02*
Y1715D01*
X27685Y3762D02*
Y4470D01*
X27724Y1045D02*
X33039D01*
X27685Y4470D02*
X33039D01*
X27500Y1750D02*
X27724D01*
X27500D02*
Y3750D01*
X27685D01*
X9526Y10004D02*
Y10713D01*
X9486Y10752D02*
X9526Y10713D01*
X4171Y10752D02*
X9486D01*
X9526Y5280D02*
Y5988D01*
X9486Y5240D02*
X9526Y5280D01*
X4171Y5240D02*
X9486D01*
X9526Y6000D02*
X9750D01*
Y10000D01*
X9526D02*
X9750D01*
X13526Y18020D02*
Y18728D01*
X13486Y18768D02*
X13526Y18728D01*
X8171Y18768D02*
X13486D01*
X13526Y14280D02*
Y14988D01*
X13486Y14240D02*
X13526Y14280D01*
X8171Y14240D02*
X13486D01*
X13526Y15000D02*
X13750D01*
Y18000D01*
X13526D02*
X13750D01*
X5606Y25803D02*
X5803D01*
X6197D02*
X6394D01*
X5902Y26177D02*
X6059Y26335D01*
X5902Y26177D02*
X6057Y26022D01*
X6059Y26024D02*
Y26335D01*
X6591Y26315D02*
Y26591D01*
X5409Y26315D02*
Y26591D01*
X12856Y25803D02*
X13053D01*
X13447D02*
X13644D01*
X13152Y26177D02*
X13309Y26335D01*
X13152Y26177D02*
X13307Y26022D01*
X13309Y26024D02*
Y26335D01*
X13841Y26315D02*
Y26591D01*
X12659Y26315D02*
Y26591D01*
X4947Y3606D02*
Y3803D01*
Y4197D02*
Y4394D01*
X4415Y4059D02*
X4573Y3902D01*
X4728Y4057D01*
X4415Y4059D02*
X4726D01*
X4159Y4591D02*
X4435D01*
X4159Y3409D02*
X4435D01*
X20106Y25803D02*
X20303D01*
X20697D02*
X20894D01*
X20402Y26177D02*
X20559Y26335D01*
X20402Y26177D02*
X20557Y26022D01*
X20559Y26024D02*
Y26335D01*
X21091Y26315D02*
Y26591D01*
X19909Y26315D02*
Y26591D01*
X27356Y25803D02*
X27553D01*
X27947D02*
X28144D01*
X27652Y26177D02*
X27809Y26335D01*
X27652Y26177D02*
X27807Y26022D01*
X27809Y26024D02*
Y26335D01*
X28341Y26315D02*
Y26591D01*
X27159Y26315D02*
Y26591D01*
X32303Y18197D02*
Y18394D01*
Y17606D02*
Y17803D01*
X32677Y18098D02*
X32835Y17941D01*
X32522Y17943D02*
X32677Y18098D01*
X32524Y17941D02*
X32835D01*
X32815Y17409D02*
X33091D01*
X32815Y18591D02*
X33091D01*
X32303Y11947D02*
Y12144D01*
Y11356D02*
Y11553D01*
X32677Y11848D02*
X32835Y11691D01*
X32522Y11693D02*
X32677Y11848D01*
X32524Y11691D02*
X32835D01*
X32815Y11159D02*
X33091D01*
X32815Y12341D02*
X33091D01*
X32303Y5697D02*
Y5894D01*
Y5106D02*
Y5303D01*
X32677Y5598D02*
X32835Y5441D01*
X32522Y5443D02*
X32677Y5598D01*
X32524Y5441D02*
X32835D01*
X32815Y4909D02*
X33091D01*
X32815Y6091D02*
X33091D01*
X8947Y12856D02*
Y13053D01*
Y13447D02*
Y13644D01*
X8415Y13309D02*
X8573Y13152D01*
X8728Y13307D01*
X8415Y13309D02*
X8726D01*
X8159Y13841D02*
X8435D01*
X8159Y12659D02*
X8435D01*
X20000Y1750D02*
Y2750D01*
X19000D02*
X20000D01*
X19000Y1750D02*
Y2750D01*
Y1750D02*
X25000D01*
Y2750D01*
X19000D02*
X25000D01*
X20000D02*
Y3750D01*
X19000D02*
X20000D01*
X19000Y2750D02*
Y3750D01*
Y2750D02*
X25000D01*
Y3750D01*
X19000D02*
X25000D01*
X14100Y11923D02*
Y12323D01*
X14233Y12190D01*
X14367Y12323D01*
Y11923D01*
X14500D02*
Y12323D01*
X14700D01*
X14766Y12256D01*
Y12123D01*
X14700Y12056D01*
X14500D01*
X14900Y12323D02*
Y11923D01*
X15100D01*
X15166Y11990D01*
Y12256D01*
X15100Y12323D01*
X14900D01*
X15966D02*
X15699D01*
Y11923D01*
X15966D01*
X15699Y12123D02*
X15833D01*
X16166Y12256D02*
Y12190D01*
X16099D01*
X16233D01*
X16166D01*
Y11990D01*
X16233Y11923D01*
X16433Y12323D02*
Y11923D01*
Y12123D01*
X16499Y12190D01*
X16633D01*
X16699Y12123D01*
Y11923D01*
X16832Y12123D02*
X17099D01*
X17499Y12190D02*
X17299D01*
X17232Y12123D01*
Y11990D01*
X17299Y11923D01*
X17499D01*
X17699Y12256D02*
Y12190D01*
X17632D01*
X17765D01*
X17699D01*
Y11990D01*
X17765Y11923D01*
X17965Y12190D02*
Y11923D01*
Y12056D01*
X18032Y12123D01*
X18099Y12190D01*
X18165D01*
X18365Y11923D02*
X18499D01*
X18432D01*
Y12323D01*
X18365D01*
X19365Y12256D02*
X19298Y12323D01*
X19165D01*
X19098Y12256D01*
Y12190D01*
X19165Y12123D01*
X19298D01*
X19365Y12056D01*
Y11990D01*
X19298Y11923D01*
X19165D01*
X19098Y11990D01*
X19498Y12323D02*
Y11923D01*
Y12123D01*
X19565Y12190D01*
X19698D01*
X19765Y12123D01*
Y11923D01*
X19898D02*
X20031D01*
X19965D01*
Y12190D01*
X19898D01*
X20431Y11923D02*
X20298D01*
X20231Y11990D01*
Y12123D01*
X20298Y12190D01*
X20431D01*
X20498Y12123D01*
Y12056D01*
X20231D01*
X20631Y11923D02*
X20765D01*
X20698D01*
Y12323D01*
X20631D01*
X21231D02*
Y11923D01*
X21031D01*
X20964Y11990D01*
Y12123D01*
X21031Y12190D01*
X21231D01*
X14367Y11203D02*
X14100D01*
X14367Y11470D01*
Y11536D01*
X14300Y11603D01*
X14167D01*
X14100Y11536D01*
X14500D02*
X14567Y11603D01*
X14700D01*
X14766Y11536D01*
Y11270D01*
X14700Y11203D01*
X14567D01*
X14500Y11270D01*
Y11536D01*
X15166Y11203D02*
X14900D01*
X15166Y11470D01*
Y11536D01*
X15100Y11603D01*
X14966D01*
X14900Y11536D01*
X15300D02*
X15366Y11603D01*
X15500D01*
X15566Y11536D01*
Y11270D01*
X15500Y11203D01*
X15366D01*
X15300Y11270D01*
Y11536D01*
X15699Y11403D02*
X15966D01*
X16099Y11536D02*
X16166Y11603D01*
X16299D01*
X16366Y11536D01*
Y11270D01*
X16299Y11203D01*
X16166D01*
X16099Y11270D01*
Y11536D01*
X16766Y11603D02*
X16499D01*
Y11403D01*
X16633Y11470D01*
X16699D01*
X16766Y11403D01*
Y11270D01*
X16699Y11203D01*
X16566D01*
X16499Y11270D01*
X16899Y11403D02*
X17166D01*
X17299Y11203D02*
X17432D01*
X17366D01*
Y11603D01*
X17299Y11536D01*
X17832Y11203D02*
Y11603D01*
X17632Y11403D01*
X17899D01*
X18432Y11470D02*
Y11203D01*
Y11336D01*
X18499Y11403D01*
X18565Y11470D01*
X18632D01*
X19032Y11203D02*
X18898D01*
X18832Y11270D01*
Y11403D01*
X18898Y11470D01*
X19032D01*
X19098Y11403D01*
Y11336D01*
X18832D01*
X19232Y11470D02*
X19365Y11203D01*
X19498Y11470D01*
X19632Y11203D02*
X19765D01*
X19698D01*
Y11603D01*
X19632Y11536D01*
X14100Y10483D02*
Y10883D01*
Y10617D02*
X14300Y10750D01*
X14100Y10617D02*
X14300Y10483D01*
X14500Y10883D02*
Y10483D01*
X14700D01*
X14766Y10550D01*
Y10617D01*
Y10683D01*
X14700Y10750D01*
X14500D01*
X14900Y10350D02*
X14966D01*
X15033Y10417D01*
Y10750D01*
X15300Y10483D02*
X15500D01*
X15566Y10550D01*
X15500Y10617D01*
X15366D01*
X15300Y10683D01*
X15366Y10750D01*
X15566D01*
X14550Y7400D02*
Y7150D01*
X14600Y7100D01*
X14700D01*
X14750Y7150D01*
Y7400D01*
X14850Y7100D02*
X14950D01*
X14900D01*
Y7400D01*
X14850Y7350D01*
X4375Y21850D02*
Y22150D01*
X4525D01*
X4575Y22100D01*
Y22000D01*
X4525Y21950D01*
X4375D01*
X4475D02*
X4575Y21850D01*
X4675D02*
X4775D01*
X4725D01*
Y22150D01*
X4675Y22100D01*
X4925D02*
X4975Y22150D01*
X5075D01*
X5125Y22100D01*
Y21900D01*
X5075Y21850D01*
X4975D01*
X4925Y21900D01*
Y22100D01*
X11750Y21850D02*
Y22150D01*
X11900D01*
X11950Y22100D01*
Y22000D01*
X11900Y21950D01*
X11750D01*
X11850D02*
X11950Y21850D01*
X12050Y21900D02*
X12100Y21850D01*
X12200D01*
X12250Y21900D01*
Y22100D01*
X12200Y22150D01*
X12100D01*
X12050Y22100D01*
Y22050D01*
X12100Y22000D01*
X12250D01*
X7750Y4350D02*
Y4650D01*
X7900D01*
X7950Y4600D01*
Y4500D01*
X7900Y4450D01*
X7750D01*
X7850D02*
X7950Y4350D01*
X8050Y4600D02*
X8100Y4650D01*
X8200D01*
X8250Y4600D01*
Y4550D01*
X8200Y4500D01*
X8250Y4450D01*
Y4400D01*
X8200Y4350D01*
X8100D01*
X8050Y4400D01*
Y4450D01*
X8100Y4500D01*
X8050Y4550D01*
Y4600D01*
X8100Y4500D02*
X8200D01*
X19000Y21850D02*
Y22150D01*
X19150D01*
X19200Y22100D01*
Y22000D01*
X19150Y21950D01*
X19000D01*
X19100D02*
X19200Y21850D01*
X19300Y22150D02*
X19500D01*
Y22100D01*
X19300Y21900D01*
Y21850D01*
X26250D02*
Y22150D01*
X26400D01*
X26450Y22100D01*
Y22000D01*
X26400Y21950D01*
X26250D01*
X26350D02*
X26450Y21850D01*
X26750Y22150D02*
X26650Y22100D01*
X26550Y22000D01*
Y21900D01*
X26600Y21850D01*
X26700D01*
X26750Y21900D01*
Y21950D01*
X26700Y22000D01*
X26550D01*
X29750Y18100D02*
Y18400D01*
X29900D01*
X29950Y18350D01*
Y18250D01*
X29900Y18200D01*
X29750D01*
X29850D02*
X29950Y18100D01*
X30250Y18400D02*
X30050D01*
Y18250D01*
X30150Y18300D01*
X30200D01*
X30250Y18250D01*
Y18150D01*
X30200Y18100D01*
X30100D01*
X30050Y18150D01*
X30000Y11850D02*
Y12150D01*
X30150D01*
X30200Y12100D01*
Y12000D01*
X30150Y11950D01*
X30000D01*
X30100D02*
X30200Y11850D01*
X30450D02*
Y12150D01*
X30300Y12000D01*
X30500D01*
X29750Y5850D02*
Y6150D01*
X29900D01*
X29950Y6100D01*
Y6000D01*
X29900Y5950D01*
X29750D01*
X29850D02*
X29950Y5850D01*
X30050Y6100D02*
X30100Y6150D01*
X30200D01*
X30250Y6100D01*
Y6050D01*
X30200Y6000D01*
X30150D01*
X30200D01*
X30250Y5950D01*
Y5900D01*
X30200Y5850D01*
X30100D01*
X30050Y5900D01*
X11406Y13350D02*
Y13650D01*
X11556D01*
X11606Y13600D01*
Y13500D01*
X11556Y13450D01*
X11406D01*
X11506D02*
X11606Y13350D01*
X11905D02*
X11705D01*
X11905Y13550D01*
Y13600D01*
X11855Y13650D01*
X11755D01*
X11705Y13600D01*
X15800Y14100D02*
Y14400D01*
X15950D01*
X16000Y14350D01*
Y14250D01*
X15950Y14200D01*
X15800D01*
X15900D02*
X16000Y14100D01*
X16100D02*
X16200D01*
X16150D01*
Y14400D01*
X16100Y14350D01*
X6325Y24150D02*
X6225D01*
X6275D01*
Y23900D01*
X6225Y23850D01*
X6175D01*
X6125Y23900D01*
X6425Y23850D02*
X6525D01*
X6475D01*
Y24150D01*
X6425Y24100D01*
X6875Y24150D02*
X6675D01*
Y24000D01*
X6775Y24050D01*
X6825D01*
X6875Y24000D01*
Y23900D01*
X6825Y23850D01*
X6725D01*
X6675Y23900D01*
X13575Y24400D02*
X13475D01*
X13525D01*
Y24150D01*
X13475Y24100D01*
X13425D01*
X13375Y24150D01*
X13675Y24100D02*
X13775D01*
X13725D01*
Y24400D01*
X13675Y24350D01*
X14075Y24100D02*
Y24400D01*
X13925Y24250D01*
X14125D01*
X20825Y24150D02*
X20725D01*
X20775D01*
Y23900D01*
X20725Y23850D01*
X20675D01*
X20625Y23900D01*
X20925Y23850D02*
X21025D01*
X20975D01*
Y24150D01*
X20925Y24100D01*
X21175D02*
X21225Y24150D01*
X21325D01*
X21375Y24100D01*
Y24050D01*
X21325Y24000D01*
X21275D01*
X21325D01*
X21375Y23950D01*
Y23900D01*
X21325Y23850D01*
X21225D01*
X21175Y23900D01*
X28075Y24150D02*
X27975D01*
X28025D01*
Y23900D01*
X27975Y23850D01*
X27925D01*
X27875Y23900D01*
X28175Y23850D02*
X28275D01*
X28225D01*
Y24150D01*
X28175Y24100D01*
X28625Y23850D02*
X28425D01*
X28625Y24050D01*
Y24100D01*
X28575Y24150D01*
X28475D01*
X28425Y24100D01*
X28125Y17150D02*
X28025D01*
X28075D01*
Y16900D01*
X28025Y16850D01*
X27975D01*
X27925Y16900D01*
X28225Y16850D02*
X28325D01*
X28275D01*
Y17150D01*
X28225Y17100D01*
X28475Y16850D02*
X28575D01*
X28525D01*
Y17150D01*
X28475Y17100D01*
X28075Y10900D02*
X27975D01*
X28025D01*
Y10650D01*
X27975Y10600D01*
X27925D01*
X27875Y10650D01*
X28175Y10600D02*
X28275D01*
X28225D01*
Y10900D01*
X28175Y10850D01*
X28425D02*
X28475Y10900D01*
X28575D01*
X28625Y10850D01*
Y10650D01*
X28575Y10600D01*
X28475D01*
X28425Y10650D01*
Y10850D01*
X28036Y4895D02*
X27936D01*
X27986D01*
Y4645D01*
X27936Y4595D01*
X27886D01*
X27836Y4645D01*
X28135D02*
X28185Y4595D01*
X28285D01*
X28335Y4645D01*
Y4845D01*
X28285Y4895D01*
X28185D01*
X28135Y4845D01*
Y4795D01*
X28185Y4745D01*
X28335D01*
X10200Y10650D02*
X10100D01*
X10150D01*
Y10400D01*
X10100Y10350D01*
X10050D01*
X10000Y10400D01*
X10300Y10600D02*
X10350Y10650D01*
X10450D01*
X10500Y10600D01*
Y10550D01*
X10450Y10500D01*
X10500Y10450D01*
Y10400D01*
X10450Y10350D01*
X10350D01*
X10300Y10400D01*
Y10450D01*
X10350Y10500D01*
X10300Y10550D01*
Y10600D01*
X10350Y10500D02*
X10450D01*
X12940Y14100D02*
X12840D01*
X12890D01*
Y13850D01*
X12840Y13800D01*
X12790D01*
X12740Y13850D01*
X13040Y14100D02*
X13240D01*
Y14050D01*
X13040Y13850D01*
Y13800D01*
X16000Y16400D02*
Y16600D01*
X15950Y16650D01*
X15850D01*
X15800Y16600D01*
Y16400D01*
X15850Y16350D01*
X15950D01*
X15900Y16450D02*
X16000Y16350D01*
X15950D02*
X16000Y16400D01*
X16100Y16350D02*
X16200D01*
X16150D01*
Y16650D01*
X16100Y16600D01*
X5750Y25400D02*
Y25100D01*
X5900D01*
X5950Y25150D01*
Y25350D01*
X5900Y25400D01*
X5750D01*
X6050Y25150D02*
X6100Y25100D01*
X6200D01*
X6250Y25150D01*
Y25350D01*
X6200Y25400D01*
X6100D01*
X6050Y25350D01*
Y25300D01*
X6100Y25250D01*
X6250D01*
X13000Y25400D02*
Y25100D01*
X13150D01*
X13200Y25150D01*
Y25350D01*
X13150Y25400D01*
X13000D01*
X13300Y25350D02*
X13350Y25400D01*
X13450D01*
X13500Y25350D01*
Y25300D01*
X13450Y25250D01*
X13500Y25200D01*
Y25150D01*
X13450Y25100D01*
X13350D01*
X13300Y25150D01*
Y25200D01*
X13350Y25250D01*
X13300Y25300D01*
Y25350D01*
X13350Y25250D02*
X13450D01*
X5240Y4870D02*
Y4570D01*
X5390D01*
X5440Y4620D01*
Y4820D01*
X5390Y4870D01*
X5240D01*
X5540D02*
X5740D01*
Y4820D01*
X5540Y4620D01*
Y4570D01*
X20250Y25400D02*
Y25100D01*
X20400D01*
X20450Y25150D01*
Y25350D01*
X20400Y25400D01*
X20250D01*
X20750D02*
X20650Y25350D01*
X20550Y25250D01*
Y25150D01*
X20600Y25100D01*
X20700D01*
X20750Y25150D01*
Y25200D01*
X20700Y25250D01*
X20550D01*
X27500Y25400D02*
Y25100D01*
X27650D01*
X27700Y25150D01*
Y25350D01*
X27650Y25400D01*
X27500D01*
X28000D02*
X27800D01*
Y25250D01*
X27900Y25300D01*
X27950D01*
X28000Y25250D01*
Y25150D01*
X27950Y25100D01*
X27850D01*
X27800Y25150D01*
X31250Y18150D02*
Y17850D01*
X31400D01*
X31450Y17900D01*
Y18100D01*
X31400Y18150D01*
X31250D01*
X31700Y17850D02*
Y18150D01*
X31550Y18000D01*
X31750D01*
X31250Y11900D02*
Y11600D01*
X31400D01*
X31450Y11650D01*
Y11850D01*
X31400Y11900D01*
X31250D01*
X31550Y11850D02*
X31600Y11900D01*
X31700D01*
X31750Y11850D01*
Y11800D01*
X31700Y11750D01*
X31650D01*
X31700D01*
X31750Y11700D01*
Y11650D01*
X31700Y11600D01*
X31600D01*
X31550Y11650D01*
X31250Y5650D02*
Y5350D01*
X31400D01*
X31450Y5400D01*
Y5600D01*
X31400Y5650D01*
X31250D01*
X31750Y5350D02*
X31550D01*
X31750Y5550D01*
Y5600D01*
X31700Y5650D01*
X31600D01*
X31550Y5600D01*
X9240Y12870D02*
Y12570D01*
X9390D01*
X9440Y12620D01*
Y12820D01*
X9390Y12870D01*
X9240D01*
X9540Y12570D02*
X9640D01*
X9590D01*
Y12870D01*
X9540Y12820D01*
X17700Y7350D02*
X17650Y7400D01*
X17550D01*
X17500Y7350D01*
Y7150D01*
X17550Y7100D01*
X17650D01*
X17700Y7150D01*
X18000Y7100D02*
X17800D01*
X18000Y7300D01*
Y7350D01*
X17950Y7400D01*
X17850D01*
X17800Y7350D01*
X11500Y5100D02*
X11450Y5150D01*
X11350D01*
X11300Y5100D01*
Y4900D01*
X11350Y4850D01*
X11450D01*
X11500Y4900D01*
X11600Y4850D02*
X11700D01*
X11650D01*
Y5150D01*
X11600Y5100D01*
D13*
X6081Y4776D02*
Y4854D01*
X7419D01*
Y4776D02*
Y4854D01*
X6081Y4146D02*
Y4224D01*
Y4146D02*
X7419D01*
Y4224D01*
X6750Y4146D02*
Y4854D01*
X11146Y5331D02*
X11303D01*
X11146D02*
Y6669D01*
X11303D01*
X11697D02*
X11854D01*
Y5331D02*
Y6669D01*
X11697Y5331D02*
X11854D01*
X11146Y6000D02*
X11854D01*
X14331Y14526D02*
Y14604D01*
X15669D01*
Y14526D02*
Y14604D01*
X14331Y13896D02*
Y13974D01*
Y13896D02*
X15669D01*
Y13974D01*
X15000Y13896D02*
Y14604D01*
X9831Y13776D02*
Y13854D01*
X11169D01*
Y13776D02*
Y13854D01*
X9831Y13146D02*
Y13224D01*
Y13146D02*
X11169D01*
Y13224D01*
X10500Y13146D02*
Y13854D01*
X30669Y4896D02*
Y4974D01*
X29331Y4896D02*
X30669D01*
X29331D02*
Y4974D01*
X30669Y5526D02*
Y5604D01*
X29331D02*
X30669D01*
X29331Y5526D02*
Y5604D01*
X30000Y4896D02*
Y5604D01*
X30919Y10896D02*
Y10974D01*
X29581Y10896D02*
X30919D01*
X29581D02*
Y10974D01*
X30919Y11526D02*
Y11604D01*
X29581D02*
X30919D01*
X29581Y11526D02*
Y11604D01*
X30250Y10896D02*
Y11604D01*
X30669Y17146D02*
Y17224D01*
X29331Y17146D02*
X30669D01*
X29331D02*
Y17224D01*
X30669Y17776D02*
Y17854D01*
X29331D02*
X30669D01*
X29331Y17776D02*
Y17854D01*
X30000Y17146D02*
Y17854D01*
X19664Y22276D02*
Y22354D01*
X21003D01*
Y22276D02*
Y22354D01*
X19664Y21646D02*
Y21724D01*
Y21646D02*
X21003D01*
Y21724D01*
X20333Y21646D02*
Y22354D01*
X26831Y22276D02*
Y22354D01*
X28169D01*
Y22276D02*
Y22354D01*
X26831Y21646D02*
Y21724D01*
Y21646D02*
X28169D01*
Y21724D01*
X27500Y21646D02*
Y22354D01*
X5331Y22276D02*
Y22354D01*
X6669D01*
Y22276D02*
Y22354D01*
X5331Y21646D02*
Y21724D01*
Y21646D02*
X6669D01*
Y21724D01*
X6000Y21646D02*
Y22354D01*
X12497Y22276D02*
Y22354D01*
X13836D01*
Y22276D02*
Y22354D01*
X12497Y21646D02*
Y21724D01*
Y21646D02*
X13836D01*
Y21724D01*
X13167Y21646D02*
Y22354D01*
D14*
X12181Y5488D02*
X14819D01*
X12181Y6512D02*
X14819D01*
X12181Y5488D02*
Y6512D01*
X14819Y5488D02*
Y6512D01*
X15610Y4504D02*
Y4720D01*
X15344D02*
X15610D01*
X16890D02*
X17156D01*
X16890Y4504D02*
Y4720D01*
Y7496D02*
X17156D01*
X16890Y4504D02*
X17156D01*
X15344Y7496D02*
X15610D01*
X15344Y4504D02*
X15610D01*
X17156D02*
Y7496D01*
X15344Y4504D02*
Y7496D01*
X14724Y16785D02*
Y17091D01*
X15039D01*
X14724Y15909D02*
Y16215D01*
Y15909D02*
X15039D01*
D15*
X27870Y13120D02*
Y12620D01*
Y13120D02*
X28037D01*
X28108Y13096D01*
X28156Y13048D01*
X28179Y13001D01*
X28203Y12929D01*
Y12810D01*
X28179Y12739D01*
X28156Y12691D01*
X28108Y12644D01*
X28037Y12620D01*
X27870D01*
X28458Y13120D02*
X28410Y13096D01*
X28363Y13048D01*
X28339Y13001D01*
X28315Y12929D01*
Y12810D01*
X28339Y12739D01*
X28363Y12691D01*
X28410Y12644D01*
X28458Y12620D01*
X28553D01*
X28601Y12644D01*
X28648Y12691D01*
X28672Y12739D01*
X28696Y12810D01*
Y12929D01*
X28672Y13001D01*
X28648Y13048D01*
X28601Y13096D01*
X28553Y13120D01*
X28458D01*
X29098D02*
X28860D01*
X28836Y12906D01*
X28860Y12929D01*
X28932Y12953D01*
X29003D01*
X29074Y12929D01*
X29122Y12882D01*
X29146Y12810D01*
Y12763D01*
X29122Y12691D01*
X29074Y12644D01*
X29003Y12620D01*
X28932D01*
X28860Y12644D01*
X28836Y12668D01*
X28813Y12715D01*
X27870Y6870D02*
Y6370D01*
Y6870D02*
X28037D01*
X28108Y6846D01*
X28156Y6798D01*
X28179Y6751D01*
X28203Y6679D01*
Y6560D01*
X28179Y6489D01*
X28156Y6441D01*
X28108Y6394D01*
X28037Y6370D01*
X27870D01*
X28458Y6870D02*
X28410Y6846D01*
X28363Y6798D01*
X28339Y6751D01*
X28315Y6679D01*
Y6560D01*
X28339Y6489D01*
X28363Y6441D01*
X28410Y6394D01*
X28458Y6370D01*
X28553D01*
X28601Y6394D01*
X28648Y6441D01*
X28672Y6489D01*
X28696Y6560D01*
Y6679D01*
X28672Y6751D01*
X28648Y6798D01*
X28601Y6846D01*
X28553Y6870D01*
X28458D01*
X29051D02*
X28813Y6537D01*
X29170D01*
X29051Y6870D02*
Y6370D01*
X10630Y21620D02*
X11130D01*
X10630D02*
Y21787D01*
X10654Y21858D01*
X10702Y21906D01*
X10749Y21929D01*
X10821Y21953D01*
X10940D01*
X11011Y21929D01*
X11059Y21906D01*
X11106Y21858D01*
X11130Y21787D01*
Y21620D01*
X10630Y22208D02*
X10654Y22160D01*
X10702Y22113D01*
X10749Y22089D01*
X10821Y22065D01*
X10940D01*
X11011Y22089D01*
X11059Y22113D01*
X11106Y22160D01*
X11130Y22208D01*
Y22303D01*
X11106Y22351D01*
X11059Y22398D01*
X11011Y22422D01*
X10940Y22446D01*
X10821D01*
X10749Y22422D01*
X10702Y22398D01*
X10654Y22351D01*
X10630Y22303D01*
Y22208D01*
X10797Y22872D02*
X10868Y22848D01*
X10916Y22801D01*
X10940Y22729D01*
Y22705D01*
X10916Y22634D01*
X10868Y22586D01*
X10797Y22563D01*
X10773D01*
X10702Y22586D01*
X10654Y22634D01*
X10630Y22705D01*
Y22729D01*
X10654Y22801D01*
X10702Y22848D01*
X10797Y22872D01*
X10916D01*
X11035Y22848D01*
X11106Y22801D01*
X11130Y22729D01*
Y22682D01*
X11106Y22610D01*
X11059Y22586D01*
X27870Y870D02*
Y370D01*
Y870D02*
X28037D01*
X28108Y846D01*
X28156Y798D01*
X28179Y751D01*
X28203Y679D01*
Y560D01*
X28179Y489D01*
X28156Y441D01*
X28108Y394D01*
X28037Y370D01*
X27870D01*
X28458Y870D02*
X28410Y846D01*
X28363Y798D01*
X28339Y751D01*
X28315Y679D01*
Y560D01*
X28339Y489D01*
X28363Y441D01*
X28410Y394D01*
X28458Y370D01*
X28553D01*
X28601Y394D01*
X28648Y441D01*
X28672Y489D01*
X28696Y560D01*
Y679D01*
X28672Y751D01*
X28648Y798D01*
X28601Y846D01*
X28553Y870D01*
X28458D01*
X28860D02*
X29122D01*
X28979Y679D01*
X29051D01*
X29098Y656D01*
X29122Y632D01*
X29146Y560D01*
Y513D01*
X29122Y441D01*
X29074Y394D01*
X29003Y370D01*
X28932D01*
X28860Y394D01*
X28836Y418D01*
X28813Y465D01*
X9894Y9579D02*
Y9603D01*
X9918Y9651D01*
X9941Y9674D01*
X9989Y9698D01*
X10084D01*
X10132Y9674D01*
X10156Y9651D01*
X10179Y9603D01*
Y9555D01*
X10156Y9508D01*
X10108Y9436D01*
X9870Y9198D01*
X10203D01*
X10553Y9698D02*
X10315Y9365D01*
X10672D01*
X10553Y9698D02*
Y9198D01*
X10760Y9698D02*
X10951Y9198D01*
X11141Y9698D02*
X10951Y9198D01*
X9870Y8787D02*
X9894Y8763D01*
X9918Y8787D01*
X9894Y8810D01*
X9870Y8787D01*
X9894Y8620D02*
Y8287D01*
X10006Y8620D02*
Y8287D01*
Y8525D02*
X10077Y8596D01*
X10125Y8620D01*
X10196D01*
X10244Y8596D01*
X10268Y8525D01*
Y8287D01*
X10398Y8620D02*
Y8120D01*
Y8548D02*
X10446Y8596D01*
X10494Y8620D01*
X10565D01*
X10613Y8596D01*
X10660Y8548D01*
X10684Y8477D01*
Y8429D01*
X10660Y8358D01*
X10613Y8310D01*
X10565Y8287D01*
X10494D01*
X10446Y8310D01*
X10398Y8358D01*
X10791Y8620D02*
Y8382D01*
X10815Y8310D01*
X10863Y8287D01*
X10934D01*
X10982Y8310D01*
X11053Y8382D01*
Y8620D02*
Y8287D01*
X11255Y8787D02*
Y8382D01*
X11279Y8310D01*
X11327Y8287D01*
X11374D01*
X11184Y8620D02*
X11351D01*
X16909Y2000D02*
X16718Y2500D01*
X16528Y2000D01*
X16599Y2167D02*
X16837D01*
X17168Y2500D02*
X17097Y2476D01*
X17049Y2405D01*
X17026Y2286D01*
Y2214D01*
X17049Y2095D01*
X17097Y2024D01*
X17168Y2000D01*
X17216D01*
X17287Y2024D01*
X17335Y2095D01*
X17359Y2214D01*
Y2286D01*
X17335Y2405D01*
X17287Y2476D01*
X17216Y2500D01*
X17168D01*
X17471Y2214D02*
X17899D01*
X18332Y2500D02*
X18094D01*
X18071Y2286D01*
X18094Y2310D01*
X18166Y2333D01*
X18237D01*
X18309Y2310D01*
X18356Y2262D01*
X18380Y2190D01*
Y2143D01*
X18356Y2071D01*
X18309Y2024D01*
X18237Y2000D01*
X18166D01*
X18094Y2024D01*
X18071Y2048D01*
X18047Y2095D01*
X32380Y21620D02*
X32880D01*
X32380D02*
Y21787D01*
X32404Y21858D01*
X32452Y21906D01*
X32499Y21929D01*
X32571Y21953D01*
X32690D01*
X32761Y21929D01*
X32809Y21906D01*
X32856Y21858D01*
X32880Y21787D01*
Y21620D01*
X32380Y22208D02*
X32404Y22160D01*
X32452Y22113D01*
X32499Y22089D01*
X32571Y22065D01*
X32690D01*
X32761Y22089D01*
X32809Y22113D01*
X32856Y22160D01*
X32880Y22208D01*
Y22303D01*
X32856Y22351D01*
X32809Y22398D01*
X32761Y22422D01*
X32690Y22446D01*
X32571D01*
X32499Y22422D01*
X32452Y22398D01*
X32404Y22351D01*
X32380Y22303D01*
Y22208D01*
X32452Y22848D02*
X32404Y22824D01*
X32380Y22753D01*
Y22705D01*
X32404Y22634D01*
X32475Y22586D01*
X32594Y22563D01*
X32713D01*
X32809Y22586D01*
X32856Y22634D01*
X32880Y22705D01*
Y22729D01*
X32856Y22801D01*
X32809Y22848D01*
X32737Y22872D01*
X32713D01*
X32642Y22848D01*
X32594Y22801D01*
X32571Y22729D01*
Y22705D01*
X32594Y22634D01*
X32642Y22586D01*
X32713Y22563D01*
X17461Y3381D02*
X17437Y3429D01*
X17390Y3476D01*
X17342Y3500D01*
X17247D01*
X17199Y3476D01*
X17152Y3429D01*
X17128Y3381D01*
X17104Y3310D01*
Y3190D01*
X17128Y3119D01*
X17152Y3071D01*
X17199Y3024D01*
X17247Y3000D01*
X17342D01*
X17390Y3024D01*
X17437Y3071D01*
X17461Y3119D01*
Y3190D01*
X17342D02*
X17461D01*
X17575Y3500D02*
Y3000D01*
Y3500D02*
X17909Y3000D01*
Y3500D02*
Y3000D01*
X18047Y3500D02*
Y3000D01*
Y3500D02*
X18213D01*
X18285Y3476D01*
X18332Y3429D01*
X18356Y3381D01*
X18380Y3310D01*
Y3190D01*
X18356Y3119D01*
X18332Y3071D01*
X18285Y3024D01*
X18213Y3000D01*
X18047D01*
X25130Y21620D02*
X25630D01*
X25130D02*
Y21787D01*
X25154Y21858D01*
X25202Y21906D01*
X25249Y21929D01*
X25321Y21953D01*
X25440D01*
X25511Y21929D01*
X25559Y21906D01*
X25606Y21858D01*
X25630Y21787D01*
Y21620D01*
X25130Y22208D02*
X25154Y22160D01*
X25202Y22113D01*
X25249Y22089D01*
X25321Y22065D01*
X25440D01*
X25511Y22089D01*
X25559Y22113D01*
X25606Y22160D01*
X25630Y22208D01*
Y22303D01*
X25606Y22351D01*
X25559Y22398D01*
X25511Y22422D01*
X25440Y22446D01*
X25321D01*
X25249Y22422D01*
X25202Y22398D01*
X25154Y22351D01*
X25130Y22303D01*
Y22208D01*
Y22896D02*
X25630Y22658D01*
X25130Y22563D02*
Y22896D01*
X17880Y21620D02*
X18380D01*
X17880D02*
Y21787D01*
X17904Y21858D01*
X17952Y21906D01*
X17999Y21929D01*
X18071Y21953D01*
X18190D01*
X18261Y21929D01*
X18309Y21906D01*
X18356Y21858D01*
X18380Y21787D01*
Y21620D01*
X17880Y22208D02*
X17904Y22160D01*
X17952Y22113D01*
X17999Y22089D01*
X18071Y22065D01*
X18190D01*
X18261Y22089D01*
X18309Y22113D01*
X18356Y22160D01*
X18380Y22208D01*
Y22303D01*
X18356Y22351D01*
X18309Y22398D01*
X18261Y22422D01*
X18190Y22446D01*
X18071D01*
X17999Y22422D01*
X17952Y22398D01*
X17904Y22351D01*
X17880Y22303D01*
Y22208D01*
Y22682D02*
X17904Y22610D01*
X17952Y22586D01*
X17999D01*
X18047Y22610D01*
X18071Y22658D01*
X18094Y22753D01*
X18118Y22824D01*
X18166Y22872D01*
X18213Y22896D01*
X18285D01*
X18332Y22872D01*
X18356Y22848D01*
X18380Y22777D01*
Y22682D01*
X18356Y22610D01*
X18332Y22586D01*
X18285Y22563D01*
X18213D01*
X18166Y22586D01*
X18118Y22634D01*
X18094Y22705D01*
X18071Y22801D01*
X18047Y22848D01*
X17999Y22872D01*
X17952D01*
X17904Y22848D01*
X17880Y22777D01*
Y22682D01*
X5929Y3583D02*
X5906Y3512D01*
X5858Y3464D01*
X5787Y3440D01*
X5763D01*
X5691Y3464D01*
X5644Y3512D01*
X5620Y3583D01*
Y3607D01*
X5644Y3679D01*
X5691Y3726D01*
X5763Y3750D01*
X5787D01*
X5858Y3726D01*
X5906Y3679D01*
X5929Y3583D01*
Y3464D01*
X5906Y3345D01*
X5858Y3274D01*
X5787Y3250D01*
X5739D01*
X5668Y3274D01*
X5644Y3321D01*
X6065Y3750D02*
X6256Y3250D01*
X6446Y3750D02*
X6256Y3250D01*
X13646Y18640D02*
Y18140D01*
Y18640D02*
X13812D01*
X13884Y18616D01*
X13931Y18568D01*
X13955Y18521D01*
X13979Y18449D01*
Y18330D01*
X13955Y18259D01*
X13931Y18211D01*
X13884Y18163D01*
X13812Y18140D01*
X13646D01*
X14234Y18640D02*
X14186Y18616D01*
X14138Y18568D01*
X14115Y18521D01*
X14091Y18449D01*
Y18330D01*
X14115Y18259D01*
X14138Y18211D01*
X14186Y18163D01*
X14234Y18140D01*
X14329D01*
X14376Y18163D01*
X14424Y18211D01*
X14448Y18259D01*
X14472Y18330D01*
Y18449D01*
X14448Y18521D01*
X14424Y18568D01*
X14376Y18616D01*
X14329Y18640D01*
X14234D01*
X14612Y18521D02*
Y18544D01*
X14636Y18592D01*
X14660Y18616D01*
X14707Y18640D01*
X14802D01*
X14850Y18616D01*
X14874Y18592D01*
X14898Y18544D01*
Y18497D01*
X14874Y18449D01*
X14826Y18378D01*
X14588Y18140D01*
X14922D01*
D16*
X15477Y4612D02*
D03*
X17023Y4612D02*
D03*
M02*
