G04*
G04 #@! TF.GenerationSoftware,Altium Limited,Altium Designer,20.0.13 (296)*
G04*
G04 Layer_Physical_Order=1*
G04 Layer_Color=255*
%FSLAX24Y24*%
%MOIN*%
G70*
G01*
G75*
%ADD17R,0.0354X0.0354*%
%ADD18R,0.0591X0.0591*%
%ADD19R,0.0354X0.0354*%
%ADD20R,0.0591X0.0591*%
%ADD21R,0.0453X0.0531*%
%ADD22R,0.0551X0.0512*%
%ADD23R,0.0394X0.1063*%
%ADD24R,0.1299X0.1063*%
%ADD25R,0.0965X0.1004*%
%ADD26R,0.0383X0.0316*%
%ADD43C,0.0150*%
%ADD44C,0.0600*%
G04:AMPARAMS|DCode=45|XSize=70.9mil|YSize=70.9mil|CornerRadius=8.9mil|HoleSize=0mil|Usage=FLASHONLY|Rotation=0.000|XOffset=0mil|YOffset=0mil|HoleType=Round|Shape=RoundedRectangle|*
%AMROUNDEDRECTD45*
21,1,0.0709,0.0531,0,0,0.0*
21,1,0.0531,0.0709,0,0,0.0*
1,1,0.0177,0.0266,-0.0266*
1,1,0.0177,-0.0266,-0.0266*
1,1,0.0177,-0.0266,0.0266*
1,1,0.0177,0.0266,0.0266*
%
%ADD45ROUNDEDRECTD45*%
%ADD46C,0.0709*%
G04:AMPARAMS|DCode=47|XSize=70.9mil|YSize=70.9mil|CornerRadius=8.9mil|HoleSize=0mil|Usage=FLASHONLY|Rotation=270.000|XOffset=0mil|YOffset=0mil|HoleType=Round|Shape=RoundedRectangle|*
%AMROUNDEDRECTD47*
21,1,0.0709,0.0531,0,0,270.0*
21,1,0.0531,0.0709,0,0,270.0*
1,1,0.0177,-0.0266,-0.0266*
1,1,0.0177,-0.0266,0.0266*
1,1,0.0177,0.0266,0.0266*
1,1,0.0177,0.0266,-0.0266*
%
%ADD47ROUNDEDRECTD47*%
%ADD48C,0.0500*%
%ADD49C,0.1250*%
G36*
X33250Y26500D02*
Y250D01*
X33000Y0D01*
X4250D01*
X4000Y250D01*
Y10750D01*
X4250Y11000D01*
X7250D01*
X7500Y11250D01*
Y18750D01*
X7250Y19000D01*
X4250D01*
X4000Y19250D01*
Y26500D01*
X4250Y26750D01*
X33000D01*
X33250Y26500D01*
D02*
G37*
%LPC*%
G36*
X12511Y26395D02*
X12166D01*
Y26050D01*
X12511D01*
Y26395D01*
D02*
G37*
G36*
X5261D02*
X4916D01*
Y26050D01*
X5261D01*
Y26395D01*
D02*
G37*
G36*
X19761D02*
X19416D01*
Y26050D01*
X19761D01*
Y26395D01*
D02*
G37*
G36*
X27011D02*
X26666D01*
Y26050D01*
X27011D01*
Y26395D01*
D02*
G37*
G36*
X28834D02*
X28044D01*
Y26064D01*
X28027Y26021D01*
X27994Y26021D01*
X27800D01*
Y25744D01*
Y25467D01*
X28027D01*
Y25562D01*
X28044Y25605D01*
X28077Y25605D01*
X28322D01*
Y24324D01*
X27029Y23032D01*
X26991Y22974D01*
X26977Y22906D01*
Y22366D01*
X26829D01*
Y21634D01*
X27468D01*
X27482Y21634D01*
X27518D01*
X27532Y21634D01*
X27817D01*
Y21509D01*
X27822Y21488D01*
Y21324D01*
X27676Y21178D01*
X24031D01*
X24014Y21228D01*
X24074Y21274D01*
X24147Y21369D01*
X24193Y21480D01*
X24202Y21548D01*
X23298D01*
X23307Y21480D01*
X23353Y21369D01*
X23426Y21274D01*
X23486Y21228D01*
X23469Y21178D01*
X23200D01*
X23173Y21228D01*
X23193Y21259D01*
X23208Y21333D01*
Y21864D01*
X23193Y21938D01*
X23152Y22000D01*
X23089Y22042D01*
X23016Y22056D01*
X22484D01*
X22411Y22042D01*
X22360Y22008D01*
X22245D01*
X22126Y22126D01*
X22068Y22165D01*
X22000Y22178D01*
X21004D01*
Y22366D01*
X20365D01*
X20351Y22366D01*
X20315D01*
X20301Y22366D01*
X20167D01*
Y22915D01*
X21376Y24124D01*
X21415Y24182D01*
X21428Y24250D01*
X21428Y24250D01*
Y25605D01*
X21584D01*
Y26395D01*
X20794D01*
Y26064D01*
X20777Y26021D01*
X20744Y26021D01*
X20550D01*
Y25744D01*
Y25467D01*
X20777D01*
Y25562D01*
X20794Y25605D01*
X20827Y25605D01*
X21072D01*
Y24324D01*
X19863Y23115D01*
X19824Y23057D01*
X19810Y22989D01*
Y22366D01*
X19662D01*
Y21656D01*
X19662Y21634D01*
X19624Y21606D01*
X18928D01*
X18928Y21606D01*
X18860Y21593D01*
X18802Y21554D01*
X18802Y21554D01*
X17874Y20626D01*
X17835Y20568D01*
X17822Y20500D01*
Y20458D01*
X17734D01*
X17661Y20443D01*
X17598Y20402D01*
X17557Y20339D01*
X17542Y20266D01*
Y19734D01*
X17557Y19661D01*
X17598Y19598D01*
X17661Y19557D01*
X17734Y19542D01*
X18266D01*
X18339Y19557D01*
X18402Y19598D01*
X18443Y19661D01*
X18458Y19734D01*
Y20266D01*
X18443Y20339D01*
X18402Y20402D01*
X18339Y20443D01*
X18279Y20455D01*
X18255Y20503D01*
X19002Y21249D01*
X20428D01*
X20496Y21263D01*
X20554Y21302D01*
X20653Y21400D01*
X20653Y21400D01*
X20691Y21458D01*
X20705Y21526D01*
X20705Y21526D01*
Y21634D01*
X21004D01*
Y21822D01*
X21926D01*
X22044Y21703D01*
X22044Y21703D01*
X22102Y21664D01*
X22171Y21651D01*
X22292D01*
Y21333D01*
X22307Y21259D01*
X22327Y21228D01*
X22300Y21178D01*
X20000D01*
X20000Y21178D01*
X19932Y21165D01*
X19874Y21126D01*
X19874Y21126D01*
X19169Y20422D01*
X19119Y20443D01*
X19000Y20458D01*
X18881Y20443D01*
X18771Y20397D01*
X18676Y20324D01*
X18603Y20229D01*
X18557Y20119D01*
X18542Y20000D01*
X18557Y19881D01*
X18603Y19771D01*
X18676Y19676D01*
X18771Y19603D01*
X18881Y19557D01*
X19000Y19542D01*
X19119Y19557D01*
X19229Y19603D01*
X19324Y19676D01*
X19397Y19771D01*
X19443Y19881D01*
X19458Y20000D01*
X19443Y20119D01*
X19422Y20169D01*
X20074Y20822D01*
X20504D01*
X20523Y20775D01*
X20169Y20422D01*
X20119Y20443D01*
X20000Y20458D01*
X19881Y20443D01*
X19771Y20397D01*
X19676Y20324D01*
X19603Y20229D01*
X19557Y20119D01*
X19542Y20000D01*
X19557Y19881D01*
X19603Y19771D01*
X19676Y19676D01*
X19771Y19603D01*
X19881Y19557D01*
X20000Y19542D01*
X20119Y19557D01*
X20229Y19603D01*
X20324Y19676D01*
X20397Y19771D01*
X20443Y19881D01*
X20458Y20000D01*
X20443Y20119D01*
X20422Y20169D01*
X20824Y20572D01*
X27176D01*
X29477Y18271D01*
Y17866D01*
X29329D01*
Y17678D01*
X29000D01*
X29000Y17678D01*
X28932Y17665D01*
X28874Y17626D01*
X28874Y17626D01*
X27936Y16688D01*
X27897Y16630D01*
X27884Y16562D01*
Y16188D01*
X27897Y16120D01*
X27920Y16086D01*
Y15958D01*
X27833D01*
X27759Y15943D01*
X27697Y15902D01*
X27655Y15839D01*
X27640Y15766D01*
Y15234D01*
X27655Y15161D01*
X27697Y15098D01*
X27759Y15057D01*
X27833Y15042D01*
X28364D01*
X28438Y15057D01*
X28500Y15098D01*
X28542Y15161D01*
X28556Y15234D01*
Y15766D01*
X28542Y15839D01*
X28500Y15902D01*
X28438Y15943D01*
X28364Y15958D01*
X28277D01*
Y16152D01*
X28263Y16220D01*
X28241Y16254D01*
Y16488D01*
X29074Y17322D01*
X29329D01*
Y17134D01*
X29968D01*
X29982Y17134D01*
X30018D01*
X30032Y17134D01*
X30671D01*
Y17322D01*
X31426D01*
X31624Y17124D01*
X31624Y17124D01*
X31682Y17085D01*
X31750Y17072D01*
X32105D01*
Y16916D01*
X32895D01*
Y17706D01*
X32564D01*
X32521Y17723D01*
X32521Y17756D01*
Y17950D01*
X31967D01*
Y17723D01*
X32062D01*
X32105Y17706D01*
X32105Y17673D01*
Y17428D01*
X31824D01*
X31626Y17626D01*
X31568Y17665D01*
X31500Y17678D01*
X30671D01*
Y17866D01*
X30032D01*
X30018Y17866D01*
X29982D01*
X29968Y17866D01*
X29834D01*
Y18344D01*
X29834Y18344D01*
X29820Y18413D01*
X29782Y18471D01*
X29782Y18471D01*
X27477Y20775D01*
X27496Y20822D01*
X27750D01*
X27818Y20835D01*
X27876Y20874D01*
X28126Y21124D01*
X28126Y21124D01*
X28165Y21182D01*
X28178Y21250D01*
Y21505D01*
X28174Y21526D01*
Y21822D01*
X28426D01*
X28775Y21472D01*
X28833Y21434D01*
X28902Y21420D01*
X28902Y21420D01*
X29542D01*
Y21333D01*
X29557Y21259D01*
X29598Y21197D01*
X29661Y21155D01*
X29734Y21140D01*
X30266D01*
X30339Y21155D01*
X30402Y21197D01*
X30443Y21259D01*
X30458Y21333D01*
Y21864D01*
X30443Y21938D01*
X30402Y22000D01*
X30339Y22042D01*
X30266Y22056D01*
X29734D01*
X29661Y22042D01*
X29598Y22000D01*
X29557Y21938D01*
X29542Y21864D01*
Y21777D01*
X28975D01*
X28626Y22126D01*
X28568Y22165D01*
X28500Y22178D01*
X28171D01*
Y22366D01*
X27532D01*
X27518Y22366D01*
X27482D01*
X27468Y22366D01*
X27334D01*
Y22832D01*
X28626Y24124D01*
X28665Y24182D01*
X28678Y24250D01*
X28678Y24250D01*
Y25605D01*
X28834D01*
Y26395D01*
D02*
G37*
G36*
X14334D02*
X13544D01*
Y26064D01*
X13527Y26021D01*
X13494Y26021D01*
X13300D01*
Y25744D01*
Y25467D01*
X13527D01*
Y25562D01*
X13544Y25605D01*
X13577Y25605D01*
X13822D01*
Y24074D01*
X12696Y22948D01*
X12657Y22890D01*
X12644Y22822D01*
Y22366D01*
X12496D01*
Y21634D01*
X13135D01*
X13149Y21634D01*
X13185D01*
X13199Y21634D01*
X13838D01*
Y21822D01*
X14176D01*
X14525Y21472D01*
X14583Y21434D01*
X14652Y21420D01*
X14652Y21420D01*
X15042D01*
Y21333D01*
X15057Y21259D01*
X15098Y21197D01*
X15161Y21155D01*
X15234Y21140D01*
X15552D01*
Y21019D01*
X15566Y20951D01*
X15605Y20893D01*
X16100Y20398D01*
X16097Y20340D01*
X16076Y20324D01*
X16003Y20229D01*
X15957Y20119D01*
X15942Y20000D01*
X15957Y19881D01*
X16003Y19771D01*
X16076Y19676D01*
X16171Y19603D01*
X16281Y19557D01*
X16400Y19542D01*
X16519Y19557D01*
X16629Y19603D01*
X16724Y19676D01*
X16797Y19771D01*
X16843Y19881D01*
X16858Y20000D01*
X16843Y20119D01*
X16797Y20229D01*
X16724Y20324D01*
X16629Y20397D01*
X16519Y20443D01*
X16472Y20449D01*
Y20457D01*
X16458Y20525D01*
X16419Y20583D01*
X16419Y20583D01*
X15909Y21093D01*
Y21208D01*
X15943Y21259D01*
X15958Y21333D01*
Y21864D01*
X15943Y21938D01*
X15902Y22000D01*
X15839Y22042D01*
X15766Y22056D01*
X15234D01*
X15161Y22042D01*
X15098Y22000D01*
X15057Y21938D01*
X15042Y21864D01*
Y21777D01*
X14725D01*
X14376Y22126D01*
X14318Y22165D01*
X14250Y22178D01*
X13838D01*
Y22366D01*
X13199D01*
X13185Y22366D01*
X13149D01*
X13135Y22366D01*
X13001D01*
Y22748D01*
X14126Y23874D01*
X14165Y23932D01*
X14178Y24000D01*
X14178Y24000D01*
Y25605D01*
X14334D01*
Y26395D01*
D02*
G37*
G36*
X7084D02*
X6294D01*
Y26064D01*
X6277Y26021D01*
X6244Y26021D01*
X6050D01*
Y25744D01*
Y25467D01*
X6277D01*
Y25562D01*
X6294Y25605D01*
X6327Y25605D01*
X6572D01*
Y25074D01*
X5529Y24032D01*
X5491Y23974D01*
X5477Y23906D01*
Y22366D01*
X5329D01*
Y21634D01*
X5968D01*
X5982Y21634D01*
X6018D01*
X6032Y21634D01*
X6671D01*
Y21822D01*
X7176D01*
X7335Y21663D01*
X7393Y21624D01*
X7461Y21611D01*
X7461Y21611D01*
X7792D01*
Y21333D01*
X7807Y21259D01*
X7848Y21197D01*
X7911Y21155D01*
X7984Y21140D01*
X8072D01*
Y21000D01*
X8085Y20932D01*
X8124Y20874D01*
X8374Y20624D01*
X8374Y20624D01*
X8432Y20585D01*
X8500Y20572D01*
X15176D01*
X15222Y20526D01*
Y20418D01*
X15171Y20397D01*
X15076Y20324D01*
X15003Y20229D01*
X14957Y20119D01*
X14942Y20000D01*
X14957Y19881D01*
X15003Y19771D01*
X15076Y19676D01*
X15171Y19603D01*
X15281Y19557D01*
X15400Y19542D01*
X15519Y19557D01*
X15629Y19603D01*
X15724Y19676D01*
X15797Y19771D01*
X15843Y19881D01*
X15858Y20000D01*
X15843Y20119D01*
X15797Y20229D01*
X15724Y20324D01*
X15629Y20397D01*
X15578Y20418D01*
Y20600D01*
X15565Y20668D01*
X15526Y20726D01*
X15376Y20876D01*
X15318Y20915D01*
X15250Y20928D01*
X8574D01*
X8428Y21074D01*
Y21140D01*
X8516D01*
X8589Y21155D01*
X8652Y21197D01*
X8693Y21259D01*
X8708Y21333D01*
Y21864D01*
X8693Y21938D01*
X8652Y22000D01*
X8589Y22042D01*
X8516Y22056D01*
X7984D01*
X7911Y22042D01*
X7848Y22000D01*
X7827Y21968D01*
X7535D01*
X7376Y22126D01*
X7318Y22165D01*
X7250Y22178D01*
X6671D01*
Y22366D01*
X6032D01*
X6018Y22366D01*
X5982D01*
X5968Y22366D01*
X5834D01*
Y23832D01*
X6876Y24874D01*
X6876Y24874D01*
X6915Y24932D01*
X6928Y25000D01*
X6928Y25000D01*
Y25605D01*
X7084D01*
Y26395D01*
D02*
G37*
G36*
X12511Y25950D02*
X12166D01*
Y25605D01*
X12511D01*
Y25950D01*
D02*
G37*
G36*
X5261D02*
X4916D01*
Y25605D01*
X5261D01*
Y25950D01*
D02*
G37*
G36*
X19761D02*
X19416D01*
Y25605D01*
X19761D01*
Y25950D01*
D02*
G37*
G36*
X27011D02*
X26666D01*
Y25605D01*
X27011D01*
Y25950D01*
D02*
G37*
G36*
X27456Y26395D02*
X27111D01*
Y26000D01*
Y25605D01*
X27423D01*
X27456Y25605D01*
X27473Y25562D01*
Y25467D01*
X27700D01*
Y25744D01*
Y26021D01*
X27473Y26021D01*
X27456Y26064D01*
Y26395D01*
D02*
G37*
G36*
X20206D02*
X19861D01*
Y26000D01*
Y25605D01*
X20173D01*
X20206Y25605D01*
X20223Y25562D01*
Y25467D01*
X20450D01*
Y25744D01*
Y26021D01*
X20223Y26021D01*
X20206Y26064D01*
Y26395D01*
D02*
G37*
G36*
X12956D02*
X12611D01*
Y26000D01*
Y25605D01*
X12923D01*
X12956Y25605D01*
X12973Y25562D01*
Y25467D01*
X13200D01*
Y25744D01*
Y26021D01*
X12973Y26021D01*
X12956Y26064D01*
Y26395D01*
D02*
G37*
G36*
X5706D02*
X5361D01*
Y26000D01*
Y25605D01*
X5673D01*
X5706Y25605D01*
X5723Y25562D01*
Y25467D01*
X5950D01*
Y25744D01*
Y26021D01*
X5723Y26021D01*
X5706Y26064D01*
Y26395D01*
D02*
G37*
G36*
X31050Y22050D02*
Y21648D01*
X31452D01*
X31443Y21717D01*
X31397Y21828D01*
X31324Y21922D01*
X31229Y21995D01*
X31119Y22041D01*
X31050Y22050D01*
D02*
G37*
G36*
X30950D02*
X30881Y22041D01*
X30771Y21995D01*
X30676Y21922D01*
X30603Y21828D01*
X30557Y21717D01*
X30548Y21648D01*
X30950D01*
Y22050D01*
D02*
G37*
G36*
X23800D02*
Y21648D01*
X24202D01*
X24193Y21717D01*
X24147Y21828D01*
X24074Y21922D01*
X23979Y21995D01*
X23869Y22041D01*
X23800Y22050D01*
D02*
G37*
G36*
X23700D02*
X23631Y22041D01*
X23521Y21995D01*
X23426Y21922D01*
X23353Y21828D01*
X23307Y21717D01*
X23298Y21648D01*
X23700D01*
Y22050D01*
D02*
G37*
G36*
X16550D02*
Y21648D01*
X16952D01*
X16943Y21717D01*
X16897Y21828D01*
X16824Y21922D01*
X16729Y21995D01*
X16619Y22041D01*
X16550Y22050D01*
D02*
G37*
G36*
X16450D02*
X16381Y22041D01*
X16271Y21995D01*
X16176Y21922D01*
X16103Y21828D01*
X16057Y21717D01*
X16048Y21648D01*
X16450D01*
Y22050D01*
D02*
G37*
G36*
X9300D02*
Y21648D01*
X9702D01*
X9693Y21717D01*
X9647Y21828D01*
X9574Y21922D01*
X9479Y21995D01*
X9369Y22041D01*
X9300Y22050D01*
D02*
G37*
G36*
X9200D02*
X9131Y22041D01*
X9021Y21995D01*
X8926Y21922D01*
X8853Y21828D01*
X8807Y21717D01*
X8798Y21648D01*
X9200D01*
Y22050D01*
D02*
G37*
G36*
X31452Y21548D02*
X31050D01*
Y21147D01*
X31119Y21156D01*
X31229Y21202D01*
X31324Y21274D01*
X31397Y21369D01*
X31443Y21480D01*
X31452Y21548D01*
D02*
G37*
G36*
X30950D02*
X30548D01*
X30557Y21480D01*
X30603Y21369D01*
X30676Y21274D01*
X30771Y21202D01*
X30881Y21156D01*
X30950Y21147D01*
Y21548D01*
D02*
G37*
G36*
X16952D02*
X16550D01*
Y21147D01*
X16619Y21156D01*
X16729Y21202D01*
X16824Y21274D01*
X16897Y21369D01*
X16943Y21480D01*
X16952Y21548D01*
D02*
G37*
G36*
X16450D02*
X16048D01*
X16057Y21480D01*
X16103Y21369D01*
X16176Y21274D01*
X16271Y21202D01*
X16381Y21156D01*
X16450Y21147D01*
Y21548D01*
D02*
G37*
G36*
X9702D02*
X9300D01*
Y21147D01*
X9369Y21156D01*
X9479Y21202D01*
X9574Y21274D01*
X9647Y21369D01*
X9693Y21480D01*
X9702Y21548D01*
D02*
G37*
G36*
X9200D02*
X8798D01*
X8807Y21480D01*
X8853Y21369D01*
X8926Y21274D01*
X9021Y21202D01*
X9131Y21156D01*
X9200Y21147D01*
Y21548D01*
D02*
G37*
G36*
X10450Y20452D02*
Y20050D01*
X10852D01*
X10843Y20119D01*
X10797Y20229D01*
X10724Y20324D01*
X10629Y20397D01*
X10519Y20443D01*
X10450Y20452D01*
D02*
G37*
G36*
X10350D02*
X10281Y20443D01*
X10171Y20397D01*
X10076Y20324D01*
X10003Y20229D01*
X9957Y20119D01*
X9948Y20050D01*
X10350D01*
Y20452D01*
D02*
G37*
G36*
X10852Y19950D02*
X10450D01*
Y19548D01*
X10519Y19557D01*
X10629Y19603D01*
X10724Y19676D01*
X10797Y19771D01*
X10843Y19881D01*
X10852Y19950D01*
D02*
G37*
G36*
X10350D02*
X9948D01*
X9957Y19881D01*
X10003Y19771D01*
X10076Y19676D01*
X10171Y19603D01*
X10281Y19557D01*
X10350Y19548D01*
Y19950D01*
D02*
G37*
G36*
X7666Y20458D02*
X7134D01*
X7061Y20443D01*
X6998Y20402D01*
X6957Y20339D01*
X6942Y20266D01*
Y19734D01*
X6957Y19661D01*
X6998Y19598D01*
X7061Y19557D01*
X7134Y19542D01*
X7666D01*
X7739Y19557D01*
X7802Y19598D01*
X7843Y19661D01*
X7858Y19734D01*
Y20266D01*
X7843Y20339D01*
X7802Y20402D01*
X7739Y20443D01*
X7666Y20458D01*
D02*
G37*
G36*
X25000Y20458D02*
X24881Y20443D01*
X24771Y20397D01*
X24676Y20324D01*
X24603Y20229D01*
X24557Y20119D01*
X24542Y20000D01*
X24557Y19881D01*
X24603Y19771D01*
X24676Y19676D01*
X24771Y19603D01*
X24881Y19557D01*
X25000Y19542D01*
X25119Y19557D01*
X25229Y19603D01*
X25324Y19676D01*
X25397Y19771D01*
X25443Y19881D01*
X25458Y20000D01*
X25443Y20119D01*
X25397Y20229D01*
X25324Y20324D01*
X25229Y20397D01*
X25119Y20443D01*
X25000Y20458D01*
D02*
G37*
G36*
X24000D02*
X23881Y20443D01*
X23771Y20397D01*
X23676Y20324D01*
X23603Y20229D01*
X23557Y20119D01*
X23542Y20000D01*
X23557Y19881D01*
X23603Y19771D01*
X23676Y19676D01*
X23771Y19603D01*
X23881Y19557D01*
X24000Y19542D01*
X24119Y19557D01*
X24229Y19603D01*
X24324Y19676D01*
X24397Y19771D01*
X24443Y19881D01*
X24458Y20000D01*
X24443Y20119D01*
X24397Y20229D01*
X24324Y20324D01*
X24229Y20397D01*
X24119Y20443D01*
X24000Y20458D01*
D02*
G37*
G36*
X23000D02*
X22881Y20443D01*
X22771Y20397D01*
X22676Y20324D01*
X22603Y20229D01*
X22557Y20119D01*
X22542Y20000D01*
X22557Y19881D01*
X22603Y19771D01*
X22676Y19676D01*
X22771Y19603D01*
X22881Y19557D01*
X23000Y19542D01*
X23119Y19557D01*
X23229Y19603D01*
X23324Y19676D01*
X23397Y19771D01*
X23443Y19881D01*
X23458Y20000D01*
X23443Y20119D01*
X23397Y20229D01*
X23324Y20324D01*
X23229Y20397D01*
X23119Y20443D01*
X23000Y20458D01*
D02*
G37*
G36*
X22000D02*
X21881Y20443D01*
X21771Y20397D01*
X21676Y20324D01*
X21603Y20229D01*
X21557Y20119D01*
X21542Y20000D01*
X21557Y19881D01*
X21603Y19771D01*
X21676Y19676D01*
X21771Y19603D01*
X21881Y19557D01*
X22000Y19542D01*
X22119Y19557D01*
X22229Y19603D01*
X22324Y19676D01*
X22397Y19771D01*
X22443Y19881D01*
X22458Y20000D01*
X22443Y20119D01*
X22397Y20229D01*
X22324Y20324D01*
X22229Y20397D01*
X22119Y20443D01*
X22000Y20458D01*
D02*
G37*
G36*
X14400D02*
X14281Y20443D01*
X14171Y20397D01*
X14076Y20324D01*
X14003Y20229D01*
X13957Y20119D01*
X13942Y20000D01*
X13957Y19881D01*
X14003Y19771D01*
X14076Y19676D01*
X14171Y19603D01*
X14281Y19557D01*
X14400Y19542D01*
X14519Y19557D01*
X14629Y19603D01*
X14724Y19676D01*
X14797Y19771D01*
X14843Y19881D01*
X14858Y20000D01*
X14843Y20119D01*
X14797Y20229D01*
X14724Y20324D01*
X14629Y20397D01*
X14519Y20443D01*
X14400Y20458D01*
D02*
G37*
G36*
X13400D02*
X13281Y20443D01*
X13171Y20397D01*
X13076Y20324D01*
X13003Y20229D01*
X12957Y20119D01*
X12942Y20000D01*
X12957Y19881D01*
X13003Y19771D01*
X13076Y19676D01*
X13171Y19603D01*
X13281Y19557D01*
X13400Y19542D01*
X13519Y19557D01*
X13629Y19603D01*
X13724Y19676D01*
X13797Y19771D01*
X13843Y19881D01*
X13858Y20000D01*
X13843Y20119D01*
X13797Y20229D01*
X13724Y20324D01*
X13629Y20397D01*
X13519Y20443D01*
X13400Y20458D01*
D02*
G37*
G36*
X12400D02*
X12281Y20443D01*
X12171Y20397D01*
X12076Y20324D01*
X12003Y20229D01*
X11957Y20119D01*
X11942Y20000D01*
X11957Y19881D01*
X12003Y19771D01*
X12076Y19676D01*
X12171Y19603D01*
X12281Y19557D01*
X12400Y19542D01*
X12519Y19557D01*
X12629Y19603D01*
X12724Y19676D01*
X12797Y19771D01*
X12843Y19881D01*
X12858Y20000D01*
X12843Y20119D01*
X12797Y20229D01*
X12724Y20324D01*
X12629Y20397D01*
X12519Y20443D01*
X12400Y20458D01*
D02*
G37*
G36*
X11400D02*
X11281Y20443D01*
X11171Y20397D01*
X11076Y20324D01*
X11003Y20229D01*
X10957Y20119D01*
X10942Y20000D01*
X10957Y19881D01*
X11003Y19771D01*
X11076Y19676D01*
X11171Y19603D01*
X11281Y19557D01*
X11400Y19542D01*
X11519Y19557D01*
X11629Y19603D01*
X11724Y19676D01*
X11797Y19771D01*
X11843Y19881D01*
X11858Y20000D01*
X11843Y20119D01*
X11797Y20229D01*
X11724Y20324D01*
X11629Y20397D01*
X11519Y20443D01*
X11400Y20458D01*
D02*
G37*
G36*
X9400D02*
X9281Y20443D01*
X9171Y20397D01*
X9076Y20324D01*
X9003Y20229D01*
X8957Y20119D01*
X8942Y20000D01*
X8957Y19881D01*
X9003Y19771D01*
X9076Y19676D01*
X9171Y19603D01*
X9281Y19557D01*
X9400Y19542D01*
X9519Y19557D01*
X9629Y19603D01*
X9724Y19676D01*
X9797Y19771D01*
X9843Y19881D01*
X9858Y20000D01*
X9843Y20119D01*
X9797Y20229D01*
X9724Y20324D01*
X9629Y20397D01*
X9519Y20443D01*
X9400Y20458D01*
D02*
G37*
G36*
X8400D02*
X8281Y20443D01*
X8171Y20397D01*
X8076Y20324D01*
X8003Y20229D01*
X7957Y20119D01*
X7942Y20000D01*
X7957Y19881D01*
X8003Y19771D01*
X8076Y19676D01*
X8171Y19603D01*
X8281Y19557D01*
X8400Y19542D01*
X8519Y19557D01*
X8629Y19603D01*
X8724Y19676D01*
X8797Y19771D01*
X8843Y19881D01*
X8858Y20000D01*
X8843Y20119D01*
X8797Y20229D01*
X8724Y20324D01*
X8629Y20397D01*
X8519Y20443D01*
X8400Y20458D01*
D02*
G37*
G36*
X32895Y19084D02*
X32550D01*
Y18739D01*
X32895D01*
Y19084D01*
D02*
G37*
G36*
X32450D02*
X32105D01*
Y18739D01*
X32450D01*
Y19084D01*
D02*
G37*
G36*
X32895Y18639D02*
X32105D01*
Y18327D01*
X32105Y18294D01*
X32062Y18277D01*
X31967D01*
Y18050D01*
X32521D01*
X32521Y18277D01*
X32564Y18294D01*
X32895D01*
Y18639D01*
D02*
G37*
G36*
X13300Y17952D02*
Y17550D01*
X13702D01*
X13693Y17619D01*
X13647Y17729D01*
X13574Y17824D01*
X13479Y17897D01*
X13369Y17943D01*
X13300Y17952D01*
D02*
G37*
G36*
X13200D02*
X13131Y17943D01*
X13021Y17897D01*
X12926Y17824D01*
X12853Y17729D01*
X12807Y17619D01*
X12798Y17550D01*
X13200D01*
Y17952D01*
D02*
G37*
G36*
X21000Y20458D02*
X20881Y20443D01*
X20771Y20397D01*
X20676Y20324D01*
X20603Y20229D01*
X20557Y20119D01*
X20542Y20000D01*
X20557Y19881D01*
X20603Y19771D01*
X20676Y19676D01*
X20771Y19603D01*
X20881Y19557D01*
X21000Y19542D01*
X21119Y19557D01*
X21169Y19578D01*
X23523Y17225D01*
X23504Y17178D01*
X23074D01*
X22341Y17911D01*
X22353Y18000D01*
X22341Y18091D01*
X22306Y18177D01*
X22250Y18250D01*
X22177Y18306D01*
X22091Y18341D01*
X22000Y18353D01*
X21909Y18341D01*
X21823Y18306D01*
X21750Y18250D01*
X21694Y18177D01*
X21659Y18091D01*
X21647Y18000D01*
X21659Y17909D01*
X21694Y17823D01*
X21750Y17750D01*
X21823Y17694D01*
X21909Y17659D01*
X22000Y17647D01*
X22089Y17659D01*
X22874Y16874D01*
X22874Y16874D01*
X22932Y16835D01*
X23000Y16822D01*
X23000Y16822D01*
X26676D01*
X26822Y16676D01*
Y6500D01*
X26835Y6432D01*
X26874Y6374D01*
X27933Y5315D01*
X27933Y5315D01*
X27991Y5276D01*
X28059Y5262D01*
X28059Y5262D01*
X29286D01*
X29301Y5212D01*
X29261Y5185D01*
X27943Y3868D01*
X27904Y3810D01*
X27891Y3741D01*
Y3708D01*
X27734D01*
X27661Y3693D01*
X27598Y3652D01*
X27557Y3589D01*
X27542Y3516D01*
Y2984D01*
X27557Y2911D01*
X27598Y2848D01*
X27661Y2807D01*
X27734Y2792D01*
X28266D01*
X28339Y2807D01*
X28402Y2848D01*
X28443Y2911D01*
X28458Y2984D01*
Y3516D01*
X28443Y3589D01*
X28402Y3652D01*
X28342Y3691D01*
X28335Y3700D01*
X28322Y3742D01*
X29461Y4881D01*
X29504D01*
X29521Y4884D01*
X29968D01*
X29982Y4884D01*
X30018D01*
X30032Y4884D01*
X30458D01*
X30468Y4874D01*
X30526Y4835D01*
X30594Y4822D01*
X30594Y4822D01*
X30926D01*
X31063Y4685D01*
X31063Y4685D01*
X31121Y4646D01*
X31189Y4633D01*
X32105D01*
Y4416D01*
X32895D01*
Y5206D01*
X32564D01*
X32521Y5223D01*
X32521Y5256D01*
Y5450D01*
X31967D01*
Y5223D01*
X32062D01*
X32105Y5206D01*
X32105Y5173D01*
Y4989D01*
X31263D01*
X31126Y5126D01*
X31068Y5165D01*
X31000Y5178D01*
X30671D01*
Y5616D01*
X30032D01*
X30018Y5616D01*
X29982D01*
X29968Y5616D01*
X29521D01*
X29504Y5619D01*
X28133D01*
X27178Y6574D01*
Y12754D01*
X27225Y12773D01*
X28748Y11250D01*
X27874Y10376D01*
X27835Y10318D01*
X27822Y10250D01*
Y9708D01*
X27734D01*
X27661Y9693D01*
X27598Y9652D01*
X27557Y9589D01*
X27542Y9516D01*
Y8984D01*
X27557Y8911D01*
X27598Y8848D01*
X27661Y8807D01*
X27734Y8792D01*
X28266D01*
X28339Y8807D01*
X28402Y8848D01*
X28443Y8911D01*
X28458Y8984D01*
Y9516D01*
X28443Y9589D01*
X28402Y9652D01*
X28339Y9693D01*
X28266Y9708D01*
X28178D01*
Y10176D01*
X29074Y11072D01*
X29579D01*
Y10884D01*
X30218D01*
X30232Y10884D01*
X30268D01*
X30282Y10884D01*
X30921D01*
Y11072D01*
X31426D01*
X31624Y10874D01*
X31624Y10874D01*
X31682Y10835D01*
X31750Y10822D01*
X32105D01*
Y10666D01*
X32895D01*
Y11456D01*
X32564D01*
X32521Y11473D01*
X32521Y11506D01*
Y11700D01*
X31967D01*
Y11473D01*
X32062D01*
X32105Y11456D01*
X32105Y11423D01*
Y11178D01*
X31824D01*
X31626Y11376D01*
X31568Y11415D01*
X31500Y11428D01*
X30921D01*
Y11616D01*
X30282D01*
X30268Y11616D01*
X30232D01*
X30218Y11616D01*
X29579D01*
Y11428D01*
X29074D01*
X27428Y13074D01*
Y17000D01*
X27415Y17068D01*
X27376Y17126D01*
X27376Y17126D01*
X27126Y17376D01*
X27068Y17415D01*
X27000Y17428D01*
X23824D01*
X21422Y19831D01*
X21443Y19881D01*
X21458Y20000D01*
X21443Y20119D01*
X21397Y20229D01*
X21324Y20324D01*
X21229Y20397D01*
X21119Y20443D01*
X21000Y20458D01*
D02*
G37*
G36*
X13702Y17450D02*
X13300D01*
Y17048D01*
X13369Y17057D01*
X13479Y17103D01*
X13574Y17176D01*
X13647Y17271D01*
X13693Y17381D01*
X13702Y17450D01*
D02*
G37*
G36*
X13200D02*
X12798D01*
X12807Y17381D01*
X12853Y17271D01*
X12926Y17176D01*
X13021Y17103D01*
X13131Y17057D01*
X13200Y17048D01*
Y17450D01*
D02*
G37*
G36*
X15640Y17132D02*
X15398D01*
Y16924D01*
X15640D01*
Y17132D01*
D02*
G37*
G36*
X15298D02*
X15057D01*
Y16924D01*
X15298D01*
Y17132D01*
D02*
G37*
G36*
X15640Y16824D02*
X15398D01*
Y16616D01*
X15640D01*
Y16824D01*
D02*
G37*
G36*
X15298D02*
X15057D01*
Y16616D01*
X15298D01*
Y16824D01*
D02*
G37*
G36*
X22000Y17103D02*
X21909Y17091D01*
X21823Y17056D01*
X21750Y17000D01*
X21694Y16927D01*
X21659Y16841D01*
X21647Y16750D01*
X21659Y16661D01*
X18176Y13178D01*
X15074D01*
X14834Y13418D01*
Y13884D01*
X14968D01*
X14982Y13884D01*
X15018D01*
X15032Y13884D01*
X15671D01*
Y14616D01*
X15527D01*
Y15868D01*
X15640D01*
Y16384D01*
X15057D01*
Y15868D01*
X15170D01*
Y14616D01*
X15032D01*
X15018Y14616D01*
X14982D01*
X14968Y14616D01*
X14329D01*
Y14428D01*
X14000D01*
X13932Y14415D01*
X13874Y14376D01*
X13176Y13678D01*
X11171D01*
Y13866D01*
X10532D01*
X10518Y13866D01*
X10482D01*
X10468Y13866D01*
X9829D01*
Y13744D01*
X9779Y13723D01*
X9437Y14065D01*
X9379Y14104D01*
X9311Y14117D01*
X9145D01*
Y14334D01*
X8355D01*
Y13544D01*
X8686D01*
X8729Y13527D01*
X8729Y13494D01*
Y13300D01*
X9006D01*
X9283D01*
Y13527D01*
X9188D01*
X9145Y13544D01*
X9145Y13577D01*
Y13761D01*
X9237D01*
X9624Y13374D01*
X9682Y13335D01*
X9750Y13322D01*
X9750Y13322D01*
X9829D01*
Y13134D01*
X10468D01*
X10482Y13134D01*
X10518D01*
X10532Y13134D01*
X11171D01*
Y13322D01*
X13250D01*
X13318Y13335D01*
X13376Y13374D01*
X14074Y14072D01*
X14329D01*
Y13884D01*
X14477D01*
Y13344D01*
X14491Y13276D01*
X14529Y13218D01*
X14874Y12874D01*
X14874Y12874D01*
X14932Y12835D01*
X15000Y12822D01*
X15000Y12822D01*
X18250D01*
X18318Y12835D01*
X18376Y12874D01*
X21911Y16409D01*
X22000Y16397D01*
X22091Y16409D01*
X22177Y16444D01*
X22250Y16500D01*
X22306Y16573D01*
X22341Y16659D01*
X22353Y16750D01*
X22341Y16841D01*
X22306Y16927D01*
X22250Y17000D01*
X22177Y17056D01*
X22091Y17091D01*
X22000Y17103D01*
D02*
G37*
G36*
X13250Y16958D02*
X13131Y16943D01*
X13021Y16897D01*
X12926Y16824D01*
X12853Y16729D01*
X12807Y16619D01*
X12792Y16500D01*
X12807Y16381D01*
X12853Y16271D01*
X12926Y16176D01*
X13021Y16103D01*
X13131Y16057D01*
X13250Y16042D01*
X13369Y16057D01*
X13479Y16103D01*
X13574Y16176D01*
X13647Y16271D01*
X13668Y16322D01*
X14360D01*
Y16242D01*
X14943D01*
Y16758D01*
X14360D01*
Y16678D01*
X13668D01*
X13647Y16729D01*
X13574Y16824D01*
X13479Y16897D01*
X13369Y16943D01*
X13250Y16958D01*
D02*
G37*
G36*
X13516Y15958D02*
X12984D01*
X12911Y15943D01*
X12848Y15902D01*
X12807Y15839D01*
X12792Y15766D01*
Y15294D01*
X12176Y14678D01*
X12054D01*
X12000Y14750D01*
X11927Y14806D01*
X11841Y14841D01*
X11750Y14853D01*
X11659Y14841D01*
X11573Y14806D01*
X11500Y14750D01*
X11444Y14677D01*
X11409Y14591D01*
X11397Y14500D01*
X11409Y14409D01*
X11444Y14323D01*
X11500Y14250D01*
X11573Y14194D01*
X11659Y14159D01*
X11750Y14147D01*
X11841Y14159D01*
X11927Y14194D01*
X12000Y14250D01*
X12054Y14322D01*
X12250D01*
X12318Y14335D01*
X12376Y14374D01*
X13044Y15042D01*
X13516D01*
X13589Y15057D01*
X13652Y15098D01*
X13693Y15161D01*
X13708Y15234D01*
Y15766D01*
X13693Y15839D01*
X13652Y15902D01*
X13589Y15943D01*
X13516Y15958D01*
D02*
G37*
G36*
X28148Y14952D02*
Y14550D01*
X28550D01*
X28541Y14619D01*
X28495Y14729D01*
X28422Y14824D01*
X28328Y14897D01*
X28217Y14943D01*
X28148Y14952D01*
D02*
G37*
G36*
X28048Y14952D02*
X27980Y14943D01*
X27869Y14897D01*
X27774Y14824D01*
X27702Y14729D01*
X27656Y14619D01*
X27647Y14550D01*
X28048D01*
Y14952D01*
D02*
G37*
G36*
Y14450D02*
X27647D01*
X27656Y14381D01*
X27702Y14271D01*
X27774Y14176D01*
X27869Y14103D01*
X27980Y14057D01*
X28048Y14048D01*
Y14450D01*
D02*
G37*
G36*
X28550D02*
X28148D01*
Y14048D01*
X28217Y14057D01*
X28328Y14103D01*
X28422Y14176D01*
X28495Y14271D01*
X28541Y14381D01*
X28550Y14450D01*
D02*
G37*
G36*
X9283Y13200D02*
X9006D01*
X8729D01*
X8729Y12973D01*
X8686Y12956D01*
X8355D01*
Y12611D01*
X8750D01*
X9145D01*
Y12923D01*
X9145Y12956D01*
X9188Y12973D01*
X9283D01*
Y13200D01*
D02*
G37*
G36*
X32895Y12834D02*
X32550D01*
Y12489D01*
X32895D01*
Y12834D01*
D02*
G37*
G36*
X32450D02*
X32105D01*
Y12489D01*
X32450D01*
Y12834D01*
D02*
G37*
G36*
X9145Y12511D02*
X8800D01*
Y12166D01*
X9145D01*
Y12511D01*
D02*
G37*
G36*
X8700D02*
X8355D01*
Y12166D01*
X8700D01*
Y12511D01*
D02*
G37*
G36*
X32895Y12389D02*
X32105D01*
Y12077D01*
X32105Y12044D01*
X32062Y12027D01*
X31967D01*
Y11800D01*
X32521D01*
X32521Y12027D01*
X32564Y12044D01*
X32895D01*
Y12389D01*
D02*
G37*
G36*
X9300Y9952D02*
Y9550D01*
X9702D01*
X9693Y9619D01*
X9647Y9729D01*
X9574Y9824D01*
X9479Y9897D01*
X9369Y9943D01*
X9300Y9952D01*
D02*
G37*
G36*
X9200D02*
X9131Y9943D01*
X9021Y9897D01*
X8926Y9824D01*
X8853Y9729D01*
X8807Y9619D01*
X8798Y9550D01*
X9200D01*
Y9952D01*
D02*
G37*
G36*
X9702Y9450D02*
X9300D01*
Y9048D01*
X9369Y9057D01*
X9479Y9103D01*
X9574Y9176D01*
X9647Y9271D01*
X9693Y9381D01*
X9702Y9450D01*
D02*
G37*
G36*
X9200D02*
X8798D01*
X8807Y9381D01*
X8853Y9271D01*
X8926Y9176D01*
X9021Y9103D01*
X9131Y9057D01*
X9200Y9048D01*
Y9450D01*
D02*
G37*
G36*
X9300Y8952D02*
Y8550D01*
X9702D01*
X9693Y8619D01*
X9647Y8729D01*
X9574Y8824D01*
X9479Y8897D01*
X9369Y8943D01*
X9300Y8952D01*
D02*
G37*
G36*
X9200D02*
X9131Y8943D01*
X9021Y8897D01*
X8926Y8824D01*
X8853Y8729D01*
X8807Y8619D01*
X8798Y8550D01*
X9200D01*
Y8952D01*
D02*
G37*
G36*
X28050Y8702D02*
Y8300D01*
X28452D01*
X28443Y8369D01*
X28397Y8479D01*
X28324Y8574D01*
X28229Y8647D01*
X28119Y8693D01*
X28050Y8702D01*
D02*
G37*
G36*
X27950D02*
X27881Y8693D01*
X27771Y8647D01*
X27676Y8574D01*
X27603Y8479D01*
X27557Y8369D01*
X27548Y8300D01*
X27950D01*
Y8702D01*
D02*
G37*
G36*
X9702Y8450D02*
X9300D01*
Y8048D01*
X9369Y8057D01*
X9479Y8103D01*
X9574Y8176D01*
X9647Y8271D01*
X9693Y8381D01*
X9702Y8450D01*
D02*
G37*
G36*
X9200D02*
X8798D01*
X8807Y8381D01*
X8853Y8271D01*
X8926Y8176D01*
X9021Y8103D01*
X9131Y8057D01*
X9200Y8048D01*
Y8450D01*
D02*
G37*
G36*
X28452Y8200D02*
X28050D01*
Y7798D01*
X28119Y7807D01*
X28229Y7853D01*
X28324Y7926D01*
X28397Y8021D01*
X28443Y8131D01*
X28452Y8200D01*
D02*
G37*
G36*
X27950D02*
X27548D01*
X27557Y8131D01*
X27603Y8021D01*
X27676Y7926D01*
X27771Y7853D01*
X27881Y7807D01*
X27950Y7798D01*
Y8200D01*
D02*
G37*
G36*
X9300Y7952D02*
Y7550D01*
X9702D01*
X9693Y7619D01*
X9647Y7729D01*
X9574Y7824D01*
X9479Y7897D01*
X9369Y7943D01*
X9300Y7952D01*
D02*
G37*
G36*
X9200D02*
X9131Y7943D01*
X9021Y7897D01*
X8926Y7824D01*
X8853Y7729D01*
X8807Y7619D01*
X8798Y7550D01*
X9200D01*
Y7952D01*
D02*
G37*
G36*
X16832Y7793D02*
X16300D01*
Y7241D01*
X16832D01*
Y7793D01*
D02*
G37*
G36*
X16200D02*
X15668D01*
Y7241D01*
X16200D01*
Y7793D01*
D02*
G37*
G36*
X14250Y7793D02*
X13550D01*
Y7211D01*
X14250D01*
Y7793D01*
D02*
G37*
G36*
X13450D02*
X12750D01*
Y7211D01*
X13450D01*
Y7793D01*
D02*
G37*
G36*
X9702Y7450D02*
X9300D01*
Y7048D01*
X9369Y7057D01*
X9479Y7103D01*
X9574Y7176D01*
X9647Y7271D01*
X9693Y7381D01*
X9702Y7450D01*
D02*
G37*
G36*
X9200D02*
X8798D01*
X8807Y7381D01*
X8853Y7271D01*
X8926Y7176D01*
X9021Y7103D01*
X9131Y7057D01*
X9200Y7048D01*
Y7450D01*
D02*
G37*
G36*
X16832Y7141D02*
X16300D01*
Y6589D01*
X16832D01*
Y7141D01*
D02*
G37*
G36*
X16200D02*
X15668D01*
Y6589D01*
X16200D01*
Y7141D01*
D02*
G37*
G36*
X14250Y7111D02*
X13550D01*
Y6530D01*
X14250D01*
Y7111D01*
D02*
G37*
G36*
X13450D02*
X12750D01*
Y6530D01*
X13450D01*
Y7111D01*
D02*
G37*
G36*
X11876Y6671D02*
X11550D01*
Y6365D01*
X11876D01*
Y6671D01*
D02*
G37*
G36*
X11450D02*
X11124D01*
Y6365D01*
X11450D01*
Y6671D01*
D02*
G37*
G36*
X32895Y6584D02*
X32550D01*
Y6239D01*
X32895D01*
Y6584D01*
D02*
G37*
G36*
X32450D02*
X32105D01*
Y6239D01*
X32450D01*
Y6584D01*
D02*
G37*
G36*
X32895Y6139D02*
X32105D01*
Y5827D01*
X32105Y5794D01*
X32062Y5777D01*
X31967D01*
Y5550D01*
X32521D01*
X32521Y5777D01*
X32564Y5794D01*
X32895D01*
Y6139D01*
D02*
G37*
G36*
X13797Y5470D02*
X13550D01*
Y4889D01*
X13797D01*
Y5470D01*
D02*
G37*
G36*
X13450D02*
X13203D01*
Y4889D01*
X13450D01*
Y5470D01*
D02*
G37*
G36*
X13797Y4789D02*
X13550D01*
Y4207D01*
X13797D01*
Y4789D01*
D02*
G37*
G36*
X13450D02*
X13203D01*
Y4207D01*
X13450D01*
Y4789D01*
D02*
G37*
G36*
X9516Y6958D02*
X8984D01*
X8911Y6943D01*
X8848Y6902D01*
X8807Y6839D01*
X8792Y6766D01*
Y6234D01*
X8807Y6161D01*
X8848Y6098D01*
X8911Y6057D01*
X8984Y6042D01*
X9516D01*
X9589Y6057D01*
X9652Y6098D01*
X9693Y6161D01*
X9708Y6234D01*
Y6322D01*
X9926D01*
X10689Y5559D01*
X10689Y5559D01*
X10747Y5520D01*
X10815Y5507D01*
X11124D01*
Y5329D01*
X11322D01*
Y5250D01*
X11335Y5182D01*
X11374Y5124D01*
X11812Y4686D01*
X11870Y4647D01*
X11938Y4634D01*
X11938Y4634D01*
X12146D01*
X12214Y4647D01*
X12234Y4660D01*
X12298D01*
Y4207D01*
X12891D01*
Y5470D01*
X12298D01*
Y5017D01*
X12173D01*
X12104Y5003D01*
X12085Y4991D01*
X12012D01*
X11723Y5279D01*
X11744Y5329D01*
X11876D01*
Y5959D01*
Y6265D01*
X11124D01*
Y5959D01*
Y5863D01*
X10889D01*
X10126Y6626D01*
X10068Y6665D01*
X10000Y6678D01*
X9708D01*
Y6766D01*
X9693Y6839D01*
X9652Y6902D01*
X9589Y6943D01*
X9516Y6958D01*
D02*
G37*
G36*
X14702Y5470D02*
X14109D01*
Y4207D01*
X14227D01*
Y3979D01*
X13676Y3428D01*
X11324D01*
X10126Y4626D01*
X10068Y4665D01*
X10000Y4678D01*
X7421D01*
Y4866D01*
X6782D01*
X6768Y4866D01*
X6732D01*
X6718Y4866D01*
X6262D01*
X6254Y4867D01*
X5145D01*
Y5084D01*
X4355D01*
Y4294D01*
X4686D01*
X4729Y4277D01*
X4729Y4244D01*
Y4050D01*
X5006D01*
X5283D01*
Y4277D01*
X5188D01*
X5145Y4294D01*
X5145Y4327D01*
Y4511D01*
X6079D01*
Y4134D01*
X6718D01*
X6732Y4134D01*
X6768D01*
X6782Y4134D01*
X7421D01*
Y4322D01*
X9926D01*
X11124Y3124D01*
X11182Y3085D01*
X11250Y3072D01*
X11250Y3072D01*
X13750D01*
X13818Y3085D01*
X13876Y3124D01*
X14532Y3779D01*
X14570Y3837D01*
X14584Y3906D01*
X14584Y3906D01*
Y4207D01*
X14702D01*
Y4660D01*
X15668D01*
Y4207D01*
X16072D01*
Y2750D01*
X16085Y2682D01*
X16124Y2624D01*
X17578Y1169D01*
X17557Y1119D01*
X17542Y1000D01*
X17557Y881D01*
X17603Y771D01*
X17676Y676D01*
X17771Y603D01*
X17881Y557D01*
X18000Y542D01*
X18119Y557D01*
X18229Y603D01*
X18324Y676D01*
X18397Y771D01*
X18443Y881D01*
X18458Y1000D01*
X18443Y1119D01*
X18397Y1229D01*
X18324Y1324D01*
X18229Y1397D01*
X18119Y1443D01*
X18000Y1458D01*
X17881Y1443D01*
X17831Y1422D01*
X16428Y2824D01*
Y4207D01*
X16832D01*
Y5411D01*
X15668D01*
Y5017D01*
X14702D01*
Y5470D01*
D02*
G37*
G36*
X5283Y3950D02*
X5006D01*
X4729D01*
X4729Y3723D01*
X4686Y3706D01*
X4355D01*
Y3361D01*
X4750D01*
X5145D01*
Y3673D01*
X5145Y3706D01*
X5188Y3723D01*
X5283D01*
Y3950D01*
D02*
G37*
G36*
X24550Y3702D02*
Y3300D01*
X24952D01*
X24943Y3369D01*
X24897Y3479D01*
X24824Y3574D01*
X24729Y3647D01*
X24619Y3693D01*
X24550Y3702D01*
D02*
G37*
G36*
X24450D02*
X24381Y3693D01*
X24271Y3647D01*
X24176Y3574D01*
X24103Y3479D01*
X24057Y3369D01*
X24048Y3300D01*
X24450D01*
Y3702D01*
D02*
G37*
G36*
X23550D02*
Y3300D01*
X23952D01*
X23943Y3369D01*
X23897Y3479D01*
X23824Y3574D01*
X23729Y3647D01*
X23619Y3693D01*
X23550Y3702D01*
D02*
G37*
G36*
X23450D02*
X23381Y3693D01*
X23271Y3647D01*
X23176Y3574D01*
X23103Y3479D01*
X23057Y3369D01*
X23048Y3300D01*
X23450D01*
Y3702D01*
D02*
G37*
G36*
X22550D02*
Y3300D01*
X22952D01*
X22943Y3369D01*
X22897Y3479D01*
X22824Y3574D01*
X22729Y3647D01*
X22619Y3693D01*
X22550Y3702D01*
D02*
G37*
G36*
X22450D02*
X22381Y3693D01*
X22271Y3647D01*
X22176Y3574D01*
X22103Y3479D01*
X22057Y3369D01*
X22048Y3300D01*
X22450D01*
Y3702D01*
D02*
G37*
G36*
X21550D02*
Y3300D01*
X21952D01*
X21943Y3369D01*
X21897Y3479D01*
X21824Y3574D01*
X21729Y3647D01*
X21619Y3693D01*
X21550Y3702D01*
D02*
G37*
G36*
X21450D02*
X21381Y3693D01*
X21271Y3647D01*
X21176Y3574D01*
X21103Y3479D01*
X21057Y3369D01*
X21048Y3300D01*
X21450D01*
Y3702D01*
D02*
G37*
G36*
X20550D02*
Y3300D01*
X20952D01*
X20943Y3369D01*
X20897Y3479D01*
X20824Y3574D01*
X20729Y3647D01*
X20619Y3693D01*
X20550Y3702D01*
D02*
G37*
G36*
X20450D02*
X20381Y3693D01*
X20271Y3647D01*
X20176Y3574D01*
X20103Y3479D01*
X20057Y3369D01*
X20048Y3300D01*
X20450D01*
Y3702D01*
D02*
G37*
G36*
X19766Y3708D02*
X19550D01*
Y3300D01*
X19958D01*
Y3516D01*
X19943Y3589D01*
X19902Y3652D01*
X19839Y3693D01*
X19766Y3708D01*
D02*
G37*
G36*
X19450D02*
X19234D01*
X19161Y3693D01*
X19098Y3652D01*
X19057Y3589D01*
X19042Y3516D01*
Y3300D01*
X19450D01*
Y3708D01*
D02*
G37*
G36*
X5145Y3261D02*
X4800D01*
Y2916D01*
X5145D01*
Y3261D01*
D02*
G37*
G36*
X4700D02*
X4355D01*
Y2916D01*
X4700D01*
Y3261D01*
D02*
G37*
G36*
X24952Y3200D02*
X24550D01*
Y2798D01*
X24619Y2807D01*
X24729Y2853D01*
X24824Y2926D01*
X24897Y3021D01*
X24943Y3131D01*
X24952Y3200D01*
D02*
G37*
G36*
X24450D02*
X24048D01*
X24057Y3131D01*
X24103Y3021D01*
X24176Y2926D01*
X24271Y2853D01*
X24381Y2807D01*
X24450Y2798D01*
Y3200D01*
D02*
G37*
G36*
X23952D02*
X23550D01*
Y2798D01*
X23619Y2807D01*
X23729Y2853D01*
X23824Y2926D01*
X23897Y3021D01*
X23943Y3131D01*
X23952Y3200D01*
D02*
G37*
G36*
X23450D02*
X23048D01*
X23057Y3131D01*
X23103Y3021D01*
X23176Y2926D01*
X23271Y2853D01*
X23381Y2807D01*
X23450Y2798D01*
Y3200D01*
D02*
G37*
G36*
X22952D02*
X22550D01*
Y2798D01*
X22619Y2807D01*
X22729Y2853D01*
X22824Y2926D01*
X22897Y3021D01*
X22943Y3131D01*
X22952Y3200D01*
D02*
G37*
G36*
X22450D02*
X22048D01*
X22057Y3131D01*
X22103Y3021D01*
X22176Y2926D01*
X22271Y2853D01*
X22381Y2807D01*
X22450Y2798D01*
Y3200D01*
D02*
G37*
G36*
X21952D02*
X21550D01*
Y2798D01*
X21619Y2807D01*
X21729Y2853D01*
X21824Y2926D01*
X21897Y3021D01*
X21943Y3131D01*
X21952Y3200D01*
D02*
G37*
G36*
X21450D02*
X21048D01*
X21057Y3131D01*
X21103Y3021D01*
X21176Y2926D01*
X21271Y2853D01*
X21381Y2807D01*
X21450Y2798D01*
Y3200D01*
D02*
G37*
G36*
X20952D02*
X20550D01*
Y2798D01*
X20619Y2807D01*
X20729Y2853D01*
X20824Y2926D01*
X20897Y3021D01*
X20943Y3131D01*
X20952Y3200D01*
D02*
G37*
G36*
X20450D02*
X20048D01*
X20057Y3131D01*
X20103Y3021D01*
X20176Y2926D01*
X20271Y2853D01*
X20381Y2807D01*
X20450Y2798D01*
Y3200D01*
D02*
G37*
G36*
X19958D02*
X19550D01*
Y2792D01*
X19766D01*
X19839Y2807D01*
X19902Y2848D01*
X19943Y2911D01*
X19958Y2984D01*
Y3200D01*
D02*
G37*
G36*
X19450D02*
X19042D01*
Y2984D01*
X19057Y2911D01*
X19098Y2848D01*
X19161Y2807D01*
X19234Y2792D01*
X19450D01*
Y3200D01*
D02*
G37*
G36*
X28050Y2702D02*
Y2300D01*
X28452D01*
X28443Y2369D01*
X28397Y2479D01*
X28324Y2574D01*
X28229Y2647D01*
X28119Y2693D01*
X28050Y2702D01*
D02*
G37*
G36*
X27950D02*
X27881Y2693D01*
X27771Y2647D01*
X27676Y2574D01*
X27603Y2479D01*
X27557Y2369D01*
X27548Y2300D01*
X27950D01*
Y2702D01*
D02*
G37*
G36*
X28452Y2200D02*
X28050D01*
Y1798D01*
X28119Y1807D01*
X28229Y1853D01*
X28324Y1926D01*
X28397Y2021D01*
X28443Y2131D01*
X28452Y2200D01*
D02*
G37*
G36*
X27950D02*
X27548D01*
X27557Y2131D01*
X27603Y2021D01*
X27676Y1926D01*
X27771Y1853D01*
X27881Y1807D01*
X27950Y1798D01*
Y2200D01*
D02*
G37*
G36*
X20500Y2708D02*
X20381Y2693D01*
X20271Y2647D01*
X20176Y2574D01*
X20103Y2479D01*
X20057Y2369D01*
X20042Y2250D01*
X20057Y2131D01*
X20103Y2021D01*
X20176Y1926D01*
X20271Y1853D01*
X20322Y1832D01*
Y1533D01*
X20329Y1496D01*
X20287Y1454D01*
X20266Y1458D01*
X19794D01*
X19678Y1574D01*
Y1792D01*
X19766D01*
X19839Y1807D01*
X19902Y1848D01*
X19943Y1911D01*
X19958Y1984D01*
Y2516D01*
X19943Y2589D01*
X19902Y2652D01*
X19839Y2693D01*
X19766Y2708D01*
X19234D01*
X19161Y2693D01*
X19098Y2652D01*
X19057Y2589D01*
X19042Y2516D01*
Y1984D01*
X19057Y1911D01*
X19098Y1848D01*
X19161Y1807D01*
X19234Y1792D01*
X19322D01*
Y1500D01*
X19335Y1432D01*
X19374Y1374D01*
X19542Y1206D01*
Y734D01*
X19557Y661D01*
X19598Y598D01*
X19661Y557D01*
X19734Y542D01*
X20266D01*
X20339Y557D01*
X20402Y598D01*
X20443Y661D01*
X20458Y734D01*
Y1252D01*
X20503Y1278D01*
X20588Y1193D01*
X20557Y1119D01*
X20542Y1000D01*
X20557Y881D01*
X20603Y771D01*
X20676Y676D01*
X20771Y603D01*
X20881Y557D01*
X21000Y542D01*
X21119Y557D01*
X21229Y603D01*
X21324Y676D01*
X21397Y771D01*
X21443Y881D01*
X21458Y1000D01*
X21443Y1119D01*
X21397Y1229D01*
X21324Y1324D01*
X21229Y1397D01*
X21119Y1443D01*
X21000Y1458D01*
X20881Y1443D01*
X20854Y1431D01*
X20678Y1607D01*
Y1832D01*
X20729Y1853D01*
X20824Y1926D01*
X20897Y2021D01*
X20943Y2131D01*
X20958Y2250D01*
X20943Y2369D01*
X20897Y2479D01*
X20824Y2574D01*
X20729Y2647D01*
X20619Y2693D01*
X20500Y2708D01*
D02*
G37*
G36*
X17050Y1452D02*
Y1050D01*
X17452D01*
X17443Y1119D01*
X17397Y1229D01*
X17324Y1324D01*
X17229Y1397D01*
X17119Y1443D01*
X17050Y1452D01*
D02*
G37*
G36*
X16950D02*
X16881Y1443D01*
X16771Y1397D01*
X16676Y1324D01*
X16603Y1229D01*
X16557Y1119D01*
X16548Y1050D01*
X16950D01*
Y1452D01*
D02*
G37*
G36*
X16050D02*
Y1050D01*
X16452D01*
X16443Y1119D01*
X16397Y1229D01*
X16324Y1324D01*
X16229Y1397D01*
X16119Y1443D01*
X16050Y1452D01*
D02*
G37*
G36*
X15950D02*
X15881Y1443D01*
X15771Y1397D01*
X15676Y1324D01*
X15603Y1229D01*
X15557Y1119D01*
X15548Y1050D01*
X15950D01*
Y1452D01*
D02*
G37*
G36*
X17452Y950D02*
X17050D01*
Y548D01*
X17119Y557D01*
X17229Y603D01*
X17324Y676D01*
X17397Y771D01*
X17443Y881D01*
X17452Y950D01*
D02*
G37*
G36*
X16950D02*
X16548D01*
X16557Y881D01*
X16603Y771D01*
X16676Y676D01*
X16771Y603D01*
X16881Y557D01*
X16950Y548D01*
Y950D01*
D02*
G37*
G36*
X16452D02*
X16050D01*
Y548D01*
X16119Y557D01*
X16229Y603D01*
X16324Y676D01*
X16397Y771D01*
X16443Y881D01*
X16452Y950D01*
D02*
G37*
G36*
X15950D02*
X15548D01*
X15557Y881D01*
X15603Y771D01*
X15676Y676D01*
X15771Y603D01*
X15881Y557D01*
X15950Y548D01*
Y950D01*
D02*
G37*
G36*
X11266Y1458D02*
X10734D01*
X10661Y1443D01*
X10598Y1402D01*
X10557Y1339D01*
X10542Y1266D01*
Y734D01*
X10557Y661D01*
X10598Y598D01*
X10661Y557D01*
X10734Y542D01*
X11266D01*
X11339Y557D01*
X11402Y598D01*
X11443Y661D01*
X11458Y734D01*
Y1266D01*
X11443Y1339D01*
X11402Y1402D01*
X11339Y1443D01*
X11266Y1458D01*
D02*
G37*
G36*
X24500Y2708D02*
X24381Y2693D01*
X24271Y2647D01*
X24176Y2574D01*
X24103Y2479D01*
X24057Y2369D01*
X24042Y2250D01*
X24057Y2131D01*
X24103Y2021D01*
X24176Y1926D01*
X24271Y1853D01*
X24322Y1832D01*
Y1533D01*
X24335Y1465D01*
X24374Y1407D01*
X24588Y1193D01*
X24557Y1119D01*
X24542Y1000D01*
X24557Y881D01*
X24603Y771D01*
X24676Y676D01*
X24771Y603D01*
X24881Y557D01*
X25000Y542D01*
X25119Y557D01*
X25229Y603D01*
X25324Y676D01*
X25397Y771D01*
X25443Y881D01*
X25458Y1000D01*
X25443Y1119D01*
X25397Y1229D01*
X25324Y1324D01*
X25229Y1397D01*
X25119Y1443D01*
X25000Y1458D01*
X24881Y1443D01*
X24854Y1431D01*
X24678Y1607D01*
Y1832D01*
X24729Y1853D01*
X24824Y1926D01*
X24897Y2021D01*
X24943Y2131D01*
X24958Y2250D01*
X24943Y2369D01*
X24897Y2479D01*
X24824Y2574D01*
X24729Y2647D01*
X24619Y2693D01*
X24500Y2708D01*
D02*
G37*
G36*
X23500D02*
X23381Y2693D01*
X23271Y2647D01*
X23176Y2574D01*
X23103Y2479D01*
X23057Y2369D01*
X23042Y2250D01*
X23057Y2131D01*
X23103Y2021D01*
X23176Y1926D01*
X23271Y1853D01*
X23322Y1832D01*
Y1533D01*
X23335Y1465D01*
X23374Y1407D01*
X23588Y1193D01*
X23557Y1119D01*
X23542Y1000D01*
X23557Y881D01*
X23603Y771D01*
X23676Y676D01*
X23771Y603D01*
X23881Y557D01*
X24000Y542D01*
X24119Y557D01*
X24229Y603D01*
X24324Y676D01*
X24397Y771D01*
X24443Y881D01*
X24458Y1000D01*
X24443Y1119D01*
X24397Y1229D01*
X24324Y1324D01*
X24229Y1397D01*
X24119Y1443D01*
X24000Y1458D01*
X23881Y1443D01*
X23854Y1431D01*
X23678Y1607D01*
Y1832D01*
X23729Y1853D01*
X23824Y1926D01*
X23897Y2021D01*
X23943Y2131D01*
X23958Y2250D01*
X23943Y2369D01*
X23897Y2479D01*
X23824Y2574D01*
X23729Y2647D01*
X23619Y2693D01*
X23500Y2708D01*
D02*
G37*
G36*
X22500D02*
X22381Y2693D01*
X22271Y2647D01*
X22176Y2574D01*
X22103Y2479D01*
X22057Y2369D01*
X22042Y2250D01*
X22057Y2131D01*
X22103Y2021D01*
X22176Y1926D01*
X22271Y1853D01*
X22322Y1832D01*
Y1533D01*
X22335Y1465D01*
X22374Y1407D01*
X22588Y1193D01*
X22557Y1119D01*
X22542Y1000D01*
X22557Y881D01*
X22603Y771D01*
X22676Y676D01*
X22771Y603D01*
X22881Y557D01*
X23000Y542D01*
X23119Y557D01*
X23229Y603D01*
X23324Y676D01*
X23397Y771D01*
X23443Y881D01*
X23458Y1000D01*
X23443Y1119D01*
X23397Y1229D01*
X23324Y1324D01*
X23229Y1397D01*
X23119Y1443D01*
X23000Y1458D01*
X22881Y1443D01*
X22854Y1431D01*
X22678Y1607D01*
Y1832D01*
X22729Y1853D01*
X22824Y1926D01*
X22897Y2021D01*
X22943Y2131D01*
X22958Y2250D01*
X22943Y2369D01*
X22897Y2479D01*
X22824Y2574D01*
X22729Y2647D01*
X22619Y2693D01*
X22500Y2708D01*
D02*
G37*
G36*
X21500D02*
X21381Y2693D01*
X21271Y2647D01*
X21176Y2574D01*
X21103Y2479D01*
X21057Y2369D01*
X21042Y2250D01*
X21057Y2131D01*
X21103Y2021D01*
X21176Y1926D01*
X21271Y1853D01*
X21322Y1832D01*
Y1533D01*
X21335Y1465D01*
X21374Y1407D01*
X21588Y1193D01*
X21557Y1119D01*
X21542Y1000D01*
X21557Y881D01*
X21603Y771D01*
X21676Y676D01*
X21771Y603D01*
X21881Y557D01*
X22000Y542D01*
X22119Y557D01*
X22229Y603D01*
X22324Y676D01*
X22397Y771D01*
X22443Y881D01*
X22458Y1000D01*
X22443Y1119D01*
X22397Y1229D01*
X22324Y1324D01*
X22229Y1397D01*
X22119Y1443D01*
X22000Y1458D01*
X21881Y1443D01*
X21854Y1431D01*
X21678Y1607D01*
Y1832D01*
X21729Y1853D01*
X21824Y1926D01*
X21897Y2021D01*
X21943Y2131D01*
X21958Y2250D01*
X21943Y2369D01*
X21897Y2479D01*
X21824Y2574D01*
X21729Y2647D01*
X21619Y2693D01*
X21500Y2708D01*
D02*
G37*
G36*
X15000Y1458D02*
X14881Y1443D01*
X14771Y1397D01*
X14676Y1324D01*
X14603Y1229D01*
X14557Y1119D01*
X14542Y1000D01*
X14557Y881D01*
X14603Y771D01*
X14676Y676D01*
X14771Y603D01*
X14881Y557D01*
X15000Y542D01*
X15119Y557D01*
X15229Y603D01*
X15324Y676D01*
X15397Y771D01*
X15443Y881D01*
X15458Y1000D01*
X15443Y1119D01*
X15397Y1229D01*
X15324Y1324D01*
X15229Y1397D01*
X15119Y1443D01*
X15000Y1458D01*
D02*
G37*
G36*
X14000D02*
X13881Y1443D01*
X13771Y1397D01*
X13676Y1324D01*
X13603Y1229D01*
X13557Y1119D01*
X13542Y1000D01*
X13557Y881D01*
X13603Y771D01*
X13676Y676D01*
X13771Y603D01*
X13881Y557D01*
X14000Y542D01*
X14119Y557D01*
X14229Y603D01*
X14324Y676D01*
X14397Y771D01*
X14443Y881D01*
X14458Y1000D01*
X14443Y1119D01*
X14397Y1229D01*
X14324Y1324D01*
X14229Y1397D01*
X14119Y1443D01*
X14000Y1458D01*
D02*
G37*
G36*
X13000D02*
X12881Y1443D01*
X12771Y1397D01*
X12676Y1324D01*
X12603Y1229D01*
X12557Y1119D01*
X12542Y1000D01*
X12557Y881D01*
X12603Y771D01*
X12676Y676D01*
X12771Y603D01*
X12881Y557D01*
X13000Y542D01*
X13119Y557D01*
X13229Y603D01*
X13324Y676D01*
X13397Y771D01*
X13443Y881D01*
X13458Y1000D01*
X13443Y1119D01*
X13397Y1229D01*
X13324Y1324D01*
X13229Y1397D01*
X13119Y1443D01*
X13000Y1458D01*
D02*
G37*
G36*
X12000D02*
X11881Y1443D01*
X11771Y1397D01*
X11676Y1324D01*
X11603Y1229D01*
X11557Y1119D01*
X11542Y1000D01*
X11557Y881D01*
X11603Y771D01*
X11676Y676D01*
X11771Y603D01*
X11881Y557D01*
X12000Y542D01*
X12119Y557D01*
X12229Y603D01*
X12324Y676D01*
X12397Y771D01*
X12443Y881D01*
X12458Y1000D01*
X12443Y1119D01*
X12397Y1229D01*
X12324Y1324D01*
X12229Y1397D01*
X12119Y1443D01*
X12000Y1458D01*
D02*
G37*
%LPD*%
D17*
X6000Y25744D02*
D03*
X13250D02*
D03*
X20500D02*
D03*
X27750D02*
D03*
D18*
X6689Y26000D02*
D03*
X5311D02*
D03*
X13939D02*
D03*
X12561D02*
D03*
X21189D02*
D03*
X19811D02*
D03*
X28439D02*
D03*
X27061D02*
D03*
D19*
X5006Y4000D02*
D03*
X32244Y18000D02*
D03*
Y11750D02*
D03*
Y5500D02*
D03*
X9006Y13250D02*
D03*
D20*
X4750Y4689D02*
D03*
Y3311D02*
D03*
X32500Y17311D02*
D03*
Y18689D02*
D03*
Y11061D02*
D03*
Y12439D02*
D03*
Y4811D02*
D03*
Y6189D02*
D03*
X8750Y13939D02*
D03*
Y12561D02*
D03*
D21*
X6406Y4500D02*
D03*
X7094D02*
D03*
X14656Y14250D02*
D03*
X15344D02*
D03*
X10156Y13500D02*
D03*
X10844D02*
D03*
X30344Y5250D02*
D03*
X29656D02*
D03*
X30594Y11250D02*
D03*
X29906D02*
D03*
X30344Y17500D02*
D03*
X29656D02*
D03*
X19989Y22000D02*
D03*
X20678D02*
D03*
X27156D02*
D03*
X27844D02*
D03*
X5656D02*
D03*
X6344D02*
D03*
X12822D02*
D03*
X13511D02*
D03*
D22*
X11500Y5685D02*
D03*
Y6315D02*
D03*
D23*
X12594Y4839D02*
D03*
X13500D02*
D03*
X14406D02*
D03*
D24*
X13500Y7161D02*
D03*
D25*
X16250Y7191D02*
D03*
Y4809D02*
D03*
D26*
X14652Y16500D02*
D03*
X15348Y16874D02*
D03*
Y16126D02*
D03*
D43*
X18000Y20500D02*
X18928Y21428D01*
X20428D02*
X20526Y21526D01*
X18928Y21428D02*
X20428D01*
X20526Y21526D02*
Y21849D01*
X14656Y13344D02*
Y14250D01*
Y13344D02*
X15000Y13000D01*
X18250D02*
X22000Y16750D01*
X15000Y13000D02*
X18250D01*
X23000Y17000D02*
X26750D01*
X22000Y18000D02*
X23000Y17000D01*
X23750Y17250D02*
X27000D01*
X21000Y20000D02*
X23750Y17250D01*
X27000Y6500D02*
X28059Y5441D01*
X29504D01*
X27000Y6500D02*
Y16750D01*
X26750Y17000D02*
X27000Y16750D01*
X29504Y5441D02*
X29578Y5367D01*
X28069Y3319D02*
Y3741D01*
X29578Y5133D02*
Y5250D01*
X28069Y3741D02*
X29387Y5059D01*
X29504D02*
X29578Y5133D01*
Y5250D02*
Y5367D01*
Y5250D02*
X29656D01*
X29387Y5059D02*
X29504D01*
X28000Y3250D02*
X28069Y3319D01*
X27250Y13000D02*
X29000Y11250D01*
X27000Y17250D02*
X27250Y17000D01*
Y13000D02*
Y17000D01*
X29656Y17500D02*
Y18344D01*
X20750Y20750D02*
X27250D01*
X29656Y18344D01*
X20000Y20000D02*
X20750Y20750D01*
X28098Y15500D02*
X28098D01*
X27844Y22000D02*
X27996Y21849D01*
Y21509D02*
Y21849D01*
Y21509D02*
X28000Y21505D01*
Y21250D02*
Y21505D01*
X27750Y21000D02*
X28000Y21250D01*
X19000Y20000D02*
X20000Y21000D01*
X27750D01*
X20526Y21849D02*
X20678Y22000D01*
X18000Y20000D02*
Y20500D01*
X16293Y20107D02*
X16400Y20000D01*
X16293Y20107D02*
Y20457D01*
X15731Y21019D02*
X16293Y20457D01*
X15500Y21598D02*
X15731Y21368D01*
Y21019D02*
Y21368D01*
X8250Y21000D02*
Y21598D01*
X8500Y20750D02*
X15250D01*
X8250Y21000D02*
X8500Y20750D01*
X15400Y20000D02*
Y20600D01*
X15250Y20750D02*
X15400Y20600D01*
X12250Y14500D02*
X13250Y15500D01*
X11750Y14500D02*
X12250D01*
X11500Y5250D02*
X11938Y4812D01*
X12173Y4839D02*
X12594D01*
X12146Y4812D02*
X12173Y4839D01*
X11938Y4812D02*
X12146D01*
X11500Y5250D02*
Y5685D01*
X10815D02*
X11500D01*
X9250Y6500D02*
X10000D01*
X10815Y5685D01*
X16250Y2750D02*
X18000Y1000D01*
X16250Y2750D02*
Y4809D01*
X14406Y4839D02*
X16220D01*
X16250Y4809D01*
X25000Y1000D02*
Y1033D01*
X24500Y1533D02*
X25000Y1033D01*
X24500Y1533D02*
Y2250D01*
X24000Y1000D02*
Y1033D01*
X23500Y1533D02*
X24000Y1033D01*
X23500Y1533D02*
Y2250D01*
X23000Y1000D02*
Y1033D01*
X22500Y1533D02*
X23000Y1033D01*
X22500Y1533D02*
Y2250D01*
X22000Y1000D02*
Y1033D01*
X21500Y1533D02*
X22000Y1033D01*
X21500Y1533D02*
Y2250D01*
X21000Y1000D02*
Y1033D01*
X20500Y1533D02*
X21000Y1033D01*
X20500Y1533D02*
Y2250D01*
X19500Y1500D02*
X20000Y1000D01*
X19500Y1500D02*
Y2250D01*
X15348Y14254D02*
Y16126D01*
X15344Y14250D02*
X15348Y14254D01*
X13250Y16500D02*
X14652D01*
X14000Y14250D02*
X14656D01*
X10844Y13500D02*
X13250D01*
X14000Y14250D01*
X9750Y13500D02*
X10156D01*
X8750Y13939D02*
X9311D01*
X9750Y13500D01*
X14406Y3906D02*
Y4839D01*
X13750Y3250D02*
X14406Y3906D01*
X11250Y3250D02*
X13750D01*
X7094Y4500D02*
X10000D01*
X11250Y3250D01*
X4750Y4689D02*
X6254D01*
X6406Y4538D01*
Y4500D02*
Y4538D01*
X30344Y5211D02*
Y5250D01*
Y5211D02*
X30496Y5059D01*
X30535D01*
X30594Y5000D01*
X31000D01*
X31189Y4811D02*
X32500D01*
X31000Y5000D02*
X31189Y4811D01*
X28062Y16562D02*
X29000Y17500D01*
X28098Y15500D02*
Y16152D01*
X28062Y16188D02*
X28098Y16152D01*
X28062Y16188D02*
Y16562D01*
X29000Y17500D02*
X29656D01*
X32439Y11000D02*
X32500Y11061D01*
X31750Y11000D02*
X32439D01*
X30594Y11250D02*
X31500D01*
X31750Y11000D01*
X29000Y11250D02*
X29906D01*
X28000Y9250D02*
Y10250D01*
X29000Y11250D01*
X32439Y17250D02*
X32500Y17311D01*
X31750Y17250D02*
X32439D01*
X30344Y17500D02*
X31500D01*
X31750Y17250D01*
X28439Y26000D02*
X28500Y25939D01*
Y24250D02*
Y25939D01*
X27156Y22000D02*
Y22906D01*
X28500Y24250D01*
X27844Y22000D02*
X28500D01*
X28902Y21598D02*
X30000D01*
X28500Y22000D02*
X28902Y21598D01*
X21189Y26000D02*
X21250Y25939D01*
Y24250D02*
Y25939D01*
X19989Y22000D02*
Y22989D01*
X21250Y24250D01*
X20678Y22000D02*
X22000D01*
X22519Y21829D02*
X22750Y21598D01*
X22171Y21829D02*
X22519D01*
X22000Y22000D02*
X22171Y21829D01*
X13511Y22000D02*
X14250D01*
X14652Y21598D02*
X15500D01*
X14250Y22000D02*
X14652Y21598D01*
X13939Y26000D02*
X14000Y25939D01*
Y24000D02*
Y25939D01*
X12822Y22000D02*
Y22822D01*
X14000Y24000D01*
X6344Y22000D02*
X7250D01*
X8059Y21789D02*
X8250Y21598D01*
X7461Y21789D02*
X8059D01*
X7250Y22000D02*
X7461Y21789D01*
X6689Y26000D02*
X6750Y25939D01*
Y25000D02*
Y25939D01*
X5656Y22000D02*
Y23906D01*
X6750Y25000D01*
D44*
X9750D02*
D03*
X7750D02*
D03*
X17000D02*
D03*
X15000D02*
D03*
X24250D02*
D03*
X22250D02*
D03*
X31500D02*
D03*
X29500D02*
D03*
X31500Y14000D02*
D03*
Y16000D02*
D03*
X31402Y7750D02*
D03*
Y9750D02*
D03*
Y1750D02*
D03*
Y3750D02*
D03*
X5848Y6000D02*
D03*
Y10000D02*
D03*
X9848Y15000D02*
D03*
Y18000D02*
D03*
D45*
X8250Y21598D02*
D03*
X15500D02*
D03*
X22750D02*
D03*
X30000D02*
D03*
X18000Y20000D02*
D03*
X7400D02*
D03*
X11000Y1000D02*
D03*
X20000D02*
D03*
X19500Y2250D02*
D03*
Y3250D02*
D03*
D46*
X9250Y21598D02*
D03*
X16500D02*
D03*
X23750D02*
D03*
X31000D02*
D03*
X28098Y14500D02*
D03*
X28000Y8250D02*
D03*
Y2250D02*
D03*
X9250Y9500D02*
D03*
Y8500D02*
D03*
Y7500D02*
D03*
X13250Y17500D02*
D03*
Y16500D02*
D03*
X19000Y20000D02*
D03*
X20000D02*
D03*
X21000D02*
D03*
X22000D02*
D03*
X23000D02*
D03*
X25000D02*
D03*
X24000D02*
D03*
X12400D02*
D03*
X11400D02*
D03*
X10400D02*
D03*
X9400D02*
D03*
X8400D02*
D03*
X16400D02*
D03*
X15400D02*
D03*
X14400D02*
D03*
X13400D02*
D03*
X12000Y1000D02*
D03*
X13000D02*
D03*
X14000D02*
D03*
X15000D02*
D03*
X16000D02*
D03*
X18000D02*
D03*
X17000D02*
D03*
X25000D02*
D03*
X24000D02*
D03*
X23000D02*
D03*
X22000D02*
D03*
X21000D02*
D03*
X24500Y2250D02*
D03*
X23500D02*
D03*
X22500D02*
D03*
X21500D02*
D03*
X20500D02*
D03*
X24500Y3250D02*
D03*
X23500D02*
D03*
X22500D02*
D03*
X21500D02*
D03*
X20500D02*
D03*
D47*
X28098Y15500D02*
D03*
X28000Y9250D02*
D03*
Y3250D02*
D03*
X9250Y6500D02*
D03*
X13250Y15500D02*
D03*
D48*
X22000Y16750D02*
D03*
Y18000D02*
D03*
X11750Y14500D02*
D03*
D49*
X26000Y3000D02*
D03*
Y14000D02*
D03*
X5500Y1000D02*
D03*
X6000Y20000D02*
D03*
M02*
