G04*
G04 #@! TF.GenerationSoftware,Altium Limited,Altium Designer,20.0.13 (296)*
G04*
G04 Layer_Color=16711935*
%FSLAX24Y24*%
%MOIN*%
G70*
G01*
G75*
%ADD37C,0.0680*%
G04:AMPARAMS|DCode=38|XSize=78.9mil|YSize=78.9mil|CornerRadius=12.9mil|HoleSize=0mil|Usage=FLASHONLY|Rotation=0.000|XOffset=0mil|YOffset=0mil|HoleType=Round|Shape=RoundedRectangle|*
%AMROUNDEDRECTD38*
21,1,0.0789,0.0531,0,0,0.0*
21,1,0.0531,0.0789,0,0,0.0*
1,1,0.0257,0.0266,-0.0266*
1,1,0.0257,-0.0266,-0.0266*
1,1,0.0257,-0.0266,0.0266*
1,1,0.0257,0.0266,0.0266*
%
%ADD38ROUNDEDRECTD38*%
%ADD39C,0.0789*%
G04:AMPARAMS|DCode=40|XSize=78.9mil|YSize=78.9mil|CornerRadius=12.9mil|HoleSize=0mil|Usage=FLASHONLY|Rotation=270.000|XOffset=0mil|YOffset=0mil|HoleType=Round|Shape=RoundedRectangle|*
%AMROUNDEDRECTD40*
21,1,0.0789,0.0531,0,0,270.0*
21,1,0.0531,0.0789,0,0,270.0*
1,1,0.0257,-0.0266,-0.0266*
1,1,0.0257,-0.0266,0.0266*
1,1,0.0257,0.0266,0.0266*
1,1,0.0257,0.0266,-0.0266*
%
%ADD40ROUNDEDRECTD40*%
%ADD41C,0.0580*%
%ADD42C,0.1330*%
D37*
X9750Y25000D02*
D03*
X7750D02*
D03*
X17000D02*
D03*
X15000D02*
D03*
X24250D02*
D03*
X22250D02*
D03*
X31500D02*
D03*
X29500D02*
D03*
X31500Y14000D02*
D03*
Y16000D02*
D03*
X31402Y7750D02*
D03*
Y9750D02*
D03*
Y1750D02*
D03*
Y3750D02*
D03*
X5848Y6000D02*
D03*
Y10000D02*
D03*
X9848Y15000D02*
D03*
Y18000D02*
D03*
D38*
X8250Y21598D02*
D03*
X15500D02*
D03*
X22750D02*
D03*
X30000D02*
D03*
X18000Y20000D02*
D03*
X7400D02*
D03*
X11000Y1000D02*
D03*
X20000D02*
D03*
X19500Y2250D02*
D03*
Y3250D02*
D03*
D39*
X9250Y21598D02*
D03*
X16500D02*
D03*
X23750D02*
D03*
X31000D02*
D03*
X28098Y14500D02*
D03*
X28000Y8250D02*
D03*
Y2250D02*
D03*
X9250Y9500D02*
D03*
Y8500D02*
D03*
Y7500D02*
D03*
X13250Y17500D02*
D03*
Y16500D02*
D03*
X19000Y20000D02*
D03*
X20000D02*
D03*
X21000D02*
D03*
X22000D02*
D03*
X23000D02*
D03*
X25000D02*
D03*
X24000D02*
D03*
X12400D02*
D03*
X11400D02*
D03*
X10400D02*
D03*
X9400D02*
D03*
X8400D02*
D03*
X16400D02*
D03*
X15400D02*
D03*
X14400D02*
D03*
X13400D02*
D03*
X12000Y1000D02*
D03*
X13000D02*
D03*
X14000D02*
D03*
X15000D02*
D03*
X16000D02*
D03*
X18000D02*
D03*
X17000D02*
D03*
X25000D02*
D03*
X24000D02*
D03*
X23000D02*
D03*
X22000D02*
D03*
X21000D02*
D03*
X24500Y2250D02*
D03*
X23500D02*
D03*
X22500D02*
D03*
X21500D02*
D03*
X20500D02*
D03*
X24500Y3250D02*
D03*
X23500D02*
D03*
X22500D02*
D03*
X21500D02*
D03*
X20500D02*
D03*
D40*
X28098Y15500D02*
D03*
X28000Y9250D02*
D03*
Y3250D02*
D03*
X9250Y6500D02*
D03*
X13250Y15500D02*
D03*
D41*
X22000Y16750D02*
D03*
Y18000D02*
D03*
X11750Y14500D02*
D03*
D42*
X26000Y3000D02*
D03*
Y14000D02*
D03*
X5500Y1000D02*
D03*
X6000Y20000D02*
D03*
M02*
