G04*
G04 #@! TF.GenerationSoftware,Altium Limited,Altium Designer,20.0.13 (296)*
G04*
G04 Layer_Color=8421504*
%FSLAX24Y24*%
%MOIN*%
G70*
G01*
G75*
%ADD17R,0.0354X0.0354*%
%ADD18R,0.0591X0.0591*%
%ADD19R,0.0354X0.0354*%
%ADD20R,0.0591X0.0591*%
%ADD21R,0.0453X0.0531*%
%ADD22R,0.0551X0.0512*%
%ADD23R,0.0394X0.1063*%
%ADD24R,0.1299X0.1063*%
%ADD25R,0.0965X0.1004*%
%ADD26R,0.0383X0.0316*%
D17*
X6000Y25744D02*
D03*
X13250D02*
D03*
X20500D02*
D03*
X27750D02*
D03*
D18*
X6689Y26000D02*
D03*
X5311D02*
D03*
X13939D02*
D03*
X12561D02*
D03*
X21189D02*
D03*
X19811D02*
D03*
X28439D02*
D03*
X27061D02*
D03*
D19*
X5006Y4000D02*
D03*
X32244Y18000D02*
D03*
Y11750D02*
D03*
Y5500D02*
D03*
X9006Y13250D02*
D03*
D20*
X4750Y4689D02*
D03*
Y3311D02*
D03*
X32500Y17311D02*
D03*
Y18689D02*
D03*
Y11061D02*
D03*
Y12439D02*
D03*
Y4811D02*
D03*
Y6189D02*
D03*
X8750Y13939D02*
D03*
Y12561D02*
D03*
D21*
X6406Y4500D02*
D03*
X7094D02*
D03*
X14656Y14250D02*
D03*
X15344D02*
D03*
X10156Y13500D02*
D03*
X10844D02*
D03*
X30344Y5250D02*
D03*
X29656D02*
D03*
X30594Y11250D02*
D03*
X29906D02*
D03*
X30344Y17500D02*
D03*
X29656D02*
D03*
X19989Y22000D02*
D03*
X20678D02*
D03*
X27156D02*
D03*
X27844D02*
D03*
X5656D02*
D03*
X6344D02*
D03*
X12822D02*
D03*
X13511D02*
D03*
D22*
X11500Y5685D02*
D03*
Y6315D02*
D03*
D23*
X12594Y4839D02*
D03*
X13500D02*
D03*
X14406D02*
D03*
D24*
X13500Y7161D02*
D03*
D25*
X16250Y7191D02*
D03*
Y4809D02*
D03*
D26*
X14652Y16500D02*
D03*
X15348Y16874D02*
D03*
Y16126D02*
D03*
M02*
